SplineFontDB: 2.0
FontName: LinLibertineU
FullName: Linux Libertine Underlined
FamilyName: Linux Libertine U
Weight: Book
Copyright: LinuxLibertine by Philipp H. Poll, Free Font under Terms of the GPL (General Public License - http://www.gnu.org/copyleft/gpl.html) and OFL (Open Font Licence). Created with FontForge 1.0 (http://fontforge.sf.net) Sept 2003, 2004, 2005, 2006
Comments: 2003-8-29: Created.\n2004-7-25: v(1.0) release candidate\n2005-12-28: v(1.1.0) stable\n2006-01-01: v(2.0.0) stable\n2006-09-05: v(2.2.0) stable
Version: 2.2.6
ItalicAngle: 0
UnderlinePosition: -200
UnderlineWidth: 80
Ascent: 1638
Descent: 410
NeedsXUIDChange: 1
XUID: [1021 993 1524925707 9948649]
FSType: 0
OS2Version: 0
OS2_WeightWidthSlopeOnly: 0
OS2_UseTypoMetrics: 0
CreationTime: 1156455862
ModificationTime: 1198872439
PfmFamily: 17
TTFWeight: 400
TTFWidth: 5
LineGap: 135
VLineGap: 0
OS2TypoAscent: 1501
OS2TypoAOffset: 0
OS2TypoDescent: -499
OS2TypoDOffset: 0
OS2TypoLinegap: 0
OS2WinAscent: 1830
OS2WinAOffset: 0
OS2WinDescent: 500
OS2WinDOffset: 0
HheadAscent: 1830
HheadAOffset: 0
HheadDescent: -485
HheadDOffset: 0
OS2FamilyClass: 261
OS2Vendor: 'PfEd'
Lookup: 4 0 1 "'liga' Standard Ligatures in Greek lookup 0"  {"'liga' Standard Ligatures in Greek lookup 0"  } ['liga' ('grek' <'dflt' > ) ]
Lookup: 4 0 1 "'liga' Standard Ligatures lookup 1"  {"'liga' Standard Ligatures lookup 1"  } ['liga' ('DFLT' <'dflt' > 'cyrl' <'dflt' > 'goth' <'dflt' > 'grek' <'dflt' > 'latn' <'dflt' > ) ]
Lookup: 4 0 1 "'liga' Standard Ligatures in Cyrillic lookup 2"  {"'liga' Standard Ligatures in Cyrillic lookup 2"  } ['liga' ('cyrl' <'dflt' > ) ]
Lookup: 4 0 0 "'dlig' optionale Ligaturen in Latin lookup 3"  {"'dlig' optionale Ligaturen in Latin lookup 3"  } ['dlig' ('latn' <'dflt' > ) ]
Lookup: 4 0 0 "'dlig' optionale Ligaturen lookup 4"  {"'dlig' optionale Ligaturen lookup 4"  } ['dlig' ('DFLT' <'dflt' > 'cyrl' <'dflt' > 'goth' <'dflt' > 'grek' <'dflt' > 'latn' <'dflt' > ) ]

StartChar: exclam
Encoding: 33 33 0
Width: 466
VWidth: 2047
Flags: HW
HStem: -27 218<153 309> 1341 20G<209 259.5>
VStem: 120 226<1039.1 1344.6> 122 218<4 160>
Fore
232 1361 m 0
 287 1361 346 1314 346 1212 c 0
 346 1079 314 992 293 816 c 0
 267 596 264 473 261 445 c 0
 259 421 252 404 232 404 c 0
 208 404 204 418 203 430 c 0
 199 472 188 657 172 816 c 0
 152 1004 120 1065 120 1212 c 0
 120 1323 186 1361 232 1361 c 0
-35 -170 m 1
 511 -170 l 1
 510.25 -174 l 1
 513 -174 l 1
 498 -254 l 1
 -44 -254 l 1
 -43.25 -250 l 1
 -50 -250 l 1
 -35 -170 l 1
122 82 m 0
 122 142 171 191 231 191 c 0
 291 191 340 142 340 82 c 0
 340 22 291 -27 231 -27 c 0
 171 -27 122 22 122 82 c 0
EndSplineSet
EndChar
StartChar: quotedbl
Encoding: 34 34 1
Width: 690
VWidth: 2047
Flags: HW
HStem: 873 446<182 230.274 182 233> 875 446<441 489.274 441 492>
Fore
441 875 m 1
 441 875 387 1200 387 1219 c 0
 387 1263 430 1321 492 1321 c 0
 545 1321 563 1286 563 1253 c 0
 563 1221 496 882 496 882 c 1
 441 875 l 1
244 -168 m 1
 717 -168 l 1
 716.625 -170 l 1
 748.5 -170 l 1
 733.5 -250 l 1
 443 -250 l 1
 -30 -250 l 1
 -50 -250 l 1
 -35 -170 l 1
 -15 -170 l 1
 243.625 -170 l 1
 244 -168 l 1
182 873 m 1
 182 873 128 1198 128 1217 c 0
 128 1261 171 1319 233 1319 c 0
 286 1319 304 1284 304 1251 c 0
 304 1219 237 880 237 880 c 1
 182 873 l 1
EndSplineSet
EndChar
StartChar: numbersign
Encoding: 35 35 2
Width: 899
VWidth: 999
Flags: HW
HStem: 374 100<64 233 317 527 610 781> 699 100<116 285 368 579 662 832>
VStem: 49 798<374 799>
Fore
544 474 m 1
 579 699 l 1
 354 699 l 1
 317 474 l 1
 544 474 l 1
647 699 m 1
 610 474 l 1
 795 474 l 1
 781 374 l 1
 597 374 l 1
 540 26 l 1
 473 26 l 1
 527 374 l 1
 303 374 l 1
 246 26 l 1
 179 26 l 1
 233 374 l 1
 49 374 l 1
 64 474 l 1
 250 474 l 1
 285 699 l 1
 100 699 l 1
 116 799 l 1
 301 799 l 1
 356 1146 l 1
 425 1146 l 1
 368 799 l 1
 595 799 l 1
 649 1146 l 1
 717 1146 l 1
 662 799 l 1
 847 799 l 1
 832 699 l 1
 647 699 l 1
-35 -170 m 1
 960 -170 l 1
 945 -250 l 1
 -50 -250 l 1
 -35 -170 l 1
EndSplineSet
EndChar
StartChar: dollar
Encoding: 36 36 3
Width: 899
VWidth: 2047
Flags: HW
VStem: 92 127<746.36 1028.74> 105 50<-17 26.2319> 400 76<-165 -23 45 510 699 1072 1136 1284> 670 148<89.9998 475>
Fore
400 699 m 1
 400 1076 l 1
 296.442 1068.98 219 997.415 219 893 c 0
 219 780.2 355.374 718.125 386 705 c 2
 400 699 l 1
476 510 m 1
 476 45 l 1
 518.592 52.9241 670 88 670 260 c 0
 670 446 516 488 476 510 c 1
818 319 m 0
 818 142.846 683.71 -5.84475 476 -22 c 1
 476 -165 l 1
 400 -165 l 1
 400 -23 l 1
 282.408 -15.0277 211.577 43 185 43 c 0
 166.077 43 154.541 24.8803 154.541 -3.04821 c 0
 154.541 -6.24139 154.692 -9.56279 155 -13 c 1
 105 -17 l 1
 73 339 l 1
 119 344 l 1
 127 305 l 2
 158.102 153.38 301.522 55.4891 400 44 c 1
 400 541 l 1
 306 580 l 2
 156.253 654.873 92 739 92 845 c 0
 92 1039.64 255.016 1124.47 400 1136 c 1
 400 1284 l 1
 476 1284 l 1
 476 1135 l 1
 589.338 1125.35 626.296 1086 650 1086 c 0
 662 1086 665 1091 665 1101 c 0
 665 1106 663 1139 660 1148 c 1
 711 1155 l 1
 760 820 l 1
 706 814 l 1
 692 886 l 2
 674.964 973.611 568.395 1052.2 476 1072 c 1
 476 669 l 1
 604 619 l 2
 757.666 548.946 818 439 818 319 c 0
-35 -170 m 1
 307 -170 l 1
 292 -250 l 1
 -50 -250 l 1
 -35 -170 l 1
539 -170 m 1
 951 -170 l 1
 936 -250 l 1
 524 -250 l 1
 539 -170 l 1
EndSplineSet
EndChar
StartChar: percent
Encoding: 37 37 4
Width: 1345
VWidth: 2047
Flags: HW
HStem: -38 59<927.9 1124.2> 447 64<941 1110.49> 608 59<269.9 463.6> 978 76<654.569 841.547> 1092 65<282.3 459.1>
VStem: 120 105<694.5 956.7> 504 63<814.6 1036.62> 779 105<46.6 310.4> 1163 62<175.1 461.1>
Fore
884 157 m 0
 884 51 939 21 976 21 c 0
 1090 21 1163 209 1163 322 c 0
 1163 429 1100 447 1071 447 c 0
 971 447 884 275 884 157 c 0
779 187 m 0
 779 341 898 511 1049 511 c 0
 1131 511 1225 474 1225 325 c 0
 1225 187 1134 -38 964 -38 c 0
 839 -38 779 79 779 187 c 0
745 1054 m 0
 831 1054 968 1076 1052 1165 c 1
 1130.96 1151 l 1
 285 -29 l 1
 207.899 -9.66667 l 1
 946 1017 l 1
 867 986 786 978 726 978 c 0
 677 978 600 999 561 1022 c 1
 565 1006 567 988 567 970 c 0
 567 838 478 608 306 608 c 0
 178 608 120 726 120 831 c 0
 120 988 241 1157 390 1157 c 0
 447 1157 505 1130 526 1106 c 1
 636 1054 709 1054 745 1054 c 0
225 802 m 0
 225 696 281 667 318 667 c 0
 430 667 504 850 504 968 c 0
 504 1070 448 1092 411 1092 c 0
 312 1092 225 921 225 802 c 0
-35 -170 m 1
 1383.5 -170 l 1
 1368.5 -250 l 1
 -50 -250 l 1
 -35 -170 l 1
EndSplineSet
EndChar
StartChar: parenleft
Encoding: 40 40 5
Width: 606
VWidth: 2047
Flags: HW
VStem: 90 159<288.5 744.8>
Fore
208 -1 m 0
 132 166 90 337 90 516 c 0
 90 702 129 870 209 1031 c 0
 254 1124 346 1295 525 1448 c 1
 561 1412 l 1
 417 1250 356 1092 328 1007 c 0
 275 853 249 692 249 516 c 0
 249 341 274 176 328 22 c 0
 357 -65 417 -222 561 -383 c 1
 525 -417 l 1
 386 -297 283 -163 208 -1 c 0
-35 -170 m 1
 160 -170 l 1
 145 -250 l 1
 -50 -250 l 1
 -35 -170 l 1
EndSplineSet
Substitution2: "'case' Case-Sensitive Forms lookup 28" uniF6AE
EndChar
StartChar: parenright
Encoding: 41 41 6
Width: 606
VWidth: 2047
Flags: HW
VStem: 357 159<287.2 743.5>
Fore
398 1033 m 0
 474 866 516 695 516 516 c 0
 516 330 477 162 397 1 c 0
 352 -92 260 -263 81 -416 c 1
 45 -380 l 1
 189 -218 250 -60 278 25 c 0
 331 179 357 340 357 516 c 0
 357 691 332 856 278 1010 c 0
 249 1097 189 1254 45 1415 c 1
 81 1449 l 1
 220 1329 323 1195 398 1033 c 0
440 -170 m 1
 660 -170 l 1
 645 -250 l 1
 425 -250 l 1
 440 -170 l 1
EndSplineSet
Substitution2: "'case' Case-Sensitive Forms lookup 28" uniF6AF
EndChar
StartChar: asterisk
Encoding: 42 42 7
Width: 887
VWidth: 2047
Flags: HW
HStem: 1169 138<190.3 312 566.3 675>
VStem: 370 130<1327.5 1447.2>
Fore
406 1162 m 1
 379 1167 350 1169 319 1169 c 0
 220 1169 153 1183 153 1246 c 0
 153 1274 173 1307 221 1307 c 0
 291 1307 327 1240 418 1202 c 1
 410 1283 370 1337 370 1390 c 0
 370 1434 396 1470 433 1470 c 0
 469 1470 500 1448 500 1399 c 0
 500 1344 465 1262 460 1201 c 1
 554 1241 587 1306 656 1306 c 0
 710 1306 724 1266 724 1245 c 0
 724 1183 654 1170 584 1170 c 0
 544 1170 508 1167 472 1161 c 1
 541 1086 642 1065 642 984 c 0
 642 947 611 923 582 923 c 0
 502 923 487 1056 437 1137 c 1
 385 1045 370 923 293 923 c 0
 259 923 233 951 233 982 c 0
 233 1070 337 1085 406 1162 c 1
-35 -170 m 1
 940 -170 l 1
 925 -250 l 1
 -50 -250 l 1
 -35 -170 l 1
EndSplineSet
EndChar
StartChar: plus
Encoding: 43 43 8
Width: 1080
VWidth: 2047
Flags: HW
HStem: 424 101<135 490 591 945> 861 20G<490 591>
VStem: 490 101<70 424 525 881>
Fore
591 525 m 1
 945 525 l 1
 945 424 l 1
 591 424 l 1
 591 70 l 1
 490 70 l 1
 490 424 l 1
 135 424 l 1
 135 525 l 1
 490 525 l 1
 490 881 l 1
 591 881 l 1
 591 525 l 1
-35 -170 m 1
 1128 -170 l 1
 1113 -250 l 1
 -50 -250 l 1
 -35 -170 l 1
EndSplineSet
EndChar
StartChar: slash
Encoding: 47 47 9
Width: 598
VWidth: 2047
Flags: HW
VStem: 8 570<-44 1396>
Fore
578 1396 m 1
 93 -44 l 1
 8 -44 l 1
 493 1396 l 1
 578 1396 l 1
-35 -170 m 1
 655 -170 l 1
 640 -250 l 1
 -50 -250 l 1
 -35 -170 l 1
EndSplineSet
Substitution2: "'frac' Diagonal Fractions lookup 8" uni2215
Substitution2: "'aalt' Access All Alternates lookup 27" uni2215
EndChar
StartChar: one
Encoding: 49 49 10
Width: 899
VWidth: 2047
Flags: HW
HStem: -2 61<230 430 566.6 775.467> 1161 20G<538 577>
VStem: 430 147<73.6103 950.75>
Fore
384 984 m 0
 346 984 255 948 211 926 c 1
 187 984 l 1
 366 1066 436 1108 538 1181 c 1
 577 1181 l 1
 577 154 l 2
 577 80 587 59 655 59 c 2
 762 59 l 2
 769 59 779 55 779 42 c 2
 779 -2 l 1
 498 2 l 1
 214 -2 l 1
 214 43 l 1
 215 50 217 59 230 59 c 2
 352 59 l 2
 430 59 430 94 430 154 c 2
 430 865 l 2
 430 935 430 984 384 984 c 0
-35 -170 m 1
 964 -170 l 1
 949 -250 l 1
 -50 -250 l 1
 -35 -170 l 1
EndSplineSet
AlternateSubs2: "'aalt' Access All Alternates lookup 26" one.fitted one.oldstyle
Substitution2: "'sups' Superscript lookup 25" onesuperior
Substitution2: "'sinf' Wissenschaftliche Indices lookup 24" uni2081
Substitution2: "'pnum' Proportionalziffern lookup 9" one.fitted
Substitution2: "'onum' Minuskelziffern lookup 23" one.oldstyle
EndChar
StartChar: two
Encoding: 50 50 11
Width: 899
VWidth: 999
Flags: HW
HStem: 0 118<257 684> 1120 64<249.174 525.546>
VStem: 116 141<118 148.2 947.706 1059.44> 631 157<717.5 1121.81>
Fore
118 908 m 0
 118 1024.49 232.163 1184 447 1184 c 0
 605.138 1184 788 1124.8 788 888 c 0
 788 734 707.918 656.085 598 549 c 2
 404 360 l 2
 393.533 349.803 257 214.8 257 118 c 1
 631 118 l 2
 684 118 722 180.5 739 266 c 1
 791 258 l 1
 750 0 l 1
 116 0 l 1
 116 114 134.68 202.393 325 398 c 2
 469 546 l 2
 583 664 631 755 631 880 c 0
 631 1066.01 504.42 1120 434 1120 c 0
 291.826 1120 254 1046.2 254 997 c 0
 254 964 271 937 271 906 c 0
 271 852 229 832 196 832 c 0
 152 832 118 866 118 908 c 0
-35 -170 m 1
 964 -170 l 1
 949 -250 l 1
 -50 -250 l 1
 -35 -170 l 1
EndSplineSet
AlternateSubs2: "'aalt' Access All Alternates lookup 26" two.fitted two.oldstyle
Substitution2: "'sups' Superscript lookup 25" twosuperior
Substitution2: "'sinf' Wissenschaftliche Indices lookup 24" uni2082
Substitution2: "'pnum' Proportionalziffern lookup 9" two.fitted
Substitution2: "'onum' Minuskelziffern lookup 23" two.oldstyle
EndChar
StartChar: three
Encoding: 51 51 12
Width: 899
VWidth: 999
Flags: HW
HStem: -20 63<267.6 482.1> 1124 63<376.7 550.9>
VStem: 115 126<912.537 1018.5> 609 132<912.7 1086.9> 655 151<137 654.435>
Fore
443 1124 m 0
 392 1124 241 1095 241 970 c 0
 241 932 227 870 172 870 c 0
 119 870 115 929 115 934 c 0
 115 999 198 1187 483 1187 c 0
 681 1187 741 1062 741 979 c 0
 741 928 723 830 558 722 c 1
 679 682.5 806 609.48 806 397 c 0
 806 197 707.844 91.3095 576 25 c 0
 490.9 -17.8002 423 -20 370 -20 c 0
 254 -20 91 32 91 110 c 0
 91 140 121 176 162 176 c 0
 200 176 218.789 154.558 237 128 c 0
 261 93 297 43 395 43 c 0
 462 43 655 111 655 369 c 0
 655 588.565 480.825 631 392 631 c 0
 372 631 351 628 328 623 c 1
 319 674 l 1
 477 701 609 854 609 950 c 0
 609 1066 526 1124 443 1124 c 0
-35 -170 m 1
 964 -170 l 1
 949 -250 l 1
 -50 -250 l 1
 -35 -170 l 1
EndSplineSet
AlternateSubs2: "'aalt' Access All Alternates lookup 26" three.fitted three.oldstyle
Substitution2: "'sups' Superscript lookup 25" threesuperior
Substitution2: "'sinf' Wissenschaftliche Indices lookup 24" uni2083
Substitution2: "'pnum' Proportionalziffern lookup 9" three.fitted
Substitution2: "'onum' Minuskelziffern lookup 23" three.oldstyle
EndChar
StartChar: four
Encoding: 52 52 13
Width: 899
VWidth: 999
Flags: HW
HStem: 2 55<401.976 534 669 813.594> 314 95<226 540 678 822>
VStem: 540 138<85 314 409 661>
Fore
678 829 m 1
 678 409 l 1
 822 409 l 1
 841 314 l 1
 678 314 l 1
 678 144 l 2
 678 85 687 57 747 57 c 2
 801 57 l 2
 813 57 816 48 816 42 c 2
 816 -2 l 1
 816 -2 683.645 2 599 2 c 0
 521.374 2 400 -2 400 -2 c 1
 400 43 l 2
 400 48 402 57 414 57 c 2
 470 57 l 2
 534 57 540 82.6562 540 143 c 2
 540 314 l 1
 140 314 l 2
 128.844 314 125.546 317.416 123.161 325 c 2
 107.335 375.334 l 1
 78.4268 408.192 l 2
 76.9606 409.289 76.1232 410.867 76.1232 412.634 c 0
 76.1232 414.654 77.218 416.921 79.7193 419 c 0
 304.576 656.43 451.425 1008.16 511.78 1173.47 c 0
 514.54 1181.03 519.173 1183.77 526.67 1183.77 c 0
 528.069 1183.77 529.568 1183.68 531.173 1183.5 c 2
 599 1175 l 1
 530 919 404 636 226 409 c 1
 540 409 l 1
 540 661 l 1
 657.857 829 l 1
 678 829 l 1
-35 -170 m 1
 964 -170 l 1
 949 -250 l 1
 -50 -250 l 1
 -35 -170 l 1
EndSplineSet
AlternateSubs2: "'aalt' Access All Alternates lookup 26" four.fitted four.oldstyle
Substitution2: "'sups' Superscript lookup 25" uni2074
Substitution2: "'sinf' Wissenschaftliche Indices lookup 24" uni2084
Substitution2: "'pnum' Proportionalziffern lookup 9" four.fitted
Substitution2: "'onum' Minuskelziffern lookup 23" four.oldstyle
EndChar
StartChar: five
Encoding: 53 53 14
Width: 899
VWidth: 999
Flags: HW
HStem: -19 70<303.5 575.2> 662 96<307.396 536.8> 1050 123<291 728>
VStem: 632.5 148<95.95 623.75>
Fore
-35 -170 m 1
 964 -170 l 1
 949 -250 l 1
 -50 -250 l 1
 -35 -170 l 1
632.5 347.5 m 0
 632.5 560 502 662 386 662 c 0
 288 662 202 638 152 615 c 1
 218 1180 l 1
 284.777 1173.78 354.599 1170.6 426.96 1170.6 c 0
 529.062 1170.6 636.218 1176.93 747 1190 c 1
 759 1184 l 1
 728 1054 l 1
 728 1050 l 1
 647.854 1043.18 582.151 1040.4 525.097 1040.4 c 0
 432.55 1040.4 362.761 1047.72 291 1057 c 1
 252 728 l 1
 288 748 350 758 436 758 c 0
 640 758 780.5 609 780.5 381.5 c 0
 780.5 112.5 626 -19 385 -19 c 0
 268 -19 98 46 98 127 c 0
 98 166 131 192 168 192 c 0
 209 192 234 162 260 129 c 0
 289.094 92.0735 323 51 388 51 c 0
 532 51 632.5 154 632.5 347.5 c 0
EndSplineSet
AlternateSubs2: "'aalt' Access All Alternates lookup 26" five.fitted five.oldstyle
Substitution2: "'sups' Superscript lookup 25" uni2075
Substitution2: "'sinf' Wissenschaftliche Indices lookup 24" uni2085
Substitution2: "'pnum' Proportionalziffern lookup 9" five.fitted
Substitution2: "'onum' Minuskelziffern lookup 23" five.oldstyle
EndChar
StartChar: six
Encoding: 54 54 15
Width: 899
VWidth: 999
Flags: HW
HStem: -5 60<358.1 614.2> 629 67<380.9 695.8>
VStem: 94 141<28.8 554.081> 686 138<179.7 474.4>
Fore
237 537 m 1
 236 517 235 497 235 476 c 0
 235 132 389 55 492 55 c 0
 586 55 686 134 686 347 c 0
 686 445 637 629 441 629 c 0
 398 629 320 625 237 537 c 1
770 1149 m 1
 606 1114 529.11 1076.86 465 1026 c 0
 327.235 916.703 261 721 243 595 c 1
 290 652 404 696 481 696 c 0
 784 696 824 456 824 363 c 0
 824 222 754 -5 472 -5 c 0
 321 -5 94 76 94 483 c 0
 94 711 188.319 924.558 395 1074 c 0
 490.147 1142.8 602 1174 769 1189 c 1
 770 1149 l 1
-35 -170 m 1
 964 -170 l 1
 949 -250 l 1
 -50 -250 l 1
 -35 -170 l 1
EndSplineSet
AlternateSubs2: "'aalt' Access All Alternates lookup 26" six.fitted six.oldstyle
Substitution2: "'sups' Superscript lookup 25" uni2076
Substitution2: "'sinf' Wissenschaftliche Indices lookup 24" uni2086
Substitution2: "'pnum' Proportionalziffern lookup 9" six.fitted
Substitution2: "'onum' Minuskelziffern lookup 23" six.oldstyle
EndChar
StartChar: seven
Encoding: 55 55 16
Width: 899
VWidth: 999
Flags: HW
HStem: 1029 121<187.9 675>
VStem: 84 729.437<903 1141.33>
Fore
254 1029 m 2
 175.384 1029 160 1012 135 896 c 1
 84 903 l 1
 144.666 1195.33 l 1
 188 1188 l 1
 187.641 1186.09 187.46 1184.21 187.46 1182.39 c 0
 187.46 1163.82 206.213 1150 249 1150 c 2
 808 1150 l 1
 813.437 1141.33 l 1
 595.831 611.795 488.388 317.203 376 -13 c 1
 244 -20 l 1
 237.693 -7 l 1
 367.5 287 525 651 675 1029 c 1
 254 1029 l 2
-35 -170 m 1
 964 -170 l 1
 949 -250 l 1
 -50 -250 l 1
 -35 -170 l 1
EndSplineSet
AlternateSubs2: "'aalt' Access All Alternates lookup 26" seven.fitted seven.oldstyle
Substitution2: "'sups' Superscript lookup 25" uni2077
Substitution2: "'sinf' Wissenschaftliche Indices lookup 24" uni2087
Substitution2: "'pnum' Proportionalziffern lookup 9" seven.fitted
Substitution2: "'onum' Minuskelziffern lookup 23" seven.oldstyle
EndChar
StartChar: eight
Encoding: 56 56 17
Width: 899
VWidth: 999
Flags: HW
HStem: -12 57<357.8 555.4> 1140 50<300.5 591.7>
VStem: 91 119<214.4 370.4> 115 130<879.3 1073> 631 119<809.5 1063> 682 128<133.3 406.6>
Fore
437 1140 m 0
 332 1140 245 1046 245 956 c 0
 245 897 297.178 821.27 411 746 c 2
 473 705 l 1
 526 744 631 841 631 946 c 0
 631 1036 556 1140 437 1140 c 0
750 944 m 0
 750 811 626 718 541 661 c 1
 660 580 l 2
 757.673 513.517 810 438 810 327 c 0
 810 178 690 -12 437 -12 c 0
 247 -12 91 96 91 295 c 0
 91 372 125 445 202 517 c 0
 250 561 293 597 341 629 c 1
 304 651 l 2
 182.671 723.141 115 810 115 920 c 0
 115 1069 260 1190 448 1190 c 0
 609 1190 750 1083 750 944 c 0
441 45 m 0
 529 45 682 93 682 287 c 0
 682 379 629 459 506 533 c 2
 413 587 l 1
 248 476 210 353 210 295 c 0
 210 233 227 174 273 130 c 0
 325 79 377 45 441 45 c 0
-35 -170 m 1
 964 -170 l 1
 949 -250 l 1
 -50 -250 l 1
 -35 -170 l 1
EndSplineSet
AlternateSubs2: "'aalt' Access All Alternates lookup 26" eight.fitted eight.oldstyle
Substitution2: "'sups' Superscript lookup 25" uni2078
Substitution2: "'sinf' Wissenschaftliche Indices lookup 24" uni2088
Substitution2: "'pnum' Proportionalziffern lookup 9" eight.fitted
Substitution2: "'onum' Minuskelziffern lookup 23" eight.oldstyle
EndChar
StartChar: nine
Encoding: 57 57 18
Width: 899
VWidth: 999
Flags: HW
HStem: 487 67<194.2 509.1> 1128 60<275.8 531.9>
VStem: 66 138<708.6 1003.3> 655 141<628.919 1154.2>
Fore
653 646 m 1
 654 666 655 686 655 707 c 0
 655 1051 501 1128 398 1128 c 0
 304 1128 204 1049 204 836 c 0
 204 738 253 554 449 554 c 0
 492 554 570 558 653 646 c 1
120 34 m 1
 284 69 360.89 106.138 425 157 c 0
 562.765 266.297 629 462 647 588 c 1
 600 531 486 487 409 487 c 0
 106 487 66 727 66 820 c 0
 66 961 136 1188 418 1188 c 0
 569 1188 796 1107 796 700 c 0
 796 472 701.681 258.442 495 109 c 0
 399.853 40.2033 288 9 121 -6 c 1
 120 34 l 1
-35 -170 m 1
 964 -170 l 1
 949 -250 l 1
 -50 -250 l 1
 -35 -170 l 1
EndSplineSet
AlternateSubs2: "'aalt' Access All Alternates lookup 26" nine.fitted nine.oldstyle
Substitution2: "'sups' Superscript lookup 25" uni2079
Substitution2: "'sinf' Wissenschaftliche Indices lookup 24" uni2089
Substitution2: "'pnum' Proportionalziffern lookup 9" nine.fitted
Substitution2: "'onum' Minuskelziffern lookup 23" nine.oldstyle
EndChar
StartChar: colon
Encoding: 58 58 19
Width: 450
VWidth: 2047
Flags: HW
HStem: 78 218<163 319> 616 218<163 319>
VStem: 132 218<109 265 647 803>
Fore
-35 -170 m 1
 505 -170 l 1
 490 -250 l 1
 -50 -250 l 1
 -35 -170 l 1
132 725 m 0
 132 785 181 834 241 834 c 0
 301 834 350 785 350 725 c 0
 350 665 301 616 241 616 c 0
 181 616 132 665 132 725 c 0
132 187 m 0
 132 247 181 296 241 296 c 0
 301 296 350 247 350 187 c 0
 350 127 301 78 241 78 c 0
 181 78 132 127 132 187 c 0
EndSplineSet
EndChar
StartChar: less
Encoding: 60 60 20
Width: 999
VWidth: 2047
Flags: HW
HStem: 150 678<899 899>
VStem: 100 799<252 441>
Fore
250 489 m 1
 899 252 l 1
 899 150 l 1
 100 441 l 1
 100 538 l 1
 899 828 l 1
 899 726 l 1
 250 489 l 1
-35 -170 m 1
 1054.5 -170 l 1
 1039.5 -250 l 1
 -50 -250 l 1
 -35 -170 l 1
EndSplineSet
EndChar
StartChar: equal
Encoding: 61 61 21
Width: 1080
VWidth: 2047
Flags: HW
HStem: 294 101<135 945> 551 101<135 945>
Fore
945 652 m 1
 945 551 l 1
 135 551 l 1
 135 652 l 1
 945 652 l 1
945 395 m 1
 945 294 l 1
 135 294 l 1
 135 395 l 1
 945 395 l 1
-35 -170 m 1
 1134 -170 l 1
 1119 -250 l 1
 -50 -250 l 1
 -35 -170 l 1
EndSplineSet
EndChar
StartChar: greater
Encoding: 62 62 22
Width: 999
VWidth: 2047
Flags: HW
HStem: 145 678<100 100>
VStem: 100 799<532 721>
Fore
749 484 m 1
 100 721 l 1
 100 823 l 1
 899 532 l 1
 899 435 l 1
 100 145 l 1
 100 247 l 1
 749 484 l 1
-35 -170 m 1
 1054.5 -170 l 1
 1039.5 -250 l 1
 -50 -250 l 1
 -35 -170 l 1
EndSplineSet
EndChar
StartChar: question
Encoding: 63 63 23
Width: 831
VWidth: 999
Flags: HW
HStem: -23 218<291 447> 1295 60<276.6 550.4>
VStem: 60 138<1091 1193.7> 260 218<8 164> 345 48<361.583 545.278> 603 152<912.9 1210.6>
Fore
198 1177 m 0
 198 1147 203.263 1134.96 211 1124 c 0
 218.999 1112.67 224 1102 224 1075 c 0
 224 1028 183 1003 143 1003 c 0
 111 1003 60 1019 60 1091 c 0
 60 1170 102.245 1225.7 163 1276 c 0
 224.247 1326.7 309 1355 417 1355 c 0
 626 1355 755 1232 755 1047 c 0
 755 885.419 635 792.5 538.998 719 c 0
 491.684 682.776 450.454 650.613 432 617 c 0
 405 566 393 516 393 467 c 2
 393 377 l 2
 393 363 384 356 368 356 c 0
 353 356 345 363 345 377 c 2
 345 471 l 2
 345 559 346.321 679.648 479 801 c 0
 561 876 603 942 603 1039 c 0
 603 1171 515 1295 397 1295 c 0
 280 1295 198 1238 198 1177 c 0
260 86 m 0
 260 146 309 195 369 195 c 0
 429 195 478 146 478 86 c 0
 478 26 429 -23 369 -23 c 0
 309 -23 260 26 260 86 c 0
94 -250 m 1
 -50 -250 l 1
 -35 -170 l 1
 109 -170 l 1
 651 -170 l 1
 895 -170 l 1
 880 -250 l 1
 636 -250 l 1
 94 -250 l 1
EndSplineSet
EndChar
StartChar: at
Encoding: 64 64 24
Width: 2057
VWidth: 2047
Flags: HW
HStem: -464 79<339.2 1360.5> -11 79<1284 1696.1> -6 86<782.7 990.2> 844 63<1092.22 1279.3> 1329 73<597.2 1465.6>
VStem: 120 171<173.3 1141.7> 625 165<161.5 500.4> 1786 156<227.8 1171.6>
Fore
1327 686 m 0
 1327 775 1266 844 1181 844 c 0
 1139 844 1038 841 951 745 c 0
 834 619 790 456 790 308 c 0
 790 193 828 80 979 80 c 0
 1044 80 1192 212 1255 375 c 0
 1284 452 1327 627 1327 686 c 0
1349 96 m 0
 1349 73 1370 68 1375 68 c 0
 1622 68 1786 158 1786 592 c 0
 1786 1130 1375 1329 1073 1329 c 0
 707 1329 291 1068 291 497 c 0
 291 248 451 -385 1094 -385 c 0
 1299 -385 1454 -332 1584 -230 c 1
 1611 -269 l 1
 1466 -378 1321 -464 1049 -464 c 0
 503 -464 120 -47 120 467 c 0
 120 986 514 1402 1074 1402 c 0
 1591 1402 1942 1036 1942 584 c 0
 1942 310 1807 -11 1284 -11 c 0
 1214 -11 1197 43 1197 82 c 0
 1197 120 1207 171 1227 235 c 1
 1086 30 971 -6 907 -6 c 0
 667 -6 625 190 625 285 c 0
 625 631 919 907 1174 907 c 0
 1255 907 1336 864 1360 802 c 1
 1372 860 l 1
 1487 890 l 1
 1524 878 l 1
 1381 256 l 2
 1366.05 190.988 1349 116 1349 96 c 0
-35 -170 m 1
 230 -170 l 1
 215 -250 l 1
 -50 -250 l 1
 -35 -170 l 1
1770 -170 m 1
 2135 -170 l 1
 2120 -250 l 1
 1755 -250 l 1
 1770 -170 l 1
EndSplineSet
EndChar
StartChar: A
Encoding: 65 65 25
Width: 1424
VWidth: 2047
Flags: HW
HStem: 3 54<7.83661 154.2 293.7 445.508 892.888 1031 1264.7 1408.43> 500 80<473.748 896> 1336 20G<720.5 745.5>
Fore
531 580 m 2
 896 580 l 1
 694 1126 l 1
 482 616 l 2
 479 609 478 604 478 599 c 0
 478 586 492 580 531 580 c 2
287 147 m 2
 281 133 278 120 278 109 c 0
 278 75 312 57 373 57 c 2
 432 57 l 2
 441 57 449 51 449 40 c 2
 449 2 l 1
 445 -2 l 1
 445 -2 242 3 192 3 c 0
 140 3 9 -2 9 -2 c 1
 5 2 l 1
 5 40 l 2
 5 51 11 57 21 57 c 2
 45 57 l 2
 129 57 165 97 195 166 c 2
 673 1287 l 2
 694.271 1336.89 712 1356 729 1356 c 0
 762 1356 778.995 1340 799 1287 c 2
 1218 177 l 2
 1248.17 97.0653 1289 57 1370 57 c 2
 1393 57 l 2
 1402 57 1413 51 1413 40 c 2
 1413 2 l 1
 1406 -2 l 1
 1406 -2 1250 3 1170 3 c 0
 1097 3 898 -2 898 -2 c 1
 894 2 l 1
 894 40 l 2
 894 51 900 57 910 57 c 2
 967 57 l 2
 1031 57 1063 79 1063 113 c 0
 1063 123 1061 135 1056 147 c 2
 925 500 l 1
 494 500 l 2
 444 500 429 488 419 464 c 2
 287 147 l 2
-35 -170 m 1
 1479 -170 l 1
 1464 -250 l 1
 -50 -250 l 1
 -35 -170 l 1
EndSplineSet
Substitution2: "'c2sc' Capitals to Small Capitals lookup 22" a.sc
EndChar
StartChar: B
Encoding: 66 66 26
Width: 1214
VWidth: 2047
Flags: HW
HStem: -3 70<346.9 968.3> -2 57<37.9924 192> 693 70<382 575> 1252 72<340.9 720.5> 1270 49<37.0099 298>
VStem: 217 165<59.6 693 763 1246> 849 158<862.1 1188.4> 946 183<215.2 603>
Fore
382 1178 m 2
 382 763 l 1
 544 763 l 2
 714 763 849 832 849 1005 c 0
 849 1215 686 1252 571 1252 c 0
 394 1252 382 1245 382 1178 c 2
382 693 m 1
 382 148 l 2
 382 80 397 67 564 67 c 0
 875 67 946 253 946 379 c 0
 946 563 816 693 575 693 c 2
 382 693 l 1
35 39 m 1
 36 46 38 55 50 55 c 2
 111 55 l 2
 192 55 217 77 217 149 c 2
 217 1177 l 2
 217 1246 196 1270 111 1270 c 2
 50 1270 l 2
 39 1271 35 1276 35 1284 c 2
 35 1325 l 1
 35 1325 233 1319 298 1319 c 0
 365 1319 485 1324 557 1324 c 0
 938 1324 1007 1147 1007 1009 c 0
 1007 896 922 787 817 735 c 1
 1034 686 1129 546 1129 356 c 0
 1129 181 1010 -3 602 -3 c 0
 455 -3 358.5 2 298 2 c 2
 35 -2 l 1
 35 39 l 1
-35 -170 m 1
 1275 -170 l 1
 1260 -250 l 1
 -50 -250 l 1
 -35 -170 l 1
EndSplineSet
Substitution2: "'c2sc' Capitals to Small Capitals lookup 22" b.sc
EndChar
StartChar: C
Encoding: 67 67 27
Width: 1333
VWidth: 2047
Flags: HW
HStem: -33 87<356.6 1017> 1275 70<495.9 939.2>
VStem: 78 178<300.8 1185.7> 1125 62<923.328 1027.01 1267.78 1335>
Fore
772 -33 m 0
 330 -33 78 312 78 641 c 0
 78 1060 384 1345 726 1345 c 0
 979 1345 1065 1261 1106 1261 c 0
 1123 1261 1129 1272 1129 1283 c 0
 1129 1291 1128 1323 1125 1335 c 1
 1187 1344 l 1
 1242 934 l 1
 1180 927 l 1
 1169 1006 1138.84 1080.82 1061 1152 c 0
 974.821 1230.8 896 1275 752 1275 c 0
 555 1275 256 1152 256 670 c 0
 256 386 452 54 770 54 c 0
 960 54 1078 108 1214 278 c 1
 1261 248 l 1
 1138 68 995 -33 772 -33 c 0
-35 -170 m 1
 1403 -170 l 1
 1388 -250 l 1
 -50 -250 l 1
 -35 -170 l 1
EndSplineSet
Substitution2: "'c2sc' Capitals to Small Capitals lookup 22" c.sc
EndChar
StartChar: D
Encoding: 68 68 28
Width: 1428
VWidth: 2047
Flags: HW
HStem: -3 57<38.2959 188> -3 70<345.7 981.4> 1255 70<423.4 1129.3> 1268 57<38.7683 222.8>
VStem: 217 165<62.2 1248> 1152 188<44.1 991.8>
Fore
35 36 m 2
 35 46 40 54 50 54 c 2
 111 54 l 2
 188 54 217 82 217 148 c 2
 217 1174 l 2
 217 1248 197 1268 111 1268 c 2
 53 1268 l 2
 42 1268 35 1275 35 1286 c 2
 35 1325 l 1
 296 1319 l 2
 434 1321 563 1325 632 1325 c 0
 1027 1325 1340 1011 1340 631 c 0
 1340 128 959 -3 669 -3 c 0
 459 -3 371 3 296 3 c 2
 35 -3 l 1
 35 36 l 2
382 147 m 2
 382 81 406 67 607 67 c 0
 895 67 1152 168 1152 581 c 0
 1152 897 997 1255 556 1255 c 0
 454 1255 382 1248 382 1175 c 2
 382 147 l 2
-35 -170 m 1
 1491 -170 l 1
 1476 -250 l 1
 -50 -250 l 1
 -35 -170 l 1
EndSplineSet
Substitution2: "'c2sc' Capitals to Small Capitals lookup 22" d.sc
EndChar
StartChar: E
Encoding: 69 69 29
Width: 1173
VWidth: 2047
Flags: HW
HStem: -2 57<25 184> 0 80<388.5 974> 669 70<373 730> 888 20G<793 838> 1242 80<398 904.8> 1267 57<27 203.4>
VStem: 208 165<93 669 739 1238.7> 778 59.8224<837.474 910.756> 957 55<1030.42 1145.78>
AnchorPoint: "top_akzent" 507 1429 basechar 0
Fore
983 1322 m 1
 1012 1036 l 1
 957 1030 l 1
 942 1118 873 1242 767 1242 c 2
 447 1242 l 2
 398 1242 373 1224 373 1175 c 2
 373 739 l 1
 661 739 l 2
 733 739 750.922 773.018 764 830 c 2
 778 891 l 2
 779 900 785 908 793 908 c 2
 838 908 l 2
 843 908 845 904 845 899 c 0
 838.5 848.5 829 773 829 704 c 0
 829 634 839.5 543 845 508 c 1
 840 501 l 1
 793 501 l 2
 782 501 777 509 776 516 c 2
 764 579 l 2
 752.77 637.957 730 669 661 669 c 2
 373 669 l 1
 373 147 l 2
 373 93 402 80 447 80 c 2
 840 80 l 2
 974 80 1032 189 1064 337 c 1
 1118 328 l 1
 1066 0 l 1
 449 0 l 1
 290 2 l 1
 25 -2 l 1
 25 41 l 2
 25 48 28 55 41 55 c 2
 102 55 l 2
 184 55 208 90 208 147 c 2
 208 1175 l 2
 208 1239 180 1267 102 1267 c 2
 41 1267 l 2
 27 1267 25 1276 25 1281 c 2
 25 1324 l 1
 291 1320 l 1
 450 1322 l 1
 983 1322 l 1
-35 -170 m 1
 1235 -170 l 1
 1220 -250 l 1
 -50 -250 l 1
 -35 -170 l 1
EndSplineSet
Substitution2: "'c2sc' Capitals to Small Capitals lookup 22" e.sc
EndChar
StartChar: F
Encoding: 70 70 30
Width: 998
VWidth: 2047
Flags: HW
HStem: 2 55<24.8876 180 379.7 552.508> 669 70<373 730> 888 20G<793 838> 1242 80<383.3 873> 1265 61<32 216.4>
VStem: 208 165<90 669 739 1238.7> 778 59.837<837.474 910.756> 957 55<1030.42 1145.78>
Fore
373 1175 m 2
 373 739 l 1
 661 739 l 2
 733 739 750.922 773.018 764 830 c 2
 778 891 l 2
 779 900 785 908 793 908 c 2
 838 908 l 2
 843 908 845 904 845 899 c 0
 838.5 851.5 829 773 829 704 c 0
 829 634 836.5 572.5 845 508 c 1
 840 501 l 1
 793 501 l 2
 782 501 777 509 776 516 c 2
 764 579 l 2
 752.77 637.957 730 669 661 669 c 2
 373 669 l 1
 373 147 l 2
 373 84 404 57 485 57 c 2
 539 57 l 2
 548 57 556 51 556 40 c 2
 556 2 l 1
 552 -2 l 1
 552 -2 374 2 294 2 c 0
 221 2 30 -2 30 -2 c 1
 26 2 l 1
 26 40 l 2
 26 51 32 57 42 57 c 2
 96 57 l 2
 180 57 208 90 208 147 c 2
 208 1175 l 2
 208 1234 190 1265 102 1265 c 2
 41 1265 l 2
 27 1265 25 1275 25 1280 c 2
 25 1322 l 1
 32 1326 l 1
 288 1321 l 1
 441 1322 l 1
 983 1322 l 1
 1012 1036 l 1
 957 1030 l 1
 942 1118 873 1242 767 1242 c 2
 447 1242 l 2
 398 1242 373 1224 373 1175 c 2
-35 -170 m 1
 1067 -170 l 1
 1052 -250 l 1
 -50 -250 l 1
 -35 -170 l 1
EndSplineSet
Substitution2: "'c2sc' Capitals to Small Capitals lookup 22" f.sc
EndChar
StartChar: G
Encoding: 71 71 31
Width: 1411
VWidth: 2047
Flags: HW
HStem: -26 73<328.1 945.6> 554 70<922.492 1095.3 1287 1377.11> 1272 70<376.2 900.1>
VStem: 61 178<318 1135.7> 1102 165<201.335 538.1>
Fore
1102 464 m 2
 1102 527 1071 554 990 554 c 2
 936 554 l 2
 927 554 919 560 919 571 c 2
 919 624 l 1
 923 628 l 1
 923 628 1101 624 1181 624 c 0
 1254 624 1372 628 1372 628 c 1
 1376 624 l 1
 1376 571 l 2
 1376 560 1370 554 1360 554 c 2
 1358 554 l 2
 1287 554 1267 521 1267 464 c 2
 1267 227 l 2
 1267 203.5 1279 187.5 1300 168 c 1
 1161 51 996 -26 754 -26 c 0
 342 -26 61 274 61 629 c 0
 61 1080 417 1342 768 1342 c 0
 980 1342 1091 1260 1124 1260 c 0
 1136 1260 1143 1272 1143 1285 c 0
 1143 1290 1141 1326 1141 1326 c 1
 1203 1334 l 1
 1256 933 l 1
 1193 926 l 1
 1174 1032 1129.92 1105.9 1050 1172 c 0
 967.914 1239.9 862 1272 735 1272 c 0
 459 1272 239 1028 239 669 c 0
 239 399 437 47 800 47 c 0
 912 47 1032 84 1102 150 c 1
 1102 464 l 2
-35 -170 m 1
 1467 -170 l 1
 1452 -250 l 1
 -50 -250 l 1
 -35 -170 l 1
EndSplineSet
Substitution2: "'c2sc' Capitals to Small Capitals lookup 22" g.sc
EndChar
StartChar: grave
Encoding: 96 96 32
Width: 803
VWidth: 2047
Flags: HW
HStem: 1102.33 333.11<335 491.333>
VStem: 197 324<1124 1365.4>
Fore
365 1430 m 1
 508 1173 l 2
 518.843 1152.83 521 1139.5 521 1124 c 0
 521 1114.33 507 1102.33 491.333 1102.33 c 0
 477.667 1102.33 464.04 1112.12 432 1142 c 2
 197 1365.4 l 1
 202.332 1387.33 l 1
 217.667 1400 265.333 1435.44 335 1435.44 c 0
 345 1435.44 358 1433.5 365 1430 c 1
EndSplineSet
Substitution2: "'case' Case-Sensitive Forms lookup 28" grave.cap
EndChar
StartChar: ograve
Encoding: 242 242 33
Width: 983
VWidth: 2047
Flags: HW
HStem: -20 73<261.4 643.6> 841 68<258.8 689.1> 1044.33 333.11<420 576.333>
VStem: 70 163<266.9 703.7> 282 324<1066 1307.4> 753 160<176.5 719.9>
Fore
450 1372 m 1
 593 1115 l 2
 603.843 1094.83 606 1081.5 606 1066 c 0
 606 1056.33 592 1044.33 576.333 1044.33 c 0
 562.667 1044.33 549.04 1054.12 517 1084 c 2
 282 1307.4 l 1
 287.332 1329.33 l 1
 302.667 1342 350.333 1377.44 420 1377.44 c 0
 430 1377.44 443 1375.5 450 1372 c 1
70 424 m 0
 70 704 222 909 493 909 c 0
 797 909 913 656 913 443 c 0
 913 238 780 -20 490 -20 c 0
 215 -20 70 214 70 424 c 0
472 841 m 0
 308 841 233 650 233 471 c 0
 233 314 322 53 524 53 c 0
 616 53 753 107 753 377 c 0
 753 677 639 841 472 841 c 0
-35 -170 m 1
 1039 -170 l 1
 1024 -250 l 1
 -50 -250 l 1
 -35 -170 l 1
EndSplineSet
Substitution2: "'smcp' Gemeine nach Kapit+AOQA-lchen lookup 21" ograve.sc
Substitution2: "'aalt' Access All Alternates lookup 27" ograve.sc
EndChar
StartChar: oacute
Encoding: 243 243 34
Width: 983
VWidth: 2047
Flags: HW
HStem: -20 73<261.4 643.6> 841 68<258.8 689.1> 1032 333<418 594>
VStem: 70 163<266.9 703.7> 388.001 323.999<1056.67 1295> 753 160<176.5 719.9>
Fore
564 1360 m 1
 571 1363 584 1365 594 1365 c 0
 651.337 1365 676.833 1342.83 694 1327.45 c 0
 698.721 1323.22 702.923 1319.57 707 1317 c 1
 712 1295 l 1
 477 1072 l 2
 445 1042 431 1032 418 1032 c 0
 402 1032 388.001 1043.33 388.001 1056.67 c 0
 388.001 1067.67 388.188 1082.8 401 1103 c 2
 564 1360 l 1
70 424 m 0
 70 704 222 909 493 909 c 0
 797 909 913 656 913 443 c 0
 913 238 780 -20 490 -20 c 0
 215 -20 70 214 70 424 c 0
472 841 m 0
 308 841 233 650 233 471 c 0
 233 314 322 53 524 53 c 0
 616 53 753 107 753 377 c 0
 753 677 639 841 472 841 c 0
-35 -170 m 1
 1039 -170 l 1
 1024 -250 l 1
 -50 -250 l 1
 -35 -170 l 1
EndSplineSet
Substitution2: "'smcp' Gemeine nach Kapit+AOQA-lchen lookup 21" oacute.sc
Substitution2: "'aalt' Access All Alternates lookup 27" oacute.sc
EndChar
StartChar: ocircumflex
Encoding: 244 244 35
Width: 983
VWidth: 2047
Flags: HW
HStem: -20 73<261.4 643.6> 841 68<258.8 689.1> 1028 293<554 719>
VStem: 70 163<266.9 703.7> 242 519<1055 1055> 753 160<176.5 719.9>
Fore
554 1321 m 1
 613 1225 688 1137 761 1055 c 1
 719 1028 l 1
 639 1087 570 1138 501 1212 c 1
 425 1134 358 1083 282 1028 c 1
 242 1055 l 1
 314 1136 392 1227 452 1321 c 1
 554 1321 l 1
70 424 m 0
 70 704 222 909 493 909 c 0
 797 909 913 656 913 443 c 0
 913 238 780 -20 490 -20 c 0
 215 -20 70 214 70 424 c 0
472 841 m 0
 308 841 233 650 233 471 c 0
 233 314 322 53 524 53 c 0
 616 53 753 107 753 377 c 0
 753 677 639 841 472 841 c 0
-35 -170 m 1
 1039 -170 l 1
 1024 -250 l 1
 -50 -250 l 1
 -35 -170 l 1
EndSplineSet
Substitution2: "'smcp' Gemeine nach Kapit+AOQA-lchen lookup 21" ocircumflex.sc
Substitution2: "'aalt' Access All Alternates lookup 27" ocircumflex.sc
EndChar
StartChar: otilde
Encoding: 245 245 36
Width: 983
VWidth: 2047
Flags: HW
HStem: -20 73<261.4 643.6> 841 68<258.8 689.1> 1035 90<572.3 680.2> 1134 94<285.1 400.8>
VStem: 70 163<266.9 703.7> 206 568<1046 1220> 753 160<176.5 719.9>
Fore
623 1125 m 0
 667 1125 696 1147 725 1233 c 1
 774 1220 l 1
 749 1097 691 1035 596 1035 c 0
 551 1035 508.215 1061.34 466 1088 c 0
 428 1112 390 1134 354 1134 c 0
 301 1134 274 1104 254 1036 c 1
 206 1046 l 1
 234 1167 280 1228 368 1228 c 0
 431 1228 476 1199 516 1171 c 0
 550.094 1147.13 584 1125 623 1125 c 0
70 424 m 0
 70 704 222 909 493 909 c 0
 797 909 913 656 913 443 c 0
 913 238 780 -20 490 -20 c 0
 215 -20 70 214 70 424 c 0
472 841 m 0
 308 841 233 650 233 471 c 0
 233 314 322 53 524 53 c 0
 616 53 753 107 753 377 c 0
 753 677 639 841 472 841 c 0
-35 -170 m 1
 1039 -170 l 1
 1024 -250 l 1
 -50 -250 l 1
 -35 -170 l 1
EndSplineSet
Substitution2: "'smcp' Gemeine nach Kapit+AOQA-lchen lookup 21" otilde.sc
Substitution2: "'aalt' Access All Alternates lookup 27" otilde.sc
EndChar
StartChar: odieresis
Encoding: 246 246 37
Width: 983
VWidth: 2047
Flags: HW
HStem: -20 73<261.4 643.6> 841 68<258.8 689.1> 1078 186<264.7 397.3 593.7 726.3>
VStem: 70 163<266.9 703.7> 238 186<1104.7 1237.3> 567 186<1105.7 1238.3> 753 160<176.5 719.9>
Fore
567 1172 m 0
 567 1223 609 1265 660 1265 c 0
 711 1265 753 1223 753 1172 c 0
 753 1121 711 1079 660 1079 c 0
 609 1079 567 1121 567 1172 c 0
238 1171 m 0
 238 1222 280 1264 331 1264 c 0
 382 1264 424 1222 424 1171 c 0
 424 1120 382 1078 331 1078 c 0
 280 1078 238 1120 238 1171 c 0
70 424 m 0
 70 704 222 909 493 909 c 0
 797 909 913 656 913 443 c 0
 913 238 780 -20 490 -20 c 0
 215 -20 70 214 70 424 c 0
472 841 m 0
 308 841 233 650 233 471 c 0
 233 314 322 53 524 53 c 0
 616 53 753 107 753 377 c 0
 753 677 639 841 472 841 c 0
-35 -170 m 1
 1039 -170 l 1
 1024 -250 l 1
 -50 -250 l 1
 -35 -170 l 1
EndSplineSet
Substitution2: "'smcp' Gemeine nach Kapit+AOQA-lchen lookup 21" odieresis.sc
Substitution2: "'aalt' Access All Alternates lookup 27" odieresis.sc
EndChar
StartChar: divide
Encoding: 247 247 38
Width: 1080
VWidth: 2047
Flags: HW
HStem: 106.723 182.715<478.207 608.956> 425 101<135 945> 656.723 182.715<478.207 608.956>
VStem: 452.224 182.715<132.705 263.455 682.705 813.455>
Fore
-35 -170 m 1
 1131.5 -170 l 1
 1116.5 -250 l 1
 -50 -250 l 1
 -35 -170 l 1
452.225 748.08 m 0
 452.225 798.368 493.293 839.438 543.581 839.438 c 0
 593.87 839.438 634.938 798.368 634.938 748.08 c 0
 634.938 697.792 593.87 656.723 543.581 656.723 c 0
 493.293 656.723 452.225 697.792 452.225 748.08 c 0
452.225 198.08 m 0
 452.225 248.368 493.293 289.438 543.581 289.438 c 0
 593.87 289.438 634.938 248.368 634.938 198.08 c 0
 634.938 147.792 593.87 106.723 543.581 106.723 c 0
 493.293 106.723 452.225 147.792 452.225 198.08 c 0
945 526 m 1
 945 425 l 1
 135 425 l 1
 135 526 l 1
 945 526 l 1
EndSplineSet
EndChar
StartChar: ugrave
Encoding: 249 249 39
Width: 1071
VWidth: 2047
Flags: HW
HStem: -22 92<416.5 556.9> 827 51<46.2533 187.5 598.155 749.8> 1045.33 333.11<418 574.333>
VStem: 180 153<72.7 792> 280 324<1067 1308.4> 737 153<211 792>
Fore
448 1373 m 1
 591 1116 l 2
 601.843 1095.83 604 1082.5 604 1067 c 0
 604 1057.33 590 1045.33 574.333 1045.33 c 0
 560.667 1045.33 547.04 1055.12 515 1085 c 2
 280 1308.4 l 1
 285.332 1330.33 l 1
 300.667 1343 348.333 1378.44 418 1378.44 c 0
 428 1378.44 441 1376.5 448 1373 c 1
890 245 m 2
 890 143 894 111 937 111 c 0
 961 111 1026 125 1044 130 c 1
 1056 74 l 1
 936 49 829 23 783 -18 c 1
 734 -18 l 1
 740 130 l 1
 627 8 532 -22 449 -22 c 0
 238 -22 180 115 180 256 c 2
 180 724 l 2
 180 792 165 827 90 827 c 0
 81.2754 827 69 826.5 55.7275 825.089 c 1
 55.7275 825.091 50 828 50 828 c 1
 50 877 l 1
 56 882 l 1
 56 882 193.503 878 260 878 c 0
 289 878 335 882 335 882 c 1
 333 723 l 1
 333 285 l 2
 333 104 436 70 501 70 c 0
 549 70 592 88 634 119 c 0
 683 156 716 186 737 211 c 1
 737 719 l 2
 737 792 727 827 651 827 c 0
 639 827 617.25 826.25 610 825 c 1
 606 830.25 l 1
 606 876.5 l 1
 610 882 l 1
 610 882 755 878 812 878 c 0
 860 878 893 882 893 882 c 1
 890 725 l 1
 890 245 l 2
-35 -170 m 1
 1127 -170 l 1
 1112 -250 l 1
 -50 -250 l 1
 -35 -170 l 1
EndSplineSet
Substitution2: "'smcp' Gemeine nach Kapit+AOQA-lchen lookup 21" ugrave.sc
Substitution2: "'aalt' Access All Alternates lookup 27" ugrave.sc
EndChar
StartChar: uacute
Encoding: 250 250 40
Width: 1071
VWidth: 2047
Flags: HW
HStem: -22 92<416.5 556.9> 827 51<46.2533 187.5 598.155 749.8> 1014 333<462 638>
VStem: 180 153<72.7 792> 432.001 323.999<1038.67 1277> 737 153<211 792>
Fore
608 1342 m 1
 615 1345 628 1347 638 1347 c 0
 695.337 1347 720.833 1324.83 738 1309.45 c 0
 742.721 1305.22 746.923 1301.57 751 1299 c 1
 756 1277 l 1
 521 1054 l 2
 489 1024 475 1014 462 1014 c 0
 446 1014 432.001 1025.33 432.001 1038.67 c 0
 432.001 1049.67 432.188 1064.8 445 1085 c 2
 608 1342 l 1
890 245 m 2
 890 143 894 111 937 111 c 0
 961 111 1026 125 1044 130 c 1
 1056 74 l 1
 936 49 829 23 783 -18 c 1
 734 -18 l 1
 740 130 l 1
 627 8 532 -22 449 -22 c 0
 238 -22 180 115 180 256 c 2
 180 724 l 2
 180 792 165 827 90 827 c 0
 81.2754 827 69 826.5 55.7275 825.089 c 1
 55.7275 825.091 50 828 50 828 c 1
 50 877 l 1
 56 882 l 1
 56 882 193.503 878 260 878 c 0
 289 878 335 882 335 882 c 1
 333 723 l 1
 333 285 l 2
 333 104 436 70 501 70 c 0
 549 70 592 88 634 119 c 0
 683 156 716 186 737 211 c 1
 737 719 l 2
 737 792 727 827 651 827 c 0
 639 827 617.25 826.25 610 825 c 1
 606 830.25 l 1
 606 876.5 l 1
 610 882 l 1
 610 882 755 878 812 878 c 0
 860 878 893 882 893 882 c 1
 890 725 l 1
 890 245 l 2
-35 -170 m 1
 1127 -170 l 1
 1112 -250 l 1
 -50 -250 l 1
 -35 -170 l 1
EndSplineSet
Substitution2: "'smcp' Gemeine nach Kapit+AOQA-lchen lookup 21" uacute.sc
Substitution2: "'aalt' Access All Alternates lookup 27" uacute.sc
EndChar
StartChar: ucircumflex
Encoding: 251 251 41
Width: 1071
VWidth: 2047
Flags: HW
HStem: -22 92<416.5 556.9> 827 51<46.2533 187.5 598.155 749.8> 1029 293<558 723>
VStem: 180 153<72.7 792> 246 519<1056 1056> 737 153<211 792>
Fore
558 1322 m 1
 617 1226 692 1138 765 1056 c 1
 723 1029 l 1
 643 1088 574 1139 505 1213 c 1
 429 1135 362 1084 286 1029 c 1
 246 1056 l 1
 318 1137 396 1228 456 1322 c 1
 558 1322 l 1
890 245 m 2
 890 143 894 111 937 111 c 0
 961 111 1026 125 1044 130 c 1
 1056 74 l 1
 936 49 829 23 783 -18 c 1
 734 -18 l 1
 740 130 l 1
 627 8 532 -22 449 -22 c 0
 238 -22 180 115 180 256 c 2
 180 724 l 2
 180 792 165 827 90 827 c 0
 81.2754 827 69 826.5 55.7275 825.089 c 1
 55.7275 825.091 50 828 50 828 c 1
 50 877 l 1
 56 882 l 1
 56 882 193.503 878 260 878 c 0
 289 878 335 882 335 882 c 1
 333 723 l 1
 333 285 l 2
 333 104 436 70 501 70 c 0
 549 70 592 88 634 119 c 0
 683 156 716 186 737 211 c 1
 737 719 l 2
 737 792 727 827 651 827 c 0
 639 827 617.25 826.25 610 825 c 1
 606 830.25 l 1
 606 876.5 l 1
 610 882 l 1
 610 882 755 878 812 878 c 0
 860 878 893 882 893 882 c 1
 890 725 l 1
 890 245 l 2
-35 -170 m 1
 1127 -170 l 1
 1112 -250 l 1
 -50 -250 l 1
 -35 -170 l 1
EndSplineSet
Substitution2: "'smcp' Gemeine nach Kapit+AOQA-lchen lookup 21" ucircumflex.sc
Substitution2: "'aalt' Access All Alternates lookup 27" ucircumflex.sc
EndChar
StartChar: ebreve
Encoding: 277 277 42
Width: 897
VWidth: 2047
Flags: HW
HStem: -22 101<304.5 652.024> 488 80<234 658> 836 70<406.165 566.8> 1025 117<306.8 590.2>
VStem: 70 155<164.313 499.912> 190 55<1188.33 1324.71> 658 163<488 758.4> 689 54<1191.09 1330>
Fore
245 1330 m 1
 249 1225 344 1142 468 1142 c 0
 562 1142 684 1203 689 1330 c 1
 743 1302 l 1
 723 1096 570 1025 468 1025 c 0
 309 1025 205 1143 190 1302 c 1
 245 1330 l 1
234 568 m 1
 658 568 l 1
 658 794 544 836 468 836 c 0
 421.2 836 267.769 817.892 234 568 c 1
779 190 m 1
 813 169 l 1
 736 60 634 -22 486 -22 c 0
 186 -22 70 189 70 429 c 0
 70 739.699 275.023 906 470 906 c 0
 752 906 821 696 821 488 c 1
 227 488 l 1
 225.5 476.75 225 463 225 446 c 0
 225 229.318 351 79 506 79 c 0
 618.326 79 708 112 779 190 c 1
-35 -170 m 1
 964 -170 l 1
 949 -250 l 1
 -50 -250 l 1
 -35 -170 l 1
EndSplineSet
EndChar
StartChar: Edotaccent
Encoding: 278 278 43
Width: 1173
VWidth: 2047
Flags: HW
HStem: -2 57<25 184> 0 80<388.5 974> 669 70<373 730> 888 20<793 838> 1242 80<398 904.8> 1267 57<27 203.4> 1417 196<567.8 708.2>
VStem: 208 165<93 669 739 1238.7> 540 196<1444.8 1585.2> 778 59.8224<837.474 910.756> 957 55<1030.42 1145.78>
Fore
540 1515 m 0
 540 1569 584 1613 638 1613 c 0
 692 1613 736 1569 736 1515 c 0
 736 1461 692 1417 638 1417 c 0
 584 1417 540 1461 540 1515 c 0
983 1322 m 1
 1012 1036 l 1
 957 1030 l 1
 942 1118 873 1242 767 1242 c 2
 447 1242 l 2
 398 1242 373 1224 373 1175 c 2
 373 739 l 1
 661 739 l 2
 733 739 750.922 773.018 764 830 c 2
 778 891 l 2
 779 900 785 908 793 908 c 2
 838 908 l 2
 843 908 845 904 845 899 c 0
 838.5 848.5 829 773 829 704 c 0
 829 634 839.5 543 845 508 c 1
 840 501 l 1
 793 501 l 2
 782 501 777 509 776 516 c 2
 764 579 l 2
 752.77 637.957 730 669 661 669 c 2
 373 669 l 1
 373 147 l 2
 373 93 402 80 447 80 c 2
 840 80 l 2
 974 80 1032 189 1064 337 c 1
 1118 328 l 1
 1066 0 l 1
 449 0 l 1
 290 2 l 1
 25 -2 l 1
 25 41 l 2
 25 48 28 55 41 55 c 2
 102 55 l 2
 184 55 208 90 208 147 c 2
 208 1175 l 2
 208 1239 180 1267 102 1267 c 2
 41 1267 l 2
 27 1267 25 1276 25 1281 c 2
 25 1324 l 1
 291 1320 l 1
 450 1322 l 1
 983 1322 l 1
-35 -170 m 1
 1235 -170 l 1
 1220 -250 l 1
 -50 -250 l 1
 -35 -170 l 1
EndSplineSet
EndChar
StartChar: edotaccent
Encoding: 279 279 44
Width: 897
VWidth: 2047
Flags: HW
HStem: -22 101<304.5 652.024> 488 80<234 658> 836 70<406.165 566.8> 1033 196<409.8 550.2>
VStem: 70 155<164.313 499.912> 382 196<1060.8 1201.2> 658 163<488 758.4>
Fore
382 1131 m 0
 382 1185 426 1229 480 1229 c 0
 534 1229 578 1185 578 1131 c 0
 578 1077 534 1033 480 1033 c 0
 426 1033 382 1077 382 1131 c 0
234 568 m 1
 658 568 l 1
 658 794 544 836 468 836 c 0
 421.2 836 267.769 817.892 234 568 c 1
779 190 m 1
 813 169 l 1
 736 60 634 -22 486 -22 c 0
 186 -22 70 189 70 429 c 0
 70 739.699 275.023 906 470 906 c 0
 752 906 821 696 821 488 c 1
 227 488 l 1
 225.5 476.75 225 463 225 446 c 0
 225 229.318 351 79 506 79 c 0
 618.326 79 708 112 779 190 c 1
-35 -170 m 1
 964 -170 l 1
 949 -250 l 1
 -50 -250 l 1
 -35 -170 l 1
EndSplineSet
EndChar
StartChar: Eogonek
Encoding: 280 280 45
Width: 1173
VWidth: 2047
Flags: HW
HStem: -444 64<855.8 1001.6> -2 57<25 184> 0 80<388.5 974> 669 70<373 730> 888 20<793 838> 1242 80<398 904.8> 1267 57<27 203.4>
VStem: 208 165<93 669 739 1238.7> 710 123<-345.5 -123.2> 778 59.8224<837.474 910.756> 957 55<1030.42 1145.78>
Fore
983 1322 m 1
 1012 1036 l 1
 957 1030 l 1
 942 1118 873 1242 767 1242 c 2
 447 1242 l 2
 398 1242 373 1224 373 1175 c 2
 373 739 l 1
 661 739 l 2
 733 739 750.922 773.018 764 830 c 2
 778 891 l 2
 779 900 785 908 793 908 c 2
 838 908 l 2
 843 908 845 904 845 899 c 0
 838.5 848.5 829 773 829 704 c 0
 829 634 839.5 543 845 508 c 1
 840 501 l 1
 793 501 l 2
 782 501 777 509 776 516 c 2
 764 579 l 2
 752.77 637.957 730 669 661 669 c 2
 373 669 l 1
 373 147 l 2
 373 93 402 80 447 80 c 2
 840 80 l 2
 974 80 1032 189 1064 337 c 1
 1118 328 l 1
 1066 0 l 1
 975.944 4.25376e-08 l 1
 888.322 -67.7438 833 -163.953 833 -261 c 0
 833 -326 878 -380 952 -380 c 0
 1013 -380 1043 -360 1091 -320 c 1
 1105 -360 l 1
 1056 -419 983 -444 921 -444 c 0
 811 -444 710 -380 710 -268 c 0
 710 -154.595 796.209 -70.9601 894.874 -3.71015e-08 c 1
 449 0 l 1
 290 2 l 1
 25 -2 l 1
 25 41 l 2
 25 48 28 55 41 55 c 2
 102 55 l 2
 184 55 208 90 208 147 c 2
 208 1175 l 2
 208 1239 180 1267 102 1267 c 2
 41 1267 l 2
 27 1267 25 1276 25 1281 c 2
 25 1324 l 1
 291 1320 l 1
 450 1322 l 1
 983 1322 l 1
-35 -170 m 1
 610 -170 l 1
 595 -250 l 1
 -50 -250 l 1
 -35 -170 l 1
EndSplineSet
EndChar
StartChar: eogonek
Encoding: 281 281 46
Width: 924
VWidth: 2047
Flags: HW
HStem: -376 64<598.8 744.6> -22 101<304.5 652.024> 488 80<234 658> 836 70<406.165 566.8>
VStem: 70 155<164.313 499.912> 453 123<-277.5 -55.2> 658 163<488 758.4>
Fore
234 568 m 1
 658 568 l 1
 658 794 544 836 468 836 c 0
 421.2 836 267.769 817.892 234 568 c 1
779 190 m 1
 813 169 l 1
 791.892 139.12 768.906 111.269 743.608 86.5801 c 1
 744 86 l 1
 740.746 83.8095 l 1
 722.935 66.7137 703.986 51.1845 683.752 37.6095 c 1
 616.773 -26.9892 576 -109.686 576 -193 c 0
 576 -258 621 -312 695 -312 c 0
 756 -312 786 -292 834 -252 c 1
 848 -292 l 1
 799 -351 726 -376 664 -376 c 0
 554 -376 453 -312 453 -200 c 0
 453 -129.462 486.353 -70.4412 535.311 -18.8244 c 1
 519.462 -20.9135 503.036 -22 486 -22 c 0
 186 -22 70 189 70 429 c 0
 70 739.699 275.023 906 470 906 c 0
 752 906 821 696 821 488 c 1
 227 488 l 1
 225.5 476.75 225 463 225 446 c 0
 225 229.318 351 79 506 79 c 0
 618.326 79 708 112 779 190 c 1
-35 -170 m 1
 354.5 -170 l 1
 339.5 -250 l 1
 -50 -250 l 1
 -35 -170 l 1
EndSplineSet
EndChar
StartChar: Ecaron
Encoding: 282 282 47
Width: 1173
VWidth: 2047
Flags: HW
HStem: -2 57<25 184> 0 80<388.5 974> 669 70<373 730> 888 20<793 838> 1242 80<398 904.8> 1267 57<27 203.4> 1429 235<408 582>
VStem: 208 165<93 669 739 1238.7> 376 498<1622 1622> 778 59.8224<837.474 910.756> 957 55<1030.42 1145.78>
Fore
582 1429 m 1
 521 1504 450 1566 376 1622 c 1
 408 1664 l 1
 488 1629 558 1589 626 1538 c 1
 701 1593 767 1630 845 1664 c 1
 874 1622 l 1
 798 1564 732 1498 670 1429 c 1
 582 1429 l 1
983 1322 m 1
 1012 1036 l 1
 957 1030 l 1
 942 1118 873 1242 767 1242 c 2
 447 1242 l 2
 398 1242 373 1224 373 1175 c 2
 373 739 l 1
 661 739 l 2
 733 739 750.922 773.018 764 830 c 2
 778 891 l 2
 779 900 785 908 793 908 c 2
 838 908 l 2
 843 908 845 904 845 899 c 0
 838.5 848.5 829 773 829 704 c 0
 829 634 839.5 543 845 508 c 1
 840 501 l 1
 793 501 l 2
 782 501 777 509 776 516 c 2
 764 579 l 2
 752.77 637.957 730 669 661 669 c 2
 373 669 l 1
 373 147 l 2
 373 93 402 80 447 80 c 2
 840 80 l 2
 974 80 1032 189 1064 337 c 1
 1118 328 l 1
 1066 0 l 1
 449 0 l 1
 290 2 l 1
 25 -2 l 1
 25 41 l 2
 25 48 28 55 41 55 c 2
 102 55 l 2
 184 55 208 90 208 147 c 2
 208 1175 l 2
 208 1239 180 1267 102 1267 c 2
 41 1267 l 2
 27 1267 25 1276 25 1281 c 2
 25 1324 l 1
 291 1320 l 1
 450 1322 l 1
 983 1322 l 1
-35 -170 m 1
 1235 -170 l 1
 1220 -250 l 1
 -50 -250 l 1
 -35 -170 l 1
EndSplineSet
EndChar
StartChar: ecaron
Encoding: 283 283 48
Width: 897
VWidth: 2047
Flags: HW
HStem: -22 101<304.5 652.024> 488 80<234 658> 836 70<406.165 566.8> 1040 293<235 400>
VStem: 70 155<164.313 499.912> 193 518<1306 1306> 658 163<488 758.4>
Fore
400 1040 m 1
 341 1136 264 1229 193 1306 c 1
 235 1333 l 1
 315 1274 381 1222 451 1148 c 1
 527 1226 596 1278 672 1333 c 1
 711 1306 l 1
 640 1225 562 1134 502 1040 c 1
 400 1040 l 1
234 568 m 1
 658 568 l 1
 658 794 544 836 468 836 c 0
 421.2 836 267.769 817.892 234 568 c 1
779 190 m 1
 813 169 l 1
 736 60 634 -22 486 -22 c 0
 186 -22 70 189 70 429 c 0
 70 739.699 275.023 906 470 906 c 0
 752 906 821 696 821 488 c 1
 227 488 l 1
 225.5 476.75 225 463 225 446 c 0
 225 229.318 351 79 506 79 c 0
 618.326 79 708 112 779 190 c 1
-35 -170 m 1
 964 -170 l 1
 949 -250 l 1
 -50 -250 l 1
 -35 -170 l 1
EndSplineSet
EndChar
StartChar: Gcircumflex
Encoding: 284 284 49
Width: 1411
VWidth: 2047
Flags: HW
HStem: -26 73<328.1 945.6> 554 70<922.492 1095.3 1287 1377.11> 1272 70<376.2 900.1> 1414 235<784 958>
VStem: 61 178<318 1135.7> 492 498<1456 1456> 1102 165<201.335 538.1>
Fore
784 1649 m 1
 845 1574 916 1512 990 1456 c 1
 958 1414 l 1
 878 1449 808 1489 740 1540 c 1
 665 1485 599 1448 521 1414 c 1
 492 1456 l 1
 568 1514 633 1580 696 1649 c 1
 784 1649 l 1
1102 464 m 2
 1102 527 1071 554 990 554 c 2
 936 554 l 2
 927 554 919 560 919 571 c 2
 919 624 l 1
 923 628 l 1
 923 628 1101 624 1181 624 c 0
 1254 624 1372 628 1372 628 c 1
 1376 624 l 1
 1376 571 l 2
 1376 560 1370 554 1360 554 c 2
 1358 554 l 2
 1287 554 1267 521 1267 464 c 2
 1267 227 l 2
 1267 203.5 1279 187.5 1300 168 c 1
 1161 51 996 -26 754 -26 c 0
 342 -26 61 274 61 629 c 0
 61 1080 417 1342 768 1342 c 0
 980 1342 1091 1260 1124 1260 c 0
 1136 1260 1143 1272 1143 1285 c 0
 1143 1290 1141 1326 1141 1326 c 1
 1203 1334 l 1
 1256 933 l 1
 1193 926 l 1
 1174 1032 1129.92 1105.9 1050 1172 c 0
 967.914 1239.9 862 1272 735 1272 c 0
 459 1272 239 1028 239 669 c 0
 239 399 437 47 800 47 c 0
 912 47 1032 84 1102 150 c 1
 1102 464 l 2
-35 -170 m 1
 1467 -170 l 1
 1452 -250 l 1
 -50 -250 l 1
 -35 -170 l 1
EndSplineSet
EndChar
StartChar: gcircumflex
Encoding: 285 285 50
Width: 993
VWidth: 2047
Flags: HW
HStem: -481 76<350 668.5> -15 117<292.9 447.125> -9 125<428.593 619.4> 279 61<358.008 564.6> 844 57<304.6 604.9> 856 83<798 868> 1028 293<505 670>
VStem: 67 120<-397.9 -125.6> 122 145<472.6 819.7> 140 101<97.3 252> 193 519<1055 1055> 648 149<326.3 712.4> 839 98<-381.4 -120.1>
Fore
505 1321 m 1
 564 1225 639 1137 712 1055 c 1
 670 1028 l 1
 590 1087 521 1138 452 1212 c 1
 376 1134 309 1083 233 1028 c 1
 193 1055 l 1
 265 1136 343 1227 403 1321 c 1
 505 1321 l 1
648 578 m 0
 648 747 568 844 445 844 c 0
 337 844 267 772 267 613 c 0
 267 505 307 340 471 340 c 0
 543 340 648 373 648 578 c 0
265 -5 m 1
 201 -63 187 -129 187 -199 c 0
 187 -352 371 -405 441 -405 c 0
 616 -405 839 -337 839 -189 c 0
 839 -136 812 -99 732 -59 c 0
 673.533 -29.7666 590 -9 492 -9 c 0
 474.591 -9 452 -10.001 424 -11.7354 c 0
 394.896 -13.5381 364.297 -15 341 -15 c 0
 310 -15 293 -11 265 -5 c 1
886 801 m 0
 848.5 801 837.438 818 829 833 c 0
 822.189 845.108 816.052 856 798 856 c 0
 775 856 728 825 713 805 c 1
 771 743 797 683 797 585 c 0
 797 386 633 279 461 279 c 0
 385 279 324 293 277 321 c 1
 253 286 241 254 241 213 c 0
 241 124 310 102 367 102 c 0
 377.389 102 401.88 103.703 431 106.919 c 0
 477 111.999 529.375 116 563 116 c 0
 634 116 771 103 851 32 c 0
 908 -19 937 -69 937 -136 c 0
 937 -357 648 -481 383 -481 c 0
 234 -481 67 -418 67 -240 c 0
 67 -152 123 -56 227 11 c 1
 177 37 140 87 140 161 c 0
 140 231 171 309 226 359 c 1
 170 413 122 482 122 594 c 0
 122 782 288 901 462 901 c 0
 578 901 650 859 672 842 c 1
 723 911 821 939 868 939 c 0
 916 939 949 907 949 868 c 0
 949 828 922 801 886 801 c 0
EndSplineSet
EndChar
StartChar: Gbreve
Encoding: 286 286 51
Width: 1411
VWidth: 2047
Flags: HW
HStem: -26 73<328.1 945.6> 554 70<922.492 1095.3 1287 1377.11> 1272 70<376.2 900.1> 1419 107<616.3 888> 1631 20<479 536 978 1033>
VStem: 61 178<318 1135.7> 479 554<1553.82 1651 1651 1651> 1102 165<201.335 538.1>
Fore
1033 1651 m 1
 1021 1505 892 1419 758 1419 c 0
 607 1419 490 1508 479 1651 c 1
 536 1651 l 1
 553 1571 649 1526 758 1526 c 0
 858 1526 964 1571 978 1651 c 1
 1033 1651 l 1
1102 464 m 2
 1102 527 1071 554 990 554 c 2
 936 554 l 2
 927 554 919 560 919 571 c 2
 919 624 l 1
 923 628 l 1
 923 628 1101 624 1181 624 c 0
 1254 624 1372 628 1372 628 c 1
 1376 624 l 1
 1376 571 l 2
 1376 560 1370 554 1360 554 c 2
 1358 554 l 2
 1287 554 1267 521 1267 464 c 2
 1267 227 l 2
 1267 203.5 1279 187.5 1300 168 c 1
 1161 51 996 -26 754 -26 c 0
 342 -26 61 274 61 629 c 0
 61 1080 417 1342 768 1342 c 0
 980 1342 1091 1260 1124 1260 c 0
 1136 1260 1143 1272 1143 1285 c 0
 1143 1290 1141 1326 1141 1326 c 1
 1203 1334 l 1
 1256 933 l 1
 1193 926 l 1
 1174 1032 1129.92 1105.9 1050 1172 c 0
 967.914 1239.9 862 1272 735 1272 c 0
 459 1272 239 1028 239 669 c 0
 239 399 437 47 800 47 c 0
 912 47 1032 84 1102 150 c 1
 1102 464 l 2
-35 -170 m 1
 1467 -170 l 1
 1452 -250 l 1
 -50 -250 l 1
 -35 -170 l 1
EndSplineSet
EndChar
StartChar: gbreve
Encoding: 287 287 52
Width: 993
VWidth: 2047
Flags: HW
HStem: -481 76<350 668.5> -15 117<292.9 447.125> -9 125<428.593 619.4> 279 61<358.008 564.6> 844 57<304.6 604.9> 856 83<798 868> 1019 117<302.8 586.2>
VStem: 67 120<-397.9 -125.6> 122 145<472.6 819.7> 140 101<97.3 252> 186 55<1182.33 1318.71> 648 149<326.3 712.4> 685 54<1185.09 1324> 839 98<-381.4 -120.1>
Fore
241 1324 m 1
 245 1219 340 1136 464 1136 c 0
 558 1136 680 1197 685 1324 c 1
 739 1296 l 1
 719 1090 566 1019 464 1019 c 0
 305 1019 201 1137 186 1296 c 1
 241 1324 l 1
648 578 m 0
 648 747 568 844 445 844 c 0
 337 844 267 772 267 613 c 0
 267 505 307 340 471 340 c 0
 543 340 648 373 648 578 c 0
265 -5 m 1
 201 -63 187 -129 187 -199 c 0
 187 -352 371 -405 441 -405 c 0
 616 -405 839 -337 839 -189 c 0
 839 -136 812 -99 732 -59 c 0
 673.533 -29.7666 590 -9 492 -9 c 0
 474.591 -9 452 -10.001 424 -11.7354 c 0
 394.896 -13.5381 364.297 -15 341 -15 c 0
 310 -15 293 -11 265 -5 c 1
886 801 m 0
 848.5 801 837.438 818 829 833 c 0
 822.189 845.108 816.052 856 798 856 c 0
 775 856 728 825 713 805 c 1
 771 743 797 683 797 585 c 0
 797 386 633 279 461 279 c 0
 385 279 324 293 277 321 c 1
 253 286 241 254 241 213 c 0
 241 124 310 102 367 102 c 0
 377.389 102 401.88 103.703 431 106.919 c 0
 477 111.999 529.375 116 563 116 c 0
 634 116 771 103 851 32 c 0
 908 -19 937 -69 937 -136 c 0
 937 -357 648 -481 383 -481 c 0
 234 -481 67 -418 67 -240 c 0
 67 -152 123 -56 227 11 c 1
 177 37 140 87 140 161 c 0
 140 231 171 309 226 359 c 1
 170 413 122 482 122 594 c 0
 122 782 288 901 462 901 c 0
 578 901 650 859 672 842 c 1
 723 911 821 939 868 939 c 0
 916 939 949 907 949 868 c 0
 949 828 922 801 886 801 c 0
EndSplineSet
EndChar
StartChar: Gdotaccent
Encoding: 288 288 53
Width: 1411
VWidth: 2047
Flags: HW
HStem: -26 73<328.1 945.6> 554 70<922.492 1095.3 1287 1377.11> 1272 70<376.2 900.1> 1445 196<693.8 834.2>
VStem: 61 178<318 1135.7> 666 196<1472.8 1613.2> 1102 165<201.335 538.1>
Fore
666 1543 m 0
 666 1597 710 1641 764 1641 c 0
 818 1641 862 1597 862 1543 c 0
 862 1489 818 1445 764 1445 c 0
 710 1445 666 1489 666 1543 c 0
1102 464 m 2
 1102 527 1071 554 990 554 c 2
 936 554 l 2
 927 554 919 560 919 571 c 2
 919 624 l 1
 923 628 l 1
 923 628 1101 624 1181 624 c 0
 1254 624 1372 628 1372 628 c 1
 1376 624 l 1
 1376 571 l 2
 1376 560 1370 554 1360 554 c 2
 1358 554 l 2
 1287 554 1267 521 1267 464 c 2
 1267 227 l 2
 1267 203.5 1279 187.5 1300 168 c 1
 1161 51 996 -26 754 -26 c 0
 342 -26 61 274 61 629 c 0
 61 1080 417 1342 768 1342 c 0
 980 1342 1091 1260 1124 1260 c 0
 1136 1260 1143 1272 1143 1285 c 0
 1143 1290 1141 1326 1141 1326 c 1
 1203 1334 l 1
 1256 933 l 1
 1193 926 l 1
 1174 1032 1129.92 1105.9 1050 1172 c 0
 967.914 1239.9 862 1272 735 1272 c 0
 459 1272 239 1028 239 669 c 0
 239 399 437 47 800 47 c 0
 912 47 1032 84 1102 150 c 1
 1102 464 l 2
-35 -170 m 1
 1467 -170 l 1
 1452 -250 l 1
 -50 -250 l 1
 -35 -170 l 1
EndSplineSet
EndChar
StartChar: gdotaccent
Encoding: 289 289 54
Width: 993
VWidth: 2047
Flags: HW
HStem: -481 76<350 668.5> -15 117<292.9 447.125> -9 125<428.593 619.4> 279 61<358.008 564.6> 844 57<304.6 604.9> 856 83<798 868> 1028 196<388.8 529.2>
VStem: 67 120<-397.9 -125.6> 122 145<472.6 819.7> 140 101<97.3 252> 361 196<1055.8 1196.2> 648 149<326.3 712.4> 839 98<-381.4 -120.1>
Fore
361 1126 m 0
 361 1180 405 1224 459 1224 c 0
 513 1224 557 1180 557 1126 c 0
 557 1072 513 1028 459 1028 c 0
 405 1028 361 1072 361 1126 c 0
648 578 m 0
 648 747 568 844 445 844 c 0
 337 844 267 772 267 613 c 0
 267 505 307 340 471 340 c 0
 543 340 648 373 648 578 c 0
265 -5 m 1
 201 -63 187 -129 187 -199 c 0
 187 -352 371 -405 441 -405 c 0
 616 -405 839 -337 839 -189 c 0
 839 -136 812 -99 732 -59 c 0
 673.533 -29.7666 590 -9 492 -9 c 0
 474.591 -9 452 -10.001 424 -11.7354 c 0
 394.896 -13.5381 364.297 -15 341 -15 c 0
 310 -15 293 -11 265 -5 c 1
886 801 m 0
 848.5 801 837.438 818 829 833 c 0
 822.189 845.108 816.052 856 798 856 c 0
 775 856 728 825 713 805 c 1
 771 743 797 683 797 585 c 0
 797 386 633 279 461 279 c 0
 385 279 324 293 277 321 c 1
 253 286 241 254 241 213 c 0
 241 124 310 102 367 102 c 0
 377.389 102 401.88 103.703 431 106.919 c 0
 477 111.999 529.375 116 563 116 c 0
 634 116 771 103 851 32 c 0
 908 -19 937 -69 937 -136 c 0
 937 -357 648 -481 383 -481 c 0
 234 -481 67 -418 67 -240 c 0
 67 -152 123 -56 227 11 c 1
 177 37 140 87 140 161 c 0
 140 231 171 309 226 359 c 1
 170 413 122 482 122 594 c 0
 122 782 288 901 462 901 c 0
 578 901 650 859 672 842 c 1
 723 911 821 939 868 939 c 0
 916 939 949 907 949 868 c 0
 949 828 922 801 886 801 c 0
EndSplineSet
EndChar
StartChar: Gcommaaccent
Encoding: 290 290 55
Width: 1411
VWidth: 2047
Flags: HW
HStem: -274 167<644.1 778.289> -26 73<328.1 945.6> 554 70<922.492 1095.3 1287 1377.11> 1272 70<376.2 900.1>
VStem: 61 178<318 1135.7> 800 66<-319.467 -250.366> 1102 165<201.335 538.1>
Fore
739 -107 m 0
 818 -107 866 -183 866 -256 c 0
 866 -309 831 -464 646 -472 c 1
 638 -438 l 1
 794 -407 800 -287 800 -276 c 0
 800 -268 799 -262 797 -256 c 1
 773 -268 753 -274 737 -274 c 0
 654 -274 634 -223 634 -189 c 0
 634 -156 666 -107 739 -107 c 0
1102 464 m 2
 1102 527 1071 554 990 554 c 2
 936 554 l 2
 927 554 919 560 919 571 c 2
 919 624 l 1
 923 628 l 1
 923 628 1101 624 1181 624 c 0
 1254 624 1372 628 1372 628 c 1
 1376 624 l 1
 1376 571 l 2
 1376 560 1370 554 1360 554 c 2
 1358 554 l 2
 1287 554 1267 521 1267 464 c 2
 1267 227 l 2
 1267 203.5 1279 187.5 1300 168 c 1
 1161 51 996 -26 754 -26 c 0
 342 -26 61 274 61 629 c 0
 61 1080 417 1342 768 1342 c 0
 980 1342 1091 1260 1124 1260 c 0
 1136 1260 1143 1272 1143 1285 c 0
 1143 1290 1141 1326 1141 1326 c 1
 1203 1334 l 1
 1256 933 l 1
 1193 926 l 1
 1174 1032 1129.92 1105.9 1050 1172 c 0
 967.914 1239.9 862 1272 735 1272 c 0
 459 1272 239 1028 239 669 c 0
 239 399 437 47 800 47 c 0
 912 47 1032 84 1102 150 c 1
 1102 464 l 2
1005 -170 m 1
 1472 -170 l 1
 1457 -250 l 1
 990 -250 l 1
 1005 -170 l 1
-35 -170 m 1
 495 -170 l 1
 480 -250 l 1
 -50 -250 l 1
 -35 -170 l 1
EndSplineSet
EndChar
StartChar: gcommaaccent
Encoding: 291 291 56
Width: 993
VWidth: 2047
Flags: HW
HStem: -481 76<350 668.5> -15 117<292.9 447.125> -9 125<428.593 619.4> 279 61<358.008 564.6> 844 57<304.6 604.9> 856 83<798 868> 1048 167<418.711 552.9>
VStem: 67 120<-397.9 -125.6> 122 145<472.6 819.7> 140 101<97.3 252> 331 66<1191.37 1262.34> 648 149<326.3 712.4> 839 98<-381.4 -120.1>
Fore
458 1048 m 0
 379 1048 331 1124 331 1197 c 0
 331 1250 366 1405 551 1414 c 1
 559 1379 l 1
 401 1348 397 1225 397 1217 c 0
 397 1209 398 1203 400 1197 c 1
 424 1209 444 1215 460 1215 c 0
 543 1215 563 1164 563 1130 c 0
 563 1097 531 1048 458 1048 c 0
648 578 m 0
 648 747 568 844 445 844 c 0
 337 844 267 772 267 613 c 0
 267 505 307 340 471 340 c 0
 543 340 648 373 648 578 c 0
265 -5 m 1
 201 -63 187 -129 187 -199 c 0
 187 -352 371 -405 441 -405 c 0
 616 -405 839 -337 839 -189 c 0
 839 -136 812 -99 732 -59 c 0
 673.533 -29.7666 590 -9 492 -9 c 0
 474.591 -9 452 -10.001 424 -11.7354 c 0
 394.896 -13.5381 364.297 -15 341 -15 c 0
 310 -15 293 -11 265 -5 c 1
886 801 m 0
 848.5 801 837.438 818 829 833 c 0
 822.189 845.108 816.052 856 798 856 c 0
 775 856 728 825 713 805 c 1
 771 743 797 683 797 585 c 0
 797 386 633 279 461 279 c 0
 385 279 324 293 277 321 c 1
 253 286 241 254 241 213 c 0
 241 124 310 102 367 102 c 0
 377.389 102 401.88 103.703 431 106.919 c 0
 477 111.999 529.375 116 563 116 c 0
 634 116 771 103 851 32 c 0
 908 -19 937 -69 937 -136 c 0
 937 -357 648 -481 383 -481 c 0
 234 -481 67 -418 67 -240 c 0
 67 -152 123 -56 227 11 c 1
 177 37 140 87 140 161 c 0
 140 231 171 309 226 359 c 1
 170 413 122 482 122 594 c 0
 122 782 288 901 462 901 c 0
 578 901 650 859 672 842 c 1
 723 911 821 939 868 939 c 0
 916 939 949 907 949 868 c 0
 949 828 922 801 886 801 c 0
EndSplineSet
EndChar
StartChar: Hcircumflex
Encoding: 292 292 57
Width: 1435
VWidth: 2047
Flags: HW
HStem: 2 55<34.8876 190 389.7 562.508 868.888 1024 1223.7 1396.51> 664 80<383 1052> 1265 55<38.4916 211.3 411 566.112 872.492 1045.3 1245 1400.11> 1429 235<754 928>
VStem: 218 165<90 664 744 1249.1> 462 498<1471 1471> 1052 165<72.9 664 744 1232>
Fore
754 1664 m 1
 815 1589 886 1527 960 1471 c 1
 928 1429 l 1
 848 1464 778 1504 710 1555 c 1
 635 1500 569 1463 491 1429 c 1
 462 1471 l 1
 538 1529 603 1595 666 1664 c 1
 754 1664 l 1
1052 147 m 2
 1052 664 l 1
 383 664 l 1
 383 147 l 2
 383 84 414 57 495 57 c 2
 549 57 l 2
 558 57 566 51 566 40 c 2
 566 2 l 1
 562 -2 l 1
 562 -2 384 2 304 2 c 0
 231 2 40 -2 40 -2 c 1
 36 2 l 1
 36 40 l 2
 36 51 42 57 52 57 c 2
 106 57 l 2
 190 57 218 90 218 147 c 2
 218 1175 l 2
 218 1238 187 1265 106 1265 c 2
 52 1265 l 2
 43 1265 35 1271 35 1282 c 2
 35 1320 l 1
 39 1324 l 1
 39 1324 217 1320 297 1320 c 0
 370 1320 561 1324 561 1324 c 1
 565 1320 l 1
 565 1282 l 2
 565 1271 559 1265 549 1265 c 2
 495 1265 l 2
 411 1265 383 1232 383 1175 c 2
 383 744 l 1
 1052 744 l 1
 1052 1175 l 2
 1052 1238 1021 1265 940 1265 c 2
 886 1265 l 2
 877 1265 869 1271 869 1282 c 2
 869 1320 l 1
 873 1324 l 1
 873 1324 1051 1320 1131 1320 c 0
 1204 1320 1395 1324 1395 1324 c 1
 1399 1320 l 1
 1399 1282 l 2
 1399 1271 1393 1265 1383 1265 c 2
 1329 1265 l 2
 1245 1265 1217 1232 1217 1175 c 2
 1217 147 l 2
 1217 84 1248 57 1329 57 c 2
 1383 57 l 2
 1392 57 1400 51 1400 40 c 2
 1400 2 l 1
 1396 -2 l 1
 1396 -2 1218 2 1138 2 c 0
 1065 2 874 -2 874 -2 c 1
 870 2 l 1
 870 40 l 2
 870 51 876 57 886 57 c 2
 940 57 l 2
 1024 57 1052 90 1052 147 c 2
-35 -170 m 1
 1499 -170 l 1
 1484 -250 l 1
 -50 -250 l 1
 -35 -170 l 1
EndSplineSet
EndChar
StartChar: hcircumflex
Encoding: 293 293 58
Width: 1061
VWidth: 2047
Flags: HW
HStem: 2 55<36.8876 162 334.9 474.508 594.888 720 892.9 1032.51> 805 96<567 703.5> 1409 20<289 334> 1469 235<586 760>
VStem: 181 153<88 655 732 1280> 294 498<1511 1511> 739 153<71.6 728>
Fore
586 1704 m 1
 647 1629 718 1567 792 1511 c 1
 760 1469 l 1
 680 1504 610 1544 542 1595 c 1
 467 1540 401 1503 323 1469 c 1
 294 1511 l 1
 370 1569 435 1635 498 1704 c 1
 586 1704 l 1
739 147 m 2
 739 562 l 2
 739 728 675 805 580 805 c 0
 521 805 432 752 334 655 c 1
 334 147 l 2
 334 88 355 57 422 57 c 2
 461 57 l 2
 470 57 478 51 478 40 c 2
 478 2 l 1
 474 -2 l 1
 474 -2 334 2 254 2 c 0
 181 2 42 -2 42 -2 c 1
 38 2 l 1
 38 40 l 2
 38 51 44 57 54 57 c 2
 93 57 l 2
 162 57 181 89 181 147 c 2
 181 1184 l 2
 181 1280 161 1322 120 1322 c 2
 54 1315 l 2
 47.5723 1314.32 43.4209 1319.53 43 1325 c 2
 39 1377 l 1
 71 1377 146 1388 181 1395 c 0
 218 1402 248 1411 289 1429 c 1
 334 1429 l 1
 334 732 l 1
 471 869 591 901 671 901 c 0
 819 901 892 788 892 577 c 2
 892 147 l 2
 892 89 913 57 980 57 c 2
 1019 57 l 2
 1028 57 1036 51 1036 40 c 2
 1036 2 l 1
 1032 -2 l 1
 1032 -2 892 2 812 2 c 0
 739 2 600 -2 600 -2 c 1
 596 2 l 1
 596 40 l 2
 596 51 602 57 612 57 c 2
 651 57 l 2
 720 57 739 89 739 147 c 2
-35 -170 m 1
 1107 -170 l 1
 1092 -250 l 1
 -50 -250 l 1
 -35 -170 l 1
EndSplineSet
EndChar
StartChar: Hbar
Encoding: 294 294 59
Width: 1435
VWidth: 2047
Flags: HW
HStem: 2 55<34.8876 190 389.7 562.508 868.888 1024 1223.7 1396.51> 664 80<383 1052> 1044 80<83 1343> 1265 55<38.4916 211.3 411 566.112 872.492 1045.3 1245 1400.11>
VStem: 218 165<90 664 744 1249.1> 1052 165<72.9 664 744 1232>
Fore
1052 147 m 2
 1052 664 l 1
 383 664 l 1
 383 147 l 2
 383 84 414 57 495 57 c 2
 549 57 l 2
 558 57 566 51 566 40 c 2
 566 2 l 1
 562 -2 l 1
 562 -2 384 2 304 2 c 0
 231 2 40 -2 40 -2 c 1
 36 2 l 1
 36 40 l 2
 36 51 42 57 52 57 c 2
 106 57 l 2
 190 57 218 90 218 147 c 2
 218 1044 l 1
 83 1044 l 1
 83 1124 l 1
 218 1124 l 1
 218 1175 l 2
 218 1238 187 1265 106 1265 c 2
 52 1265 l 2
 43 1265 35 1271 35 1282 c 2
 35 1320 l 1
 39 1324 l 1
 39 1324 217 1320 297 1320 c 0
 370 1320 561 1324 561 1324 c 1
 565 1320 l 1
 565 1282 l 2
 565 1271 559 1265 549 1265 c 2
 495 1265 l 2
 411 1265 383 1232 383 1175 c 2
 383 1124 l 1
 1052 1124 l 1
 1052 1175 l 2
 1052 1238 1021 1265 940 1265 c 2
 886 1265 l 2
 877 1265 869 1271 869 1282 c 2
 869 1320 l 1
 873 1324 l 1
 873 1324 1051 1320 1131 1320 c 0
 1204 1320 1395 1324 1395 1324 c 1
 1399 1320 l 1
 1399 1282 l 2
 1399 1271 1393 1265 1383 1265 c 2
 1329 1265 l 2
 1245 1265 1217 1232 1217 1175 c 2
 1217 1124 l 1
 1343 1124 l 1
 1343 1044 l 1
 1217 1044 l 1
 1217 147 l 2
 1217 84 1248 57 1329 57 c 2
 1383 57 l 2
 1392 57 1400 51 1400 40 c 2
 1400 2 l 1
 1396 -2 l 1
 1396 -2 1218 2 1138 2 c 0
 1065 2 874 -2 874 -2 c 1
 870 2 l 1
 870 40 l 2
 870 51 876 57 886 57 c 2
 940 57 l 2
 1024 57 1052 90 1052 147 c 2
-35 -170 m 1
 1499 -170 l 1
 1484 -250 l 1
 -50 -250 l 1
 -35 -170 l 1
1052 1044 m 1
 383 1044 l 1
 383 744 l 1
 1052 744 l 1
 1052 1044 l 1
EndSplineSet
EndChar
StartChar: hbar
Encoding: 295 295 60
Width: 1067
VWidth: 2047
Flags: HW
HStem: 2 55<36.8876 162 334.9 474.508 594.888 720 892.9 1032.51> 805 96<567 703.5> 1085 81<81 726> 1409 20<289 334>
VStem: 181 153<88 655 732 1280> 739 153<71.6 728>
Fore
739 147 m 2
 739 562 l 2
 739 728 675 805 580 805 c 0
 521 805 432 752 334 655 c 1
 334 147 l 2
 334 88 355 57 422 57 c 2
 461 57 l 2
 470 57 478 51 478 40 c 2
 478 2 l 1
 474 -2 l 1
 474 -2 334 2 254 2 c 0
 181 2 42 -2 42 -2 c 1
 38 2 l 1
 38 40 l 2
 38 51 44 57 54 57 c 2
 93 57 l 2
 162 57 181 89 181 147 c 2
 181 1085 l 1
 81 1085 l 1
 81 1166 l 1
 181 1166 l 1
 181 1184 l 2
 181 1280 161 1322 120 1322 c 2
 54 1315 l 2
 47.5723 1314.32 43.4209 1319.53 43 1325 c 2
 39 1377 l 1
 71 1377 146 1388 181 1395 c 0
 218 1402 248 1411 289 1429 c 1
 334 1429 l 1
 334 1166 l 1
 726 1166 l 1
 726 1085 l 1
 334 1085 l 1
 334 732 l 1
 471 869 591 901 671 901 c 0
 819 901 892 788 892 577 c 2
 892 147 l 2
 892 89 913 57 980 57 c 2
 1019 57 l 2
 1028 57 1036 51 1036 40 c 2
 1036 2 l 1
 1032 -2 l 1
 1032 -2 892 2 812 2 c 0
 739 2 600 -2 600 -2 c 1
 596 2 l 1
 596 40 l 2
 596 51 602 57 612 57 c 2
 651 57 l 2
 720 57 739 89 739 147 c 2
-35 -170 m 1
 1107 -170 l 1
 1092 -250 l 1
 -50 -250 l 1
 -35 -170 l 1
EndSplineSet
EndChar
StartChar: Itilde
Encoding: 296 296 61
Width: 601
VWidth: 2047
Flags: HW
HStem: 2 54<34.8876 190 389.7 562.508> 1266 53<38.4916 211.3 411 566.112> 1426 90<386.3 494.2> 1525 94<99.1 214.8>
VStem: 20 568<1437 1611> 218 165<89 1250.1>
Fore
437 1516 m 0
 481 1516 510 1538 539 1624 c 1
 588 1611 l 1
 563 1488 505 1426 410 1426 c 0
 365 1426 322.215 1452.34 280 1479 c 0
 242 1503 204 1525 168 1525 c 0
 115 1525 88 1495 68 1427 c 1
 20 1437 l 1
 48 1558 94 1619 182 1619 c 0
 245 1619 290 1590 330 1562 c 0
 364.094 1538.13 398 1516 437 1516 c 0
383 1176 m 2
 383 146 l 2
 383 83 414 56 495 56 c 2
 549 56 l 2
 558 56 566 50 566 39 c 2
 566 1 l 1
 562 -3 l 1
 562 -3 384 2 304 2 c 0
 231 2 40 -3 40 -3 c 1
 36 1 l 1
 36 39 l 2
 36 50 42 56 52 56 c 2
 106 56 l 2
 190 56 218 89 218 146 c 2
 218 1176 l 2
 218 1239 187 1266 106 1266 c 2
 52 1266 l 2
 43 1266 35 1272 35 1283 c 2
 35 1321 l 1
 39 1325 l 1
 39 1325 217 1319 297 1319 c 0
 370 1319 561 1325 561 1325 c 1
 565 1321 l 1
 565 1283 l 2
 565 1272 559 1266 549 1266 c 2
 495 1266 l 2
 411 1266 383 1233 383 1176 c 2
-35 -170 m 1
 663 -170 l 1
 648 -250 l 1
 -50 -250 l 1
 -35 -170 l 1
EndSplineSet
EndChar
StartChar: itilde
Encoding: 297 297 62
Width: 514
VWidth: 2047
Flags: HW
HStem: 2 55<57.8876 183 355.9 495.508> 889 20<324 355> 1035 90<335.57 432.68> 1134 94<77.09 181.22>
VStem: 5.9 511.2<1046 1220> 202 153<71.6 772>
Fore
381.2 1125 m 0
 420.8 1125 446.9 1147 473 1233 c 1
 517.1 1220 l 1
 494.6 1097 442.4 1035 356.9 1035 c 0
 316.4 1035 277.924 1061.32 239.9 1088 c 0
 205.7 1112 171.5 1134 139.1 1134 c 0
 91.4004 1134 67.0996 1104 49.0996 1036 c 1
 5.90039 1046 l 1
 31.0996 1167 72.5 1228 151.7 1228 c 0
 208.4 1228 248.9 1199 284.9 1171 c 0
 315.597 1147.12 346.1 1125 381.2 1125 c 0
355 147 m 2
 355 89 376 57 443 57 c 2
 482 57 l 2
 491 57 499 51 499 40 c 2
 499 2 l 1
 495 -2 l 1
 495 -2 355 2 275 2 c 0
 202 2 63 -2 63 -2 c 1
 59 2 l 1
 59 40 l 2
 59 51 65 57 75 57 c 2
 114 57 l 2
 183 57 202 89 202 147 c 2
 202 695 l 2
 202 772 184 787 156 787 c 0
 129 787 105 784 70 777 c 1
 60 833 l 1
 190.099 854.683 214.5 864.5 273 892.127 c 0
 294.415 902.24 309.235 909 324 909 c 2
 355 909 l 1
 355 147 l 2
-35 -170 m 1
 595 -170 l 1
 580 -250 l 1
 -50 -250 l 1
 -35 -170 l 1
EndSplineSet
EndChar
StartChar: Imacron
Encoding: 298 298 63
Width: 601
VWidth: 2047
Flags: HW
HStem: 2 54<34.8876 190 389.7 562.508> 1266 53<38.4916 211.3 411 566.112> 1478 90<39 577.8>
VStem: 218 165<89 1250.1>
Fore
544 1478 m 2
 43 1478 l 2
 25 1478 18 1494 18 1508 c 0
 18 1532 39 1568 63 1568 c 2
 564 1568 l 2
 584 1568 592 1552 592 1538 c 0
 592 1514 570 1478 544 1478 c 2
383 1176 m 2
 383 146 l 2
 383 83 414 56 495 56 c 2
 549 56 l 2
 558 56 566 50 566 39 c 2
 566 1 l 1
 562 -3 l 1
 562 -3 384 2 304 2 c 0
 231 2 40 -3 40 -3 c 1
 36 1 l 1
 36 39 l 2
 36 50 42 56 52 56 c 2
 106 56 l 2
 190 56 218 89 218 146 c 2
 218 1176 l 2
 218 1239 187 1266 106 1266 c 2
 52 1266 l 2
 43 1266 35 1272 35 1283 c 2
 35 1321 l 1
 39 1325 l 1
 39 1325 217 1319 297 1319 c 0
 370 1319 561 1325 561 1325 c 1
 565 1321 l 1
 565 1283 l 2
 565 1272 559 1266 549 1266 c 2
 495 1266 l 2
 411 1266 383 1233 383 1176 c 2
-35 -170 m 1
 663 -170 l 1
 648 -250 l 1
 -50 -250 l 1
 -35 -170 l 1
EndSplineSet
EndChar
StartChar: imacron
Encoding: 299 299 64
Width: 514
VWidth: 2047
Flags: HW
HStem: 2 55<57.8876 183 355.9 495.508> 889 20<324 355> 1089 90<15.7 500.62>
VStem: 202 153<71.6 772>
Fore
470.2 1089 m 2
 19.2998 1089 l 2
 3.09961 1089 -3.2002 1105 -3.2002 1119 c 0
 -3.2002 1143 15.7002 1179 37.2998 1179 c 2
 488.2 1179 l 2
 506.2 1179 513.4 1163 513.4 1149 c 0
 513.4 1125 493.6 1089 470.2 1089 c 2
355 147 m 2
 355 89 376 57 443 57 c 2
 482 57 l 2
 491 57 499 51 499 40 c 2
 499 2 l 1
 495 -2 l 1
 495 -2 355 2 275 2 c 0
 202 2 63 -2 63 -2 c 1
 59 2 l 1
 59 40 l 2
 59 51 65 57 75 57 c 2
 114 57 l 2
 183 57 202 89 202 147 c 2
 202 695 l 2
 202 772 184 787 156 787 c 0
 129 787 105 784 70 777 c 1
 60 833 l 1
 190.099 854.683 214.5 864.5 273 892.127 c 0
 294.415 902.24 309.235 909 324 909 c 2
 355 909 l 1
 355 147 l 2
-35 -170 m 1
 595 -170 l 1
 580 -250 l 1
 -50 -250 l 1
 -35 -170 l 1
EndSplineSet
EndChar
StartChar: Ibreve
Encoding: 300 300 65
Width: 601
VWidth: 2047
Flags: HW
HStem: 2 54<34.8876 190 389.7 562.508> 1266 53<38.4916 211.3 411 566.112> 1419 107<163.3 435> 1631 20<26 83 525 580>
VStem: 26 554<1553.82 1651 1651 1651> 218 165<89 1250.1>
Fore
580 1651 m 1
 568 1505 439 1419 305 1419 c 0
 154 1419 37 1508 26 1651 c 1
 83 1651 l 1
 100 1571 196 1526 305 1526 c 0
 405 1526 511 1571 525 1651 c 1
 580 1651 l 1
383 1176 m 2
 383 146 l 2
 383 83 414 56 495 56 c 2
 549 56 l 2
 558 56 566 50 566 39 c 2
 566 1 l 1
 562 -3 l 1
 562 -3 384 2 304 2 c 0
 231 2 40 -3 40 -3 c 1
 36 1 l 1
 36 39 l 2
 36 50 42 56 52 56 c 2
 106 56 l 2
 190 56 218 89 218 146 c 2
 218 1176 l 2
 218 1239 187 1266 106 1266 c 2
 52 1266 l 2
 43 1266 35 1272 35 1283 c 2
 35 1321 l 1
 39 1325 l 1
 39 1325 217 1319 297 1319 c 0
 370 1319 561 1325 561 1325 c 1
 565 1321 l 1
 565 1283 l 2
 565 1272 559 1266 549 1266 c 2
 495 1266 l 2
 411 1266 383 1233 383 1176 c 2
-35 -170 m 1
 663 -170 l 1
 648 -250 l 1
 -50 -250 l 1
 -35 -170 l 1
EndSplineSet
EndChar
StartChar: ibreve
Encoding: 301 301 66
Width: 514
VWidth: 2047
Flags: HW
HStem: 2 55<57.8876 183 355.9 495.508> 889 20<324 355> 1029 117<112.82 367.88>
VStem: 7.7 49.5<1192.33 1328.71> 202 153<71.6 772> 456.8 48.6<1195.09 1334>
Fore
57.2002 1334 m 1
 60.7998 1229 146.3 1146 257.9 1146 c 0
 342.5 1146 452.3 1207 456.8 1334 c 1
 505.4 1306 l 1
 487.4 1100 349.7 1029 257.9 1029 c 0
 114.8 1029 21.2002 1147 7.7002 1306 c 1
 57.2002 1334 l 1
355 147 m 2
 355 89 376 57 443 57 c 2
 482 57 l 2
 491 57 499 51 499 40 c 2
 499 2 l 1
 495 -2 l 1
 495 -2 355 2 275 2 c 0
 202 2 63 -2 63 -2 c 1
 59 2 l 1
 59 40 l 2
 59 51 65 57 75 57 c 2
 114 57 l 2
 183 57 202 89 202 147 c 2
 202 695 l 2
 202 772 184 787 156 787 c 0
 129 787 105 784 70 777 c 1
 60 833 l 1
 190.099 854.683 214.5 864.5 273 892.127 c 0
 294.415 902.24 309.235 909 324 909 c 2
 355 909 l 1
 355 147 l 2
-35 -170 m 1
 595 -170 l 1
 580 -250 l 1
 -50 -250 l 1
 -35 -170 l 1
EndSplineSet
EndChar
StartChar: Iogonek
Encoding: 302 302 67
Width: 601
VWidth: 2047
Flags: HW
HStem: -455 64<386.8 532.6> 2 54<34.8876 190 389.7 562.508> 1266 53<38.4916 211.3 411 566.112>
VStem: 218 165<89 1250.1> 241 123<-356.5 -134.2>
Fore
383 1176 m 2
 383 146 l 2
 383 83 414 56 495 56 c 2
 549 56 l 2
 558 56 566 50 566 39 c 2
 566 1 l 1
 562 -3 l 1
 519.198 -1.86388 l 1
 424.512 -69.923 364 -170.503 364 -272 c 0
 364 -337 409 -391 483 -391 c 0
 544 -391 574 -371 622 -331 c 1
 636 -371 l 1
 587 -430 514 -455 452 -455 c 0
 342 -455 241 -391 241 -279 c 0
 241 -159.69 336.42 -73.3315 441.376 -0.0166014 c 1
 392.189 1.05308 338.815 2.00001 304 2 c 0
 231 2 40 -3 40 -3 c 1
 36 1 l 1
 36 39 l 2
 36 50 42 56 52 56 c 2
 106 56 l 2
 190 56 218 89 218 146 c 2
 218 1176 l 2
 218 1239 187 1266 106 1266 c 2
 52 1266 l 2
 43 1266 35 1272 35 1283 c 2
 35 1321 l 1
 39 1325 l 1
 39 1325 217 1319 297 1319 c 0
 370 1319 561 1325 561 1325 c 1
 565 1321 l 1
 565 1283 l 2
 565 1272 559 1266 549 1266 c 2
 495 1266 l 2
 411 1266 383 1233 383 1176 c 2
EndSplineSet
EndChar
StartChar: iogonek
Encoding: 303 303 68
Width: 542
VWidth: 2047
Flags: HW
HStem: -452 64<341.8 487.6> 2 55<57.8876 183 355.9 495.508> 889 20<324 355> 1074 196<186.8 327.2>
VStem: 159 196<1101.8 1242.2> 196 123<-353.5 -131.2> 202 153<71.6 772>
Fore
159 1172 m 0
 159 1226 203 1270 257 1270 c 0
 311 1270 355 1226 355 1172 c 0
 355 1118 311 1074 257 1074 c 0
 203 1074 159 1118 159 1172 c 0
355 147 m 2
 355 89 376 57 443 57 c 2
 482 57 l 2
 491 57 499 51 499 40 c 2
 499 2 l 1
 495 -2 l 1
 470.779 -1.34646 l 1
 378.057 -69.355 319 -168.73 319 -269 c 0
 319 -334 364 -388 438 -388 c 0
 499 -388 529 -368 577 -328 c 1
 591 -368 l 1
 542 -427 469 -452 407 -452 c 0
 297 -452 196 -388 196 -276 c 0
 196 -158.048 289.26 -72.3019 392.796 0.474636 c 1
 352.829 1.29367 308.617 1.99999 275 2 c 0
 202 2 63 -2 63 -2 c 1
 59 2 l 1
 59 40 l 2
 59 51 65 57 75 57 c 2
 114 57 l 2
 183 57 202 89 202 147 c 2
 202 695 l 2
 202 772 184 787 156 787 c 0
 129 787 105 784 70 777 c 1
 60 833 l 1
 190.099 854.683 214.5 864.501 273 892.127 c 0
 294.415 902.24 309.235 909 324 909 c 2
 355 909 l 1
 355 147 l 2
EndSplineSet
EndChar
StartChar: Idotaccent
Encoding: 304 304 69
Width: 601
VWidth: 2047
Flags: HW
HStem: 2 54<34.8876 190 389.7 562.508> 1266 53<38.4916 211.3 411 566.112> 1439 196<229.8 370.2>
VStem: 202 196<1466.8 1607.2> 218 165<89 1250.1>
Fore
202 1537 m 0
 202 1591 246 1635 300 1635 c 0
 354 1635 398 1591 398 1537 c 0
 398 1483 354 1439 300 1439 c 0
 246 1439 202 1483 202 1537 c 0
383 1176 m 2
 383 146 l 2
 383 83 414 56 495 56 c 2
 549 56 l 2
 558 56 566 50 566 39 c 2
 566 1 l 1
 562 -3 l 1
 562 -3 384 2 304 2 c 0
 231 2 40 -3 40 -3 c 1
 36 1 l 1
 36 39 l 2
 36 50 42 56 52 56 c 2
 106 56 l 2
 190 56 218 89 218 146 c 2
 218 1176 l 2
 218 1239 187 1266 106 1266 c 2
 52 1266 l 2
 43 1266 35 1272 35 1283 c 2
 35 1321 l 1
 39 1325 l 1
 39 1325 217 1319 297 1319 c 0
 370 1319 561 1325 561 1325 c 1
 565 1321 l 1
 565 1283 l 2
 565 1272 559 1266 549 1266 c 2
 495 1266 l 2
 411 1266 383 1233 383 1176 c 2
-35 -170 m 1
 663 -170 l 1
 648 -250 l 1
 -50 -250 l 1
 -35 -170 l 1
EndSplineSet
EndChar
StartChar: afii10057
Encoding: 1032 1032 70
Width: 647
VWidth: 2047
Flags: HW
HStem: -406 63<50.9 204> 1266 54<93.4916 286.3 486 621.112>
VStem: 293 165<-133 1233>
Fore
125 -343 m 0
 226 -343 293 -236 293 134 c 2
 293 1176 l 2
 293 1239 262 1266 181 1266 c 2
 107 1266 l 2
 98 1266 90 1272 90 1283 c 2
 90 1321 l 1
 94 1325 l 1
 94 1325 292 1320 372 1320 c 0
 445 1320 616 1325 616 1325 c 1
 620 1321 l 1
 620 1283 l 2
 620 1272 614 1266 604 1266 c 2
 570 1266 l 2
 486 1266 458 1233 458 1176 c 2
 458 179 l 2
 458 -61 424 -195 308 -318 c 0
 254 -371 186 -406 126 -406 c 0
 57 -406 -88 -379 -88 -270 c 0
 -88 -220 -54 -208 -23 -208 c 0
 34 -208 50 -265 56 -289 c 0
 61 -313 68 -343 125 -343 c 0
EndSplineSet
EndChar
StartChar: afii10061
Encoding: 1036 1036 71
Width: 1233
VWidth: 2047
Flags: HW
HStem: -2 59<1078 1209> 2 54<34.8876 190 389.7 562.508> 665 116<367 517.8> 1207 129<950.5 1094> 1266 53<38.4916 211.3 411 566.112> 1430 250<658 913>
VStem: 218 165<89 1250.1> 367 867<665 1241> 628 413<1460 1573>
Fore
913 1680 m 1
 1041 1573 l 1
 746 1454 l 2
 701.714 1436.14 675.5 1430 658 1430 c 0
 639.5 1430 628 1440.5 628 1460 c 0
 628 1474 633.307 1485.08 659 1503 c 2
 913 1680 l 1
1209 -2 m 1
 1061 0 l 2
 949.006 1.51344 857 132 800 219 c 2
 644 488 l 2
 555.358 640.502 489.428 663.093 383 664.875 c 1
 383 146 l 2
 383 83 414 56 495 56 c 2
 549 56 l 2
 558 56 566 50 566 39 c 2
 566 1 l 1
 562 -3 l 1
 562 -3 384 2 304 2 c 0
 231 2 40 -3 40 -3 c 1
 36 1 l 1
 36 39 l 2
 36 50 42 56 52 56 c 2
 106 56 l 2
 190 56 218 89 218 146 c 2
 218 1176 l 2
 218 1239 187 1266 106 1266 c 2
 52 1266 l 2
 43 1266 35 1272 35 1283 c 2
 35 1321 l 1
 39 1325 l 1
 39 1325 217 1319 297 1319 c 0
 370 1319 561 1325 561 1325 c 1
 565 1321 l 1
 565 1283 l 2
 565 1272 559 1266 549 1266 c 2
 495 1266 l 2
 411 1266 383 1233 383 1176 c 2
 383 781.024 l 1
 455.943 781.279 547.752 784.085 598 812 c 0
 713.721 876.837 766.123 1004.99 808.838 1109.67 c 0
 857.544 1229.03 918.503 1336 1094 1336 c 0
 1202 1336 1234 1289 1234 1241 c 0
 1234 1191 1187 1156 1144 1156 c 0
 1117.42 1156 1090.22 1167.62 1064 1181.62 c 0
 1038 1195.5 1010.41 1207 983 1207 c 0
 958 1207 905 1147 884 1090 c 0
 839.815 970.068 770 784 612 734 c 1
 664 734 721.986 682.992 755 625 c 2
 907 358 l 2
 1000.27 194.156 1078 57 1175 57 c 2
 1196 57 l 2
 1205 57 1213 51 1213 40 c 2
 1213 2 l 1
 1209 -2 l 1
-35 -170 m 1
 1285 -170 l 1
 1270 -250 l 1
 -50 -250 l 1
 -35 -170 l 1
EndSplineSet
LCarets2: 1 0 
Ligature2: "'liga' Standard Ligatures in Cyrillic lookup 2" afii10028 acutecomb
EndChar
StartChar: uni040D
Encoding: 1037 1037 72
Width: 1435
VWidth: 2047
Flags: HW
HStem: 2 54<34.8876 190 388.4 561.575 868.888 1024 1223.7 1396.51> 1266 53<39.4246 212.6 411 566.112 872.492 1045.3 1245 1400.11> 1430 246<610.5 859.5>
VStem: 218 165<84 224 356 1240> 454.5 435<1460 1582> 1052 165<83 959 1091 1250.1>
Fore
610.5 1676 m 1
 858.5 1503 l 2
 880.5 1487 889.5 1474 889.5 1460 c 0
 889.5 1439.5 878.5 1430 859.5 1430 c 0
 841.5 1430 814.921 1436.47 771.5 1454 c 2
 454.5 1582 l 1
 610.5 1676 l 1
1217 1176 m 2
 1217 146 l 2
 1217 83 1248 56 1329 56 c 2
 1383 56 l 2
 1392 56 1400 50 1400 39 c 2
 1400 1 l 1
 1396 -3 l 1
 1396 -3 1218 2 1138 2 c 0
 1065 2 874 -3 874 -3 c 1
 870 1 l 1
 870 39 l 2
 870 50 876 56 886 56 c 2
 940 56 l 2
 1024 56 1052 89 1052 146 c 2
 1052 959 l 1
 383 224 l 1
 383 147 l 2
 383 84 413 57 495 57 c 2
 549 57 l 2
 557 57 565 51 565 40 c 2
 565 2 l 1
 561 -2 l 1
 561 -2 384 3 304 3 c 0
 232 3 40 -2 40 -2 c 1
 36 2 l 1
 36 40 l 2
 36 51 42 57 52 57 c 2
 106 57 l 2
 190 57 218 90 218 147 c 2
 218 1177 l 2
 218 1240 188 1266 106 1266 c 2
 52 1266 l 2
 44 1266 36 1272 36 1283 c 2
 36 1321 l 1
 40 1325 l 1
 40 1325 218 1319 298 1319 c 0
 370 1319 561 1325 561 1325 c 1
 565 1321 l 1
 565 1283 l 2
 565 1272 559 1266 549 1266 c 2
 495 1266 l 2
 411 1266 383 1234 383 1177 c 2
 383 356 l 1
 1052 1091 l 1
 1052 1176 l 2
 1052 1239 1021 1266 940 1266 c 2
 886 1266 l 2
 877 1266 869 1272 869 1283 c 2
 869 1321 l 1
 873 1325 l 1
 873 1325 1051 1319 1131 1319 c 0
 1204 1319 1395 1325 1395 1325 c 1
 1399 1321 l 1
 1399 1283 l 2
 1399 1272 1393 1266 1383 1266 c 2
 1329 1266 l 2
 1245 1266 1217 1233 1217 1176 c 2
-35 -170 m 1
 1479 -170 l 1
 1464 -250 l 1
 -50 -250 l 1
 -35 -170 l 1
EndSplineSet
LCarets2: 1 0 
Ligature2: "'liga' Standard Ligatures in Cyrillic lookup 2" afii10026 gravecomb
EndChar
StartChar: afii10062
Encoding: 1038 1038 73
Width: 1141
VWidth: 2047
Flags: HW
HStem: -33 129<318 486.5> 1264 55<23.9711 166.5 361 494.013 772 922.463 1039 1161.4> 1427 68<550.5 727.3>
VStem: 386.5 143<1516.8 1616.9> 753.5 143<1507.7 1615.6>
Fore
896.5 1578 m 0
 896.5 1470 769.5 1427 639.5 1427 c 0
 504.5 1427 386.5 1468 386.5 1576 c 0
 386.5 1621 405.5 1647 460.5 1647 c 0
 508.5 1647 529.5 1607 529.5 1574 c 0
 529.5 1530 571.5 1495 641.5 1495 c 0
 707.5 1495 753.5 1523 753.5 1574 c 0
 753.5 1606 771.5 1647 822.5 1647 c 0
 877.5 1647 896.5 1618 896.5 1578 c 0
402 96 m 0
 467 96 510 142 561 257 c 1
 187 1174 l 2
 165.669 1226.3 147 1264 82 1264 c 2
 40 1264 l 2
 28 1264 20 1271 20 1280 c 2
 20 1323 l 1
 20 1323 151 1319 235 1319 c 0
 337 1319 497 1323 497 1323 c 1
 497 1281 l 2
 497 1271 492 1265 483 1264 c 2
 405 1264 l 2
 361 1264 347 1254 347 1233 c 0
 347 1219 351.057 1200.44 360 1178 c 2
 643 468 l 1
 910 1178 l 2
 920 1202 924 1219 924 1231 c 0
 924 1260 898 1263 843 1264 c 2
 782 1264 l 1
 772 1266 770 1273 770 1280 c 2
 770 1323 l 1
 770 1323 907 1319 994 1319 c 0
 1059 1319 1161 1323 1161 1323 c 1
 1161 1281 l 2
 1161 1268 1148 1264 1140 1264 c 2
 1104 1264 l 2
 1039 1264 1023 1239 999 1174 c 2
 672 330 l 2
 585 106 479 -33 318 -33 c 0
 231 -33 168 -12 168 54 c 0
 168 111 206 147 272 147 c 0
 301 147 325.595 133.517 341 121 c 0
 357 108 372 96 402 96 c 0
-35 -170 m 1
 1187.5 -170 l 1
 1172.5 -250 l 1
 -50 -250 l 1
 -35 -170 l 1
EndSplineSet
LCarets2: 1 0 
Ligature2: "'liga' Standard Ligatures in Cyrillic lookup 2" afii10037 uni0306
EndChar
StartChar: afii10020
Encoding: 1043 1043 74
Width: 1058
VWidth: 2047
Flags: HW
HStem: 1 55<31.4391 184 382.8 559.163> 1241 80<395.5 928> 1266 57<36 222.1>
VStem: 215 165<89 1244.2> 1018 54<986.397 1070.97>
Fore
297 1319 m 2
 456 1321 l 1
 1032 1321 l 1
 1072 993 l 1
 1018 984 l 1
 986 1132 928 1241 794 1241 c 2
 454 1241 l 2
 409 1241 380 1228 380 1174 c 2
 380 146 l 2
 380 89 408 56 492 56 c 2
 546 56 l 2
 556 56 562 50 562 39 c 2
 562 1 l 1
 558 -3 l 1
 558 -3 367 1 294 1 c 0
 214 1 36 -3 36 -3 c 1
 32 1 l 1
 32 39 l 2
 32 50 40 56 49 56 c 2
 103 56 l 2
 184 56 215 83 215 146 c 2
 215 1174 l 2
 215 1246 196 1266 109 1266 c 2
 48 1266 l 2
 39 1266 32 1272 32 1282 c 2
 32 1319 l 1
 36 1323 l 1
 245 1321 271 1319 297 1319 c 2
-28 -168 m 1
 1115 -168 l 1
 1100 -248 l 1
 -43 -248 l 1
 -28 -168 l 1
EndSplineSet
EndChar
StartChar: afii10021
Encoding: 1044 1044 75
Width: 1446
VWidth: 2047
Flags: HW
HStem: 0 80<340.9 1052> 0 60<1052 1294> 1262 60<394.938 525 1231 1369.63>
VStem: 1055 165<87 1242.6>
Fore
978 1241 m 2
 699 1241 l 2
 618 1241 624 1213 620 1161 c 0
 576 306 316 208 316 114 c 0
 316 91 347 80 377 80 c 2
 980 80 l 2
 1029 80 1055 87 1055 161 c 2
 1055 1162 l 2
 1055 1224 1042 1241 978 1241 c 2
176 97 m 0
 318.994 233.006 531 588 531 1161 c 0
 531 1233 510 1262 460 1262 c 2
 399 1262 l 2
 390 1262 384 1271 384 1280 c 2
 384 1296 l 2
 384 1305 395 1322 409 1322 c 2
 1361 1322 l 2
 1367 1322 1372 1314 1372 1309 c 2
 1372 1280 l 2
 1372 1259 1372 1261 1356 1261 c 2
 1295 1261 l 2
 1231 1261 1220 1232 1220 1160 c 2
 1220 160 l 2
 1220 87 1230 62 1294 60 c 2
 1328 60 l 2
 1343 60 1371 45 1371 19 c 2
 1371 -223 l 1
 1345 -223 1348 -223 1330 -223 c 1
 1299 -108 1216 0 1052 0 c 2
 349 0 l 2
 203 0 97 -185 85 -231 c 1
 67 -231 70 -231 44 -231 c 1
 44 11 l 2
 44 37 72 52 87 52 c 0
 121 52 134.998 58.0018 176 97 c 0
220 -170 m 1
 1219 -170 l 1
 1204 -250 l 1
 205 -250 l 1
 220 -170 l 1
EndSplineSet
EndChar
StartChar: afii10024
Encoding: 1046 1046 76
Width: 1892
VWidth: 2047
Flags: HW
HStem: -2 59<25 173 1719 1867> 2 54<679.888 835 1034.7 1207.51> 665 116<716.2 867 1025 1175.8> 1207 129<179.5 279.1 1612.9 1712.5> 1266 53<683.492 856.3 1056 1211.11>
VStem: 863 165<89 1250.1>
Fore
1867 -2 m 1
 1719 0 l 2
 1607.01 1.51344 1515 132 1458 219 c 2
 1302 488 l 2
 1209.8 646.616 1142.18 664.695 1028 664.996 c 1
 1028 146 l 2
 1028 83 1059 56 1140 56 c 2
 1194 56 l 2
 1203 56 1211 50 1211 39 c 2
 1211 1 l 1
 1207 -3 l 1
 1207 -3 1029 2 949 2 c 0
 876 2 685 -3 685 -3 c 1
 681 1 l 1
 681 39 l 2
 681 50 687 56 697 56 c 2
 751 56 l 2
 835 56 863 89 863 146 c 2
 863 664.993 l 1
 749.426 664.588 681.926 646.152 590 488 c 2
 434 219 l 2
 377 132 284.994 1.51344 173 0 c 2
 25 -2 l 1
 21 2 l 1
 21 40 l 2
 21 51 29 57 38 57 c 2
 59 57 l 2
 173 57 233.725 194.156 327 358 c 2
 479 625 l 2
 512.014 682.992 570 734 622 734 c 1
 464 784 394.185 970.068 350 1090 c 0
 329 1147 276 1207 251 1207 c 0
 196 1207 143 1156 90 1156 c 0
 47 1156 0 1191 0 1241 c 0
 0 1289 32 1336 140 1336 c 0
 247 1336 345.774 1288.9 398 1174 c 0
 448 1064 495 891 636 812 c 0
 689.046 782.53 788.411 781.044 863 781.001 c 1
 863 1176 l 2
 863 1239 832 1266 751 1266 c 2
 697 1266 l 2
 688 1266 680 1272 680 1283 c 2
 680 1321 l 1
 684 1325 l 1
 684 1325 862 1319 942 1319 c 0
 1015 1319 1206 1325 1206 1325 c 1
 1210 1321 l 1
 1210 1283 l 2
 1210 1272 1204 1266 1194 1266 c 2
 1140 1266 l 2
 1056 1266 1028 1233 1028 1176 c 2
 1028 781.001 l 1
 1102.7 781.032 1202.72 782.398 1256 812 c 0
 1397 891 1444 1064 1494 1174 c 0
 1546.23 1288.9 1645 1336 1752 1336 c 0
 1860 1336 1892 1289 1892 1241 c 0
 1892 1191 1845 1156 1802 1156 c 0
 1749 1156 1696 1207 1641 1207 c 0
 1616 1207 1563 1147 1542 1090 c 0
 1497.81 970.068 1428 784 1270 734 c 1
 1322 734 1379.99 682.992 1413 625 c 2
 1565 358 l 2
 1658.27 194.156 1719 57 1833 57 c 2
 1854 57 l 2
 1863 57 1871 51 1871 40 c 2
 1871 2 l 1
 1867 -2 l 1
-39 -170 m 1
 1941 -170 l 1
 1926 -250 l 1
 -54 -250 l 1
 -39 -170 l 1
EndSplineSet
EndChar
StartChar: afii10025
Encoding: 1047 1047 77
Width: 1132
VWidth: 2047
Flags: HW
HStem: -20 64<291.3 693.5> 699 69<350 806.5> 1293 69<373.1 690.8>
VStem: 117 55<936 1136.2 1292.6 1368> 774 147<895.4 1251.6> 864 173<46.2 499.9>
Fore
507 1362 m 0
 750 1362 921 1287 921 1074 c 0
 921 895 761 759 725 746 c 1
 870 704 1037 618 1037 399 c 0
 1037 108 795 -20 498 -20 c 0
 339 -20 300 18 174 42 c 1
 88 281 l 1
 132 294 l 1
 192 135 333 44 492 44 c 0
 647 44 864 120 864 366 c 0
 864 469 803 699 563 699 c 2
 373 699 l 2
 350 699 339 710 339 733 c 0
 338 756 350 768 373 768 c 2
 488 768 l 2
 733 768 774 929 774 1041 c 0
 774 1203 656 1293 540 1293 c 0
 265 1293 172 1090 172 936 c 1
 117 936 l 1
 117 1368 l 1
 171 1368 l 1
 171 1310 192 1290 226 1290 c 0
 291 1290 404 1362 507 1362 c 0
-35 -170 m 1
 1183 -170 l 1
 1168 -250 l 1
 -50 -250 l 1
 -35 -170 l 1
EndSplineSet
EndChar
StartChar: afii10026
Encoding: 1048 1048 78
Width: 1435
VWidth: 2047
Flags: HW
HStem: 2 54<34.8876 190 388.4 561.575 868.888 1024 1223.7 1396.51> 1266 53<39.4246 212.6 411 566.112 872.492 1045.3 1245 1400.11>
VStem: 218 165<84 224 356 1240> 1052 165<83 959 1091 1250.1>
Fore
1217 1176 m 2
 1217 146 l 2
 1217 83 1248 56 1329 56 c 2
 1383 56 l 2
 1392 56 1400 50 1400 39 c 2
 1400 1 l 1
 1396 -3 l 1
 1396 -3 1218 2 1138 2 c 0
 1065 2 874 -3 874 -3 c 1
 870 1 l 1
 870 39 l 2
 870 50 876 56 886 56 c 2
 940 56 l 2
 1024 56 1052 89 1052 146 c 2
 1052 959 l 1
 383 224 l 1
 383 147 l 2
 383 84 413 57 495 57 c 2
 549 57 l 2
 557 57 565 51 565 40 c 2
 565 2 l 1
 561 -2 l 1
 561 -2 384 3 304 3 c 0
 232 3 40 -2 40 -2 c 1
 36 2 l 1
 36 40 l 2
 36 51 42 57 52 57 c 2
 106 57 l 2
 190 57 218 90 218 147 c 2
 218 1177 l 2
 218 1240 188 1266 106 1266 c 2
 52 1266 l 2
 44 1266 36 1272 36 1283 c 2
 36 1321 l 1
 40 1325 l 1
 40 1325 218 1319 298 1319 c 0
 370 1319 561 1325 561 1325 c 1
 565 1321 l 1
 565 1283 l 2
 565 1272 559 1266 549 1266 c 2
 495 1266 l 2
 411 1266 383 1234 383 1177 c 2
 383 356 l 1
 1052 1091 l 1
 1052 1176 l 2
 1052 1239 1021 1266 940 1266 c 2
 886 1266 l 2
 877 1266 869 1272 869 1283 c 2
 869 1321 l 1
 873 1325 l 1
 873 1325 1051 1319 1131 1319 c 0
 1204 1319 1395 1325 1395 1325 c 1
 1399 1321 l 1
 1399 1283 l 2
 1399 1272 1393 1266 1383 1266 c 2
 1329 1266 l 2
 1245 1266 1217 1233 1217 1176 c 2
-35 -170 m 1
 1479 -170 l 1
 1464 -250 l 1
 -50 -250 l 1
 -35 -170 l 1
EndSplineSet
EndChar
StartChar: afii10027
Encoding: 1049 1049 79
Width: 1435
VWidth: 2047
Flags: HW
HStem: 2 54<34.8876 190 388.4 561.575 868.888 1024 1223.7 1396.51> 1266 53<39.4246 212.6 411 566.112 872.492 1045.3 1245 1400.11> 1427 68<626.5 803.3>
VStem: 218 165<84 224 356 1240> 462.5 143<1516.8 1616.9> 829.5 143<1507.7 1615.6> 1052 165<83 959 1091 1250.1>
Fore
972.5 1578 m 0
 972.5 1470 845.5 1427 715.5 1427 c 0
 580.5 1427 462.5 1468 462.5 1576 c 0
 462.5 1621 481.5 1647 536.5 1647 c 0
 584.5 1647 605.5 1607 605.5 1574 c 0
 605.5 1530 647.5 1495 717.5 1495 c 0
 783.5 1495 829.5 1523 829.5 1574 c 0
 829.5 1606 847.5 1647 898.5 1647 c 0
 953.5 1647 972.5 1618 972.5 1578 c 0
1217 1176 m 2
 1217 146 l 2
 1217 83 1248 56 1329 56 c 2
 1383 56 l 2
 1392 56 1400 50 1400 39 c 2
 1400 1 l 1
 1396 -3 l 1
 1396 -3 1218 2 1138 2 c 0
 1065 2 874 -3 874 -3 c 1
 870 1 l 1
 870 39 l 2
 870 50 876 56 886 56 c 2
 940 56 l 2
 1024 56 1052 89 1052 146 c 2
 1052 959 l 1
 383 224 l 1
 383 147 l 2
 383 84 413 57 495 57 c 2
 549 57 l 2
 557 57 565 51 565 40 c 2
 565 2 l 1
 561 -2 l 1
 561 -2 384 3 304 3 c 0
 232 3 40 -2 40 -2 c 1
 36 2 l 1
 36 40 l 2
 36 51 42 57 52 57 c 2
 106 57 l 2
 190 57 218 90 218 147 c 2
 218 1177 l 2
 218 1240 188 1266 106 1266 c 2
 52 1266 l 2
 44 1266 36 1272 36 1283 c 2
 36 1321 l 1
 40 1325 l 1
 40 1325 218 1319 298 1319 c 0
 370 1319 561 1325 561 1325 c 1
 565 1321 l 1
 565 1283 l 2
 565 1272 559 1266 549 1266 c 2
 495 1266 l 2
 411 1266 383 1234 383 1177 c 2
 383 356 l 1
 1052 1091 l 1
 1052 1176 l 2
 1052 1239 1021 1266 940 1266 c 2
 886 1266 l 2
 877 1266 869 1272 869 1283 c 2
 869 1321 l 1
 873 1325 l 1
 873 1325 1051 1319 1131 1319 c 0
 1204 1319 1395 1325 1395 1325 c 1
 1399 1321 l 1
 1399 1283 l 2
 1399 1272 1393 1266 1383 1266 c 2
 1329 1266 l 2
 1245 1266 1217 1233 1217 1176 c 2
-35 -170 m 1
 1479 -170 l 1
 1464 -250 l 1
 -50 -250 l 1
 -35 -170 l 1
EndSplineSet
LCarets2: 1 0 
Ligature2: "'liga' Standard Ligatures in Cyrillic lookup 2" afii10026 uni0306
EndChar
StartChar: afii10033
Encoding: 1055 1055 80
Width: 1417
VWidth: 2047
Flags: HW
HStem: 2 55<41.8876 197 396.7 569.508 858.888 1014 1213.7 1386.51> 1238 79<401 1051.5> 1267 55<45.6985 204.5 1256 1385.8>
VStem: 225 165<90 1234.4> 1042 165<72.9 1204>
Fore
1042 147 m 2
 1042 1147 l 2
 1042 1204 1032 1238 967 1238 c 2
 464 1238 l 2
 401 1238 390 1214 390 1146 c 2
 390 147 l 2
 390 84 421 57 502 57 c 2
 556 57 l 2
 565 57 573 51 573 40 c 2
 573 2 l 1
 569 -2 l 1
 569 -2 391 2 311 2 c 0
 238 2 47 -2 47 -2 c 1
 43 2 l 1
 43 40 l 2
 43 51 49 57 59 57 c 2
 113 57 l 2
 197 57 225 90 225 147 c 2
 225 1175 l 2
 225 1251 185 1267 120 1267 c 2
 59 1267 l 2
 46 1267 43 1276 43 1283 c 2
 43 1322 l 1
 58 1322 274.001 1317.23 303 1317 c 0
 429 1316 565 1316 710 1316 c 0
 837 1316 973 1316 1119 1317 c 0
 1131 1317.08 1386 1322 1390 1322 c 1
 1390 1284 l 2
 1390 1276 1383 1267 1373 1267 c 2
 1313 1267 l 2
 1256 1266 1207 1238 1207 1175 c 2
 1207 147 l 2
 1207 84 1238 57 1319 57 c 2
 1373 57 l 2
 1382 57 1390 51 1390 40 c 2
 1390 2 l 1
 1386 -2 l 1
 1386 -2 1208 2 1128 2 c 0
 1055 2 864 -2 864 -2 c 1
 860 2 l 1
 860 40 l 2
 860 51 866 57 876 57 c 2
 930 57 l 2
 1014 57 1042 90 1042 147 c 2
-27 -170 m 1
 1487 -170 l 1
 1472 -250 l 1
 -42 -250 l 1
 -27 -170 l 1
EndSplineSet
EndChar
StartChar: afii10034
Encoding: 1056 1056 81
Width: 1056
VWidth: 2047
Flags: HW
HStem: 3 53<33.8876 189 388.7 561.508> 577 68<415.514 788> 1268 50<35 176.648> 1269 70<464.656 734.6>
VStem: 217 165<71.9 598 655 1242> 843 175<770.1 1152.3>
Fore
382 1242 m 1
 382 655 l 1
 405 650 478 645 528 645 c 0
 728 645 843 738 843 959 c 0
 843 1218 692 1269 550 1269 c 0
 511 1269 422 1255 382 1242 c 1
217 146 m 2
 217 1177 l 2
 217 1256 162 1268 126 1268 c 0
 109 1268 59 1264 51 1264 c 0
 37 1264 35 1272 35 1278 c 2
 35 1318 l 1
 65 1318 185 1325 284 1330 c 0
 390.035 1335.36 513 1339 566 1339 c 0
 945 1339 1018 1116 1018 995 c 0
 1018 822 912 577 539 577 c 0
 466 577 429 583 382 598 c 1
 382 146 l 2
 382 83 413 56 494 56 c 2
 548 56 l 2
 557 56 565 50 565 39 c 2
 565 1 l 1
 561 -3 l 1
 561 -3 383 3 303 3 c 0
 230 3 39 -3 39 -3 c 1
 35 1 l 1
 35 39 l 2
 35 50 41 56 51 56 c 2
 105 56 l 2
 189 56 217 89 217 146 c 2
-35 -170 m 1
 1115 -170 l 1
 1100 -250 l 1
 -50 -250 l 1
 -35 -170 l 1
EndSplineSet
EndChar
StartChar: afii10035
Encoding: 1057 1057 82
Width: 1333
VWidth: 2047
Flags: HW
HStem: -33 87<356.6 1017> 1275 70<495.9 939.2>
VStem: 78 178<300.8 1185.7> 1125 62<923.328 1027.01 1267.78 1335>
Fore
772 -33 m 0
 330 -33 78 312 78 641 c 0
 78 1060 384 1345 726 1345 c 0
 979 1345 1065 1261 1106 1261 c 0
 1123 1261 1129 1272 1129 1283 c 0
 1129 1291 1128 1323 1125 1335 c 1
 1187 1344 l 1
 1242 934 l 1
 1180 927 l 1
 1169 1006 1138.84 1080.82 1061 1152 c 0
 974.821 1230.8 896 1275 752 1275 c 0
 555 1275 256 1152 256 670 c 0
 256 386 452 54 770 54 c 0
 960 54 1078 108 1214 278 c 1
 1261 248 l 1
 1138 68 995 -33 772 -33 c 0
-35 -170 m 1
 1403 -170 l 1
 1388 -250 l 1
 -50 -250 l 1
 -35 -170 l 1
EndSplineSet
EndChar
StartChar: afii10036
Encoding: 1058 1058 83
Width: 1152
VWidth: 2047
Flags: HW
HStem: 2 55<311.888 467 666.7 839.508> 1228 80<84.4 470 684 1035>
VStem: 495 165<90 1228.9>
Fore
126 1308 m 2
 1004 1308 l 2
 1030.38 1308 1036.48 1333.35 1036.48 1349.53 c 0
 1036.48 1352.36 1036.3 1354.91 1036 1357 c 1
 1090 1371 l 1
 1157 1053 l 1
 1109 1043 l 1
 1068 1206 1033 1228 920 1228 c 2
 758 1228 l 2
 684 1228 660 1210 660 1142 c 2
 660 147 l 2
 660 84 691 57 772 57 c 2
 826 57 l 2
 835 57 843 51 843 40 c 2
 843 2 l 1
 839 -2 l 1
 839 -2 660 2 580 2 c 0
 507 2 317 -2 317 -2 c 1
 313 2 l 1
 313 40 l 2
 313 51 319 57 329 57 c 2
 383 57 l 2
 467 57 495 90 495 147 c 2
 495 1147 l 2
 495 1210 470 1228 396 1228 c 2
 209 1228 l 2
 96 1228 61 1206 20 1043 c 1
 -28 1053 l 1
 39 1371 l 1
 93 1358 l 1
 92.7047 1355.64 92.5184 1352.88 92.5184 1349.9 c 0
 92.5184 1332.7 98.7253 1308 126 1308 c 2
-35 -170 m 1
 1207 -170 l 1
 1192 -250 l 1
 -50 -250 l 1
 -35 -170 l 1
EndSplineSet
EndChar
StartChar: afii10037
Encoding: 1059 1059 84
Width: 1141
VWidth: 2047
Flags: HW
HStem: -33 129<318 486.5> 1264 55<23.9711 166.5 361 494.013 772 922.463 1039 1161.4>
Fore
402 96 m 0
 467 96 510 142 561 257 c 1
 187 1174 l 2
 165.669 1226.3 147 1264 82 1264 c 2
 40 1264 l 2
 28 1264 20 1271 20 1280 c 2
 20 1323 l 1
 20 1323 151 1319 235 1319 c 0
 337 1319 497 1323 497 1323 c 1
 497 1281 l 2
 497 1271 492 1265 483 1264 c 2
 405 1264 l 2
 361 1264 347 1254 347 1233 c 0
 347 1219 351.057 1200.44 360 1178 c 2
 643 468 l 1
 910 1178 l 2
 920 1202 924 1219 924 1231 c 0
 924 1260 898 1263 843 1264 c 2
 782 1264 l 1
 772 1266 770 1273 770 1280 c 2
 770 1323 l 1
 770 1323 907 1319 994 1319 c 0
 1059 1319 1161 1323 1161 1323 c 1
 1161 1281 l 2
 1161 1268 1148 1264 1140 1264 c 2
 1104 1264 l 2
 1039 1264 1023 1239 999 1174 c 2
 672 330 l 2
 585 106 479 -33 318 -33 c 0
 231 -33 168 -12 168 54 c 0
 168 111 206 147 272 147 c 0
 301 147 325.595 133.517 341 121 c 0
 357 108 372 96 402 96 c 0
-35 -170 m 1
 1187.5 -170 l 1
 1172.5 -250 l 1
 -50 -250 l 1
 -35 -170 l 1
EndSplineSet
EndChar
StartChar: afii10039
Encoding: 1061 1061 85
Width: 1322
VWidth: 2047
Flags: HW
HStem: -2 59<8.88696 147.6 313.91 414.026 856.093 967.594 1215.4 1332.33> 1269 55<25 129.1 375 491 884.197 997.393 1167.9 1293>
Fore
186 1166 m 2
 138.437 1228.58 109 1269 42 1269 c 2
 38 1269 l 2
 28 1269 15 1271 15 1283 c 2
 15 1320 l 1
 25 1324 l 1
 77 1322 209 1317 231 1317 c 0
 242 1317 430 1322 492 1324 c 1
 492 1324 500 1320 501 1320 c 1
 501 1284 l 2
 501 1276 500 1269 491 1269 c 2
 409 1269 l 2
 375 1268 363 1258 363 1244 c 0
 363 1227 379 1200 400 1172 c 2
 654.835 812.5 l 2
 666.222 796.438 673.194 788.547 680.163 788.547 c 0
 687.363 788.547 694.469 797.033 706.613 813.5 c 2
 971 1172 l 2
 992 1201 1002 1226 1002 1241 c 0
 1002 1259 988 1268 959 1269 c 2
 896 1269 l 1
 889 1270 882 1273 882 1283 c 2
 882 1322 l 1
 886 1324 l 1
 930 1323 1067 1320 1090 1320 c 0
 1100 1320 1253 1322 1289 1324 c 1
 1294 1322 l 1
 1294 1284 l 2
 1294 1277 1293 1269 1275 1269 c 2
 1242 1269 l 2
 1185 1267 1137.31 1248.62 1070 1157.5 c 2
 782.287 768 l 2
 764.287 743.358 756.07 724.658 756.07 706.854 c 0
 756.07 685.513 767.874 665.459 788.786 638 c 2
 1151 163 l 2
 1202.84 95.0166 1237 57 1309 57 c 2
 1311 57 l 2
 1324 57 1335 55 1335 42 c 2
 1335 0 l 1
 1332 -2 l 1
 1275 0 1149 2 1124 2 c 0
 1111 2 861 -2 861 -2 c 1
 854 0 l 1
 854 43 l 2
 854 52 860 57 867 57 c 2
 916 57 l 2
 963.538 57 981.608 64.3232 981.608 80.1611 c 0
 981.608 95.3076 965.083 118.24 942 150 c 2
 663.281 533.5 l 2
 650.828 550.617 642.833 558.242 635.464 558.242 c 0
 628 558.242 618.696 547.228 604.984 528.5 c 2
 333 157 l 2
 314.747 132.069 305.721 111.023 305.721 94.7666 c 0
 305.721 70.582 325.7 57 365 57 c 2
 404 57 l 2
 413 56 416 50 416 42 c 2
 416 2.25 l 1
 410 -2 l 1
 410 -2 210 2 180 2 c 0
 170 2 9 -2 9 -2 c 1
 6 2 l 1
 6 43 l 2
 6 54 17 57 28 57 c 2
 54 57 l 2
 126 57 182 100 230 165 c 2
 545.373 595 l 2
 559.849 614.761 566.123 630.062 566.123 644.32 c 0
 566.123 663.629 554.617 681.026 536.395 705 c 2
 186 1166 l 2
-35 -170 m 1
 1375 -170 l 1
 1360 -250 l 1
 -50 -250 l 1
 -35 -170 l 1
EndSplineSet
EndChar
StartChar: afii10040
Encoding: 1062 1062 86
Width: 1338
VWidth: 999
Flags: HW
HStem: 0 44<45 184> 5 70<379 984.6> 1278 45<54.0292 206.7 376 515 815.029 984.6 1122 1274>
VStem: 198 165<60.5 1261> 958 165<84.6078 1246.48>
Fore
934 5 m 2
 934 5 754.444 5.44444 558 5.44444 c 0
 459.778 5.44444 357.333 5.33333 271 5 c 2
 45 0 l 1
 45 34 l 2
 45 41 49 44 56 44 c 2
 117 45 l 2
 184 47 198 61 198 142 c 2
 198 1181 l 2
 198 1261 186 1276 117 1278 c 2
 56 1279 l 2
 49 1279 45 1282 45 1289 c 2
 45 1323 l 1
 271 1318 l 1
 515 1323 l 1
 515 1290 l 2
 515 1283 511 1279 504 1279 c 2
 443 1278 l 2
 376 1276 363 1263 363 1181 c 2
 363 171 l 2
 363 86 379 75 443 75 c 2
 878 75 l 2
 956.186 75 958 102.274 958 162.024 c 2
 958 171 l 1
 958 1181 l 1
 958 1189.84 l 2
 958 1248.64 956.186 1275.14 878 1278 c 2
 817 1279 l 2
 810 1279 806 1282 806 1289 c 2
 806 1323 l 1
 1031 1318 l 1
 1274 1323 l 1
 1274 1290 l 2
 1274 1283 1270 1279 1262 1279 c 2
 1202 1278 l 2
 1122 1275 1123 1250 1123 1181 c 2
 1123 157 l 2
 1123 94 1122 59 1196 57 c 2
 1230 57 l 2
 1245 57 1273 42 1273 16 c 2
 1273 -236 l 1
 1247 -236 1235 -236 1217 -236 c 1
 1198 -167 1092 4.60891 934 5 c 2
-35 -170 m 1
 1072.5 -170 l 1
 1057.5 -250 l 1
 -50 -250 l 1
 -35 -170 l 1
EndSplineSet
EndChar
StartChar: afii10041
Encoding: 1063 1063 87
Width: 1224
VWidth: 2047
Flags: HW
HStem: -2 55<671.654 856.9 996.7 1158.86> 520 70<357.6 630.6> 1269 55<54.8654 207 362 496 691.441 856.9 1019 1160>
VStem: 193 165<641 1247> 843 165<59 675 727 1253>
Fore
762 53 m 2
 835 53 843 80 843 150 c 2
 843 675 l 1
 750 559 596 520 478 520 c 0
 250 520 193 684 193 844 c 2
 193 1184 l 2
 193 1255 183 1269 103 1269 c 2
 67 1269 l 2
 58 1269 54 1273 54 1280 c 2
 54 1324 l 1
 274 1321 l 1
 496 1324 l 1
 496 1279 l 2
 496 1272 492 1269 484 1269 c 2
 448 1269 l 2
 362 1269 358 1247 358 1184 c 2
 358 836 l 2
 358 686 402 590 550 590 c 0
 612 590 738 613 843 727 c 1
 843 1182 l 2
 843 1253 835 1268 762 1268 c 2
 701 1268 l 2
 694 1268 691 1271 691 1278 c 2
 691 1324 l 1
 926 1318 l 1
 1160 1324 l 1
 1160 1280 l 2
 1160 1272 1156 1268 1149 1268 c 2
 1089 1268 l 2
 1019 1268 1008 1258 1008 1182 c 2
 1008 150 l 2
 1008 75 1018 53 1089 53 c 2
 1149 53 l 2
 1156 53 1160 48 1160 41 c 2
 1160 -2 l 1
 926 3 l 1
 671 -2 l 1
 671 42 l 2
 671 49 674 53 681 53 c 2
 762 53 l 2
-35 -170 m 1
 1278.5 -170 l 1
 1263.5 -250 l 1
 -50 -250 l 1
 -35 -170 l 1
EndSplineSet
EndChar
StartChar: afii10042
Encoding: 1064 1064 88
Width: 2102
VWidth: 999
Flags: HW
HStem: 1 45<55 196 1904.21 2028.97> 5 70<388.627 963 1128 1727.1> 1259 55<50.8068 216.7 388 542.224 807.787 990.9 1157 1293.71 1563.81 1728.4 1894 2055.5>
VStem: 208 166<87.4902 1232> 963 165<75 1223.88> 1720 165<66.3809 1241>
Fore
1640 75 m 2
 1707 75 1720 90 1720 171 c 2
 1720 1162 l 2
 1720 1241 1708 1257 1640 1259 c 2
 1564 1260 l 2
 1557 1260 1553 1263 1553 1270 c 2
 1553 1319 l 1
 1553 1319 1705 1314 1803 1314 c 0
 1901 1314 2053 1319 2053 1319 c 1
 2053 1271 l 2
 2053 1264 2049 1260 2041 1260 c 2
 1981 1259 l 2
 1894 1256 1885 1244 1885 1162 c 2
 1885 143 l 2
 1885 98 1886 79 1911 56 c 0
 1918 50 1937 47 1966 46 c 2
 2027 45 l 2
 2034 45 2038 42 2038 35 c 2
 2038 1 l 1
 1799 5 l 1
 358 5 l 1
 55 0 l 1
 55 34 l 2
 55 41 59 44 66 44 c 2
 127 45 l 2
 196 47 208 62 208 142 c 2
 208 1162 l 2
 208 1242 196 1257 127 1259 c 2
 51 1260 l 2
 44 1260 40 1263 40 1270 c 2
 40 1319 l 1
 40 1319 193 1314 291 1314 c 0
 388 1314 540 1319 540 1319 c 1
 540 1271 l 2
 540 1264 536 1260 529 1260 c 2
 468 1259 l 2
 388 1256 374 1232 374 1162 c 2
 374 171 l 1
 374 160.977 l 2
 374 119.551 374.857 103.5 399 84 c 0
 407 77 425 75 453 75 c 2
 963 75 l 1
 963 1162 l 1
 963 1172.76 l 2
 963 1221.6 960.404 1259 883 1259 c 2
 807 1260 l 2
 800 1261 796 1264 796 1270 c 2
 796 1319 l 1
 796 1319 948 1314 1045 1314 c 0
 1143 1314 1295 1319 1295 1319 c 1
 1295 1272 l 2
 1295 1265 1291 1261 1283 1260 c 2
 1223 1259 l 2
 1157 1259 1128 1242 1128 1162 c 2
 1128 75 l 1
 1640 75 l 2
-35 -170 m 1
 2157 -170 l 1
 2142 -250 l 1
 -50 -250 l 1
 -35 -170 l 1
EndSplineSet
EndChar
StartChar: afii10043
Encoding: 1065 1065 89
Width: 2102
VWidth: 999
Flags: HW
HStem: 0 44<55 196> 2 72<346.4 963 1128 1732.3> 1259 55<54.3328 216.7 373 543.224 811.275 990.9 1142 1294.71 1567.33 1728.4 1935.52 2056.5>
VStem: 208 165.999<86.2385 1232> 963 165<74 1223.88> 1720 165<74.8 1222.43>
Fore
1980 -244 m 1
 1959 -169 1854 2 1717 2 c 2
 291 2 l 1
 55 0 l 1
 55 34 l 2
 55 41 59 44 66 44 c 2
 127 45 l 2
 196 47 208 62 208 142 c 2
 208 1162 l 2
 208 1242 196 1257 127 1259 c 2
 55 1260 l 2
 48 1260 44 1263 44 1270 c 2
 44 1319 l 1
 44 1319 195 1314 291 1314 c 0
 389 1314 541 1319 541 1319 c 1
 541 1271 l 2
 541 1264 537 1260 530 1260 c 2
 453 1259 l 2
 374.951 1256.07 373.999 1233.16 373.999 1167.04 c 2
 373.999 1162 l 1
 373.999 171 l 2
 373.999 166.773 373.999 162.671 373.999 158.697 c 0
 373.999 104.39 376.591 74 453 74 c 2
 963 74 l 1
 963 1162 l 1
 963 1172.76 l 2
 963 1221.6 960.404 1259 883 1259 c 2
 811 1260 l 2
 804 1261 800 1264 800 1270 c 2
 800 1319 l 1
 800 1319 949 1314 1045 1314 c 0
 1143 1314 1296 1319 1296 1319 c 1
 1296 1272 l 2
 1296 1265 1292 1261 1284 1260 c 2
 1208 1259 l 2
 1142 1259 1128 1242 1128 1162 c 2
 1128 74 l 1
 1640 74 l 2
 1711 74 1720 97 1720 171 c 2
 1720 1162 l 2
 1720 1241 1708 1257 1640 1259 c 2
 1568 1260 l 2
 1561 1260 1557 1263 1557 1270 c 2
 1557 1319 l 1
 1557 1319 1707 1314 1803 1314 c 0
 1901 1314 2054 1319 2054 1319 c 1
 2054 1271 l 2
 2054 1264 2050 1260 2042 1260 c 2
 1966 1259 l 2
 1938 1258 1920 1255 1912 1249 c 0
 1888 1229 1885 1215 1885 1162 c 2
 1885 154 l 2
 1885 81 1895 56 1959 54 c 2
 1993 54 l 2
 2008 54 2036 39 2036 13 c 2
 2036 -244 l 1
 2010 -244 1998 -244 1980 -244 c 1
-35 -170 m 1
 1820 -170 l 1
 1805 -250 l 1
 -50 -250 l 1
 -35 -170 l 1
EndSplineSet
EndChar
StartChar: afii10044
Encoding: 1066 1066 90
Width: 1506
VWidth: 2047
Flags: HW
HStem: 0 55<376.564 553.3 753.483 1163.1> 711 69<707 995> 1245 77<177 542> 1279 43<729 860>
VStem: 542 165<71 711 780 1245> 1253 173<79.8 484.1>
Fore
707 711 m 1
 707 71 l 1
 768 59 827 53 881 53 c 0
 1098 53 1253 150 1253 384 c 0
 1253 461 1231.86 530.906 1190 593 c 0
 1136.82 671.881 1040 711 899 711 c 2
 707 711 l 1
461 55 m 2
 532 55 542 77 542 152 c 2
 542 1245 l 1
 244 1245 l 2
 177 1245 137 1203 115 1163 c 0
 78 1101 51 1040 32 981 c 1
 -4 981 l 1
 34 1322 l 1
 860 1322 l 1
 860 1288 l 2
 860 1282 857 1279 850 1279 c 2
 789 1278 l 2
 729 1276 707 1265 707 1181 c 2
 707 780 l 1
 824 780 l 2
 995 780 1120.98 760.951 1202 722 c 0
 1351.96 649.91 1426 536 1426 381 c 0
 1426 126 1221 0 1003 0 c 2
 376 0 l 1
 376 45 l 2
 376 52 380 55 387 55 c 2
 461 55 l 2
-35 -170 m 1
 1563 -170 l 1
 1548 -250 l 1
 -50 -250 l 1
 -35 -170 l 1
EndSplineSet
EndChar
StartChar: afii10045
Encoding: 1067 1067 91
Width: 1628
VWidth: 2047
Flags: HW
HStem: -2 58<454.791 656.7> 5 54<1090.89 1246 1445.7 1618.51> 692 61<358.557 649.3> 1269 53<1094.49 1267.3 1467 1622.11> 1280 55<14.8366 191.2 390 542.561>
VStem: 194 165<83 682 739 1264.1> 829 166<223.9 492.1> 1274 165<92 1253.1>
Fore
1439 1179 m 2
 1439 149 l 2
 1439 86 1470 59 1551 59 c 2
 1605 59 l 2
 1614 59 1622 53 1622 42 c 2
 1622 4 l 1
 1618 0 l 1
 1618 0 1440 5 1360 5 c 0
 1287 5 1096 0 1096 0 c 1
 1092 4 l 1
 1092 42 l 2
 1092 53 1098 59 1108 59 c 2
 1162 59 l 2
 1246 59 1274 92 1274 149 c 2
 1274 1179 l 2
 1274 1242 1243 1269 1162 1269 c 2
 1108 1269 l 2
 1099 1269 1091 1275 1091 1286 c 2
 1091 1324 l 1
 1095 1328 l 1
 1095 1328 1273 1322 1353 1322 c 0
 1426 1322 1617 1328 1617 1328 c 1
 1621 1324 l 1
 1621 1286 l 2
 1621 1275 1615 1269 1605 1269 c 2
 1551 1269 l 2
 1467 1269 1439 1236 1439 1179 c 2
-30 -167 m 1
 1719 -167 l 1
 1704 -247 l 1
 1120.56 -247 l 1
 1120 -250 l 1
 -50 -250 l 1
 -35 -170 l 1
 -30.5625 -170 l 1
 -30 -167 l 1
359 83 m 1
 403 72 502 56 541 56 c 0
 630 56 695 84 744 130 c 0
 777 159 829 224 829 366 c 0
 829 463 804.805 532.841 763 584 c 0
 702.719 657.77 616 692 505 692 c 0
 427 692 378 688 359 682 c 1
 359 83 l 1
194 1190 m 2
 194 1247 166 1280 82 1280 c 2
 28 1280 l 2
 18 1280 12 1286 12 1297 c 2
 12 1335 l 1
 16 1339 l 1
 16 1339 207 1335 280 1335 c 0
 360 1335 538 1339 538 1339 c 1
 542 1335 l 1
 542 1297 l 2
 542 1286 534 1280 525 1280 c 2
 471 1280 l 2
 390 1280 359 1253 359 1190 c 2
 359 739 l 1
 391 750 443 753 516 753 c 0
 704 753 796.931 696.918 850 652 c 0
 945.875 570.852 995 475 995 363 c 0
 995 256 960 172 887 102 c 0
 811 32 693 -2 543 -2 c 0
 490 -2 367.035 1.64472 261 7 c 0
 162 12 71 19 41 19 c 1
 41 58 l 2
 41 64 43 72 57 72 c 2
 118 68 l 2
 124.626 67.5859 130.871 67.267 136.713 67.267 c 0
 173.197 67.267 194 79.6995 194 159 c 2
 194 1190 l 2
EndSplineSet
EndChar
StartChar: afii10046
Encoding: 1068 1068 92
Width: 1080
VWidth: 2047
Flags: HW
HStem: -2 58<454.791 656.7> 692 61<358.557 649.3> 1280 55<14.8366 191.2 390 542.561>
VStem: 194 165<83 682 739 1264.1> 829 166<223.9 492.1>
Fore
359 83 m 1
 403 72 502 56 541 56 c 0
 630 56 695 84 744 130 c 0
 777 159 829 224 829 366 c 0
 829 463 804.805 532.841 763 584 c 0
 702.719 657.77 616 692 505 692 c 0
 427 692 378 688 359 682 c 1
 359 83 l 1
194 1190 m 2
 194 1247 166 1280 82 1280 c 2
 28 1280 l 2
 18 1280 12 1286 12 1297 c 2
 12 1335 l 1
 16 1339 l 1
 16 1339 207 1335 280 1335 c 0
 360 1335 538 1339 538 1339 c 1
 542 1335 l 1
 542 1297 l 2
 542 1286 534 1280 525 1280 c 2
 471 1280 l 2
 390 1280 359 1253 359 1190 c 2
 359 739 l 1
 391 750 443 753 516 753 c 0
 704 753 796.931 696.918 850 652 c 0
 945.875 570.852 995 475 995 363 c 0
 995 256 960 172 887 102 c 0
 811 32 693 -2 543 -2 c 0
 490 -2 367.035 1.64472 261 7 c 0
 162 12 71 19 41 19 c 1
 41 58 l 2
 41 64 43 72 57 72 c 2
 118 68 l 2
 124.626 67.5859 130.871 67.267 136.713 67.267 c 0
 173.197 67.267 194 79.6995 194 159 c 2
 194 1190 l 2
-35 -170 m 1
 1135 -170 l 1
 1120 -250 l 1
 -50 -250 l 1
 -35 -170 l 1
EndSplineSet
EndChar
StartChar: afii10047
Encoding: 1069 1069 93
Width: 1263
VWidth: 2047
Flags: HW
HStem: -24 81<333.9 890.3> 598.998 118.646<357.527 518.68> 607.008 102.209<441.447 789.181> 618 80<808.952 1004> 1281 69<293.98 757.8>
VStem: 92 54<1308.98 1339> 1004 179<435.093 618 698 927.133>
Fore
529 709.217 m 2
 1004 698 l 1
 988 1157 714 1281 568 1281 c 0
 318 1281 159.764 1091.58 149 966 c 2
 146 931 l 1
 92 934 l 1
 121 1338 l 1
 176 1336 l 1
 175.281 1326.39 174.912 1317.92 174.912 1310.48 c 0
 174.912 1276.52 182.618 1264.21 199.957 1264.21 c 0
 245.724 1264.21 358.6 1350 574 1350 c 0
 897 1350 1183 1069 1183 661 c 0
 1183 290 895 -24 547 -24 c 0
 370.872 -24 246 40.0001 182 90 c 0
 127.176 132.831 80 187.704 80 243 c 0
 80 296 114 344 170 344 c 0
 236.624 344 277 314 296 246 c 0
 337.641 96.9697 384 57 551 57 c 0
 812 57 994 389 1004 618 c 1
 539 607.008 l 2
 506.867 606.248 461.567 598.998 421.614 598.998 c 0
 373.335 598.998 332.863 609.584 332.863 655 c 0
 332.863 705.931 369.388 717.644 415.055 717.644 c 0
 451.878 717.644 494.646 710.028 529 709.217 c 2
-35 -170 m 1
 1319 -170 l 1
 1304 -250 l 1
 -50 -250 l 1
 -35 -170 l 1
EndSplineSet
EndChar
StartChar: afii10048
Encoding: 1070 1070 94
Width: 1946
VWidth: 2047
Flags: HW
HStem: -17 70<919.3 1574.5> 2 54<34.8876 190 389.7 562.508> 659 80<374 587> 1266 53<38.4916 211.3 411 566.112> 1284 70<944.9 1537.7>
VStem: 218 165<89 1250.1> 591 188<165.8 1165.6> 1684 188<166.2 1195.8>
Fore
590 739 m 1
 587.75 718 586.625 698.125 586.625 678.531 c 0
 586.625 672 586.75 665.5 587 659 c 1
 383 659 l 1
 383 146 l 2
 383 83 414 56 495 56 c 2
 549 56 l 2
 558 56 566 50 566 39 c 2
 566 1 l 1
 562 -3 l 1
 562 -3 384 2 304 2 c 0
 231 2 40 -3 40 -3 c 1
 36 1 l 1
 36 39 l 2
 36 50 42 56 52 56 c 2
 106 56 l 2
 190 56 218 89 218 146 c 2
 218 1176 l 2
 218 1239 187 1266 106 1266 c 2
 52 1266 l 2
 43 1266 35 1272 35 1283 c 2
 35 1321 l 1
 39 1325 l 1
 39 1325 217 1319 297 1319 c 0
 370 1319 561 1325 561 1325 c 1
 565 1321 l 1
 565 1283 l 2
 565 1272 559 1266 549 1266 c 2
 495 1266 l 2
 411 1266 383 1233 383 1176 c 2
 383 739 l 1
 590 739 l 1
1201 1284 m 0
 1004 1284 779 1108 779 678 c 0
 779 284 1000 53 1269 53 c 0
 1504 53 1684 276 1684 642 c 0
 1684 1068 1460 1284 1201 1284 c 0
1872 682 m 0
 1872 272 1620 -17 1229 -17 c 0
 876 -17 591 240 591 643 c 0
 591 1045 860 1354 1227 1354 c 0
 1568 1354 1872 1088 1872 682 c 0
481 -162 m 1
 1995 -162 l 1
 1980 -242 l 1
 649.5 -242 l 1
 648 -250 l 1
 -50 -250 l 1
 -35 -170 l 1
 479.5 -170 l 1
 481 -162 l 1
EndSplineSet
EndChar
StartChar: afii10049
Encoding: 1071 1071 95
Width: 1179
VWidth: 2047
Flags: HW
HStem: 2 55<613.439 766 964.8 1141.16> 580 78<611.234 797> 1268 67<870 1023> 1281 58<472.377 767.219>
VStem: 161 166<864.9 1091.1> 797 165<72.9 580 658 1233>
Fore
393 763 m 0
 442 693 540 658 693 658 c 2
 797 658 l 1
 797 1264 l 1
 748 1275 691 1281 618 1281 c 0
 495 1281 430 1225 412 1208 c 0
 348 1149 327 1065 327 978 c 0
 327 891 353 821 393 763 c 0
962 147 m 2
 962 90 990 57 1074 57 c 2
 1128 57 l 2
 1138 57 1144 51 1144 40 c 2
 1144 2 l 1
 1140 -2 l 1
 1140 -2 949 2 876 2 c 0
 796 2 618 -2 618 -2 c 1
 614 2 l 1
 614 40 l 2
 614 51 622 57 631 57 c 2
 685 57 l 2
 766 57 797 84 797 147 c 2
 797 580 l 1
 658 580 598 569 589 554 c 2
 378 161 l 2
 325.939 64.0329 234 -14 113 -14 c 0
 82 -14 46 -9 25 0 c 1
 33 41 l 1
 38.0904 40.3087 43.1097 40 48.0584 40 c 0
 121.855 40 179.954 114.656 224 199 c 2
 442 619 l 1
 397 634 352 659 306 696 c 0
 210 775 161 868 161 981 c 0
 161 1083 196.078 1165.92 269 1235 c 0
 368.106 1328.89 512 1339 641 1339 c 0
 705 1339 781 1338 870 1335 c 0
 956 1332 1092 1319 1115 1313 c 1
 1115 1275 l 2
 1115 1267 1110 1261 1099 1261 c 2
 1037 1267 l 2
 1033 1268 1029 1268 1023 1268 c 0
 970 1268 962 1233 962 1175 c 2
 962 147 l 2
-35 -170 m 1
 1222.5 -170 l 1
 1207.5 -250 l 1
 -50 -250 l 1
 -35 -170 l 1
EndSplineSet
EndChar
StartChar: afii10089
Encoding: 1095 1095 96
Width: 1065
VWidth: 2047
Flags: HW
HStem: 0 55<594.501 717 864.8 998.444> 259 73<323.9 563.1> 825 55<46.6602 183.8 321 439.624 603.66 744.7 889 1007.46>
VStem: 167 143<404.3 813> 725 153<78 415 469 807>
Fore
310 585 m 2
 310 446 344 332 469 332 c 0
 580 332 663 395 725 469 c 1
 725 738 l 2
 725 807 721 825 642 825 c 2
 609 826 l 2
 601 826 597 830 597 837 c 2
 597 884 l 1
 597 884 727 880 810 880 c 0
 886 880 1005 884 1005 884 c 1
 1005 836 l 2
 1005 830 1001 826 994 826 c 2
 961 825 l 2
 889.005 822.818 878 818 878 738 c 2
 878 155 l 2
 878 78 887 58 961 55 c 2
 995 54 l 2
 1002 54 1005 50 1005 44 c 2
 1005 -4 l 1
 1005 -4 886 0 810 0 c 0
 727 0 597 -4 597 -4 c 1
 597 43 l 2
 597 50 601 54 609 54 c 2
 642 55 l 2
 717 58 725 76 725 155 c 2
 725 415 l 1
 652 311 531 259 424 259 c 0
 347 259 277 286 238 340 c 0
 214 371 167 436 167 593 c 2
 168 738 l 2
 168 813 161 820 85 823 c 2
 52 824 l 2
 44 824 40 828 40 835 c 2
 40 882 l 1
 40 882 164 878 243 878 c 0
 319 878 437 882 437 882 c 1
 437 834 l 2
 437 828 434 824 426 824 c 2
 393 823 l 2
 321.005 820.818 310 818 310 738 c 2
 310 585 l 2
-35 -170 m 1
 1113 -170 l 1
 1098 -250 l 1
 -50 -250 l 1
 -35 -170 l 1
EndSplineSet
EndChar
StartChar: afii10090
Encoding: 1096 1096 97
Width: 1716
VWidth: 2047
Flags: HW
HStem: -15 46<85 201 1497 1660.83> -13 77<377 794.9 942.3 1345> 826 55<55.5638 227.8 376 507 626.564 798.8 953 1078 1210.56 1367.8 1516 1662>
VStem: 212 153<58.7 797> 783 152<64.2 797> 1352 153<74.3 797>
Fore
626 881 m 1
 626 836 l 2
 626 829 630 826 637 826 c 2
1505 131 m 2
 1505 49 1518 33 1588 31 c 2
 1650 31 l 2
 1658 31 1662 26 1662 19 c 2
 1662 -15 l 1
 1424 -10 l 2
 1253.33 -9.11111 1135.41 -8.76543 1051.92 -8.76543 c 0
 759.704 -8.76543 889.333 -13 656 -13 c 0
 509 -13 427 -9 280 -9 c 2
 85 -13 l 1
 85 22 l 2
 85 29 89 32 96 32 c 2
 129 33 l 2
 200.995 35.1817 212 54 212 133 c 2
 212 725 l 2
 212 797 205 823 129 826 c 2
 66 826 l 2
 59 826 55 829 55 836 c 2
 55 881 l 1
 284 876 l 1
 507 881 l 1
 507 837 l 2
 507 830 503 826 495 826 c 2
 448 826 l 2
 376 824 365 802 365 725 c 2
 365 164 l 2
 365 83 377 64 448 64 c 2
 700 64 l 2
 773 64 783 87 783 163 c 2
 783 725 l 2
 783 797 776 823 700 826 c 2
 637 826 l 2
 630 826 626 829 626 836 c 2
 626 881 l 1
 856 876 l 1
 1078 881 l 1
 1078 837 l 2
 1078 830 1074 826 1066 826 c 2
 1019 826 l 2
 953 824 935 805 935 725 c 2
 935 164 l 2
 935 78 960 64 1019 64 c 2
 1269 64 l 2
 1345 64 1352 95 1352 164 c 2
 1352 725 l 2
 1352 797 1345 823 1269 826 c 2
 1221 826 l 2
 1214 826 1210 829 1210 836 c 2
 1210 881 l 1
 1424 876 l 1
 1662 881 l 1
 1662 837 l 2
 1662 830 1658 826 1650 826 c 2
 1588 826 l 2
 1516 824 1505 802 1505 725 c 2
 1505 131 l 2
-35 -170 m 1
 1765.5 -170 l 1
 1750.5 -250 l 1
 -50 -250 l 1
 -35 -170 l 1
EndSplineSet
EndChar
StartChar: afii10091
Encoding: 1097 1097 98
Width: 1716
VWidth: 2047
Flags: HW
HStem: -13 46<84 200> -9 73<376 793.9 960 1367.8> 826 55<54.5638 226.8 375 506 625.564 797.8 953 1078 1210.56 1367.8 1516 1662>
VStem: 211 153<58.7 797> 782 153<64.2 797> 1352 153<74.3 797>
Fore
625 881 m 1
 625 836 l 2
 625 829 629 826 636 826 c 2
1354 -9 m 0
 656 -9 928 -13 655 -13 c 0
 508 -13 426 -9 279 -9 c 2
 84 -13 l 1
 84 22 l 2
 84 29 88 33 95 33 c 2
 128 33 l 2
 200 35 211 54 211 133 c 2
 211 725 l 2
 211 797 204 823 128 826 c 2
 65 826 l 2
 58 826 54 829 54 836 c 2
 54 881 l 1
 283 876 l 1
 506 881 l 1
 506 837 l 2
 506 830 502 826 494 826 c 2
 447 826 l 2
 375 824 364 802 364 725 c 2
 364 164 l 2
 364 83 376 64 447 64 c 2
 699 64 l 2
 772 64 782 87 782 163 c 2
 782 725 l 2
 782 797 775 823 699 826 c 2
 636 826 l 2
 629 826 625 829 625 836 c 2
 625 881 l 1
 854 876 l 1
 1078 881 l 1
 1078 837 l 2
 1078 830 1074 826 1066 826 c 2
 1019 826 l 2
 953 824 935 805 935 725 c 2
 935 164 l 2
 935 78 960 64 1019 64 c 2
 1269 64 l 2
 1345 64 1352 95 1352 164 c 2
 1352 725 l 2
 1352 797 1345 823 1269 826 c 2
 1221 826 l 2
 1214 826 1210 829 1210 836 c 2
 1210 881 l 1
 1424 876 l 1
 1662 881 l 1
 1662 837 l 2
 1662 830 1658 826 1650 826 c 2
 1588 826 l 2
 1516 824 1505 802 1505 725 c 2
 1505 143 l 2
 1505 70 1515 45 1579 43 c 2
 1613 43 l 2
 1628 43 1656 28 1656 2 c 2
 1656 -240 l 1
 1615 -240 l 1
 1601 -188 1560 -9 1354 -9 c 0
-35 -170 m 1
 1479 -170 l 1
 1464 -250 l 1
 -50 -250 l 1
 -35 -170 l 1
EndSplineSet
EndChar
StartChar: afii10092
Encoding: 1098 1098 99
Width: 975
VWidth: 2047
Flags: HW
HStem: 0 54<473.505 750.5> 0 45<211.089 323.6> 461 72<473 597> 824 58<162.011 320> 836 46<481 630>
VStem: 320 153<64 461 533 824> 788 139<106.9 350>
Fore
473 461 m 1
 473 64 l 1
 505 57 537 54 562 54 c 0
 707 54 788 145 788 272 c 0
 788 332 734 461 597 461 c 2
 473 461 l 1
269 45 m 2
 311 46 320 74 320 106 c 2
 320 824 l 1
 250 822 l 2
 140 817 108 816 54 608 c 1
 20 608 l 1
 56 882 l 1
 630 882 l 1
 630 846 l 2
 630 839 626 836 619 836 c 2
 556 835 l 2
 481 835 473 807 473 735 c 2
 473 533 l 1
 565 533 l 2
 827 533 927 428 927 270 c 0
 927 115 822 0 665 0 c 2
 211 0 l 1
 211 38 l 2
 211 42 216 45 220 45 c 2
 269 45 l 2
-35 -170 m 1
 1026.5 -170 l 1
 1011.5 -250 l 1
 -50 -250 l 1
 -35 -170 l 1
EndSplineSet
EndChar
StartChar: afii10093
Encoding: 1099 1099 100
Width: 1335
VWidth: 2047
Flags: HW
HStem: 0 44<108 217> 0 46<809 915.89 1141.91 1265.52> 0 54<368.642 580.3> 444 71<370 581> 827 55<69.2663 225 381 527> 836 47<818.266 943.66 1168.61 1276>
VStem: 217 153<64 444 515 807> 674 139<37.1 358.2> 966 153<100.703 795.245>
Fore
966 736 m 2
 966 757 965 773 964 782 c 0
 961 799 953 813 939 825 c 0
 931 832 912 835 883 836 c 2
 820 837 l 2
 813 837 809 840 809 847 c 2
 809 883 l 1
 1043 877 l 1
 1276 883 l 1
 1276 849 l 2
 1276 841 1272 837 1264 837 c 2
 1202 836 l 2
 1173 835 1154 832 1146 825 c 0
 1132 814 1124 799 1121 782 c 0
 1120 773 1119 757 1119 736 c 2
 1119 146 l 2
 1119 130 1120.06 115.004 1121 100 c 0
 1122.07 83.0042 1131 69 1146 57 c 0
 1155 50 1173 47 1202 46 c 2
 1264 45 l 2
 1272 45 1276 41 1276 34 c 2
 1276 0 l 1
 1043 5 l 1
 809 0 l 1
 809 35 l 2
 809 42 813 45 820 45 c 2
 883 46 l 2
 912 47 930 50 939 57 c 0
 953 67 961 81 964 100 c 0
 965 109 966 125 966 146 c 2
 966 736 l 2
674 262 m 0
 674 336 623 444 494 444 c 2
 370 444 l 1
 370 64 l 1
 388 60 423 54 462 54 c 0
 553 54 674 89 674 262 c 0
813 259 m 0
 813 52 671 0 562 0 c 2
 108 0 l 1
 108 38 l 2
 108 42 110 44 115 44 c 2
 166 45 l 2
 217 48 217 63 217 106 c 2
 217 727 l 2
 217 807 204 825 134 827 c 2
 71 828 l 2
 64 828 60 831 60 838 c 2
 60 882 l 1
 294 876 l 1
 527 882 l 1
 527 840 l 2
 527 832 523 828 515 828 c 2
 453 827 l 2
 381 825 370 807 370 727 c 2
 370 515 l 1
 462 515 l 2
 581 515 666 497 718 460 c 0
 781 414 813 347 813 259 c 0
-50 -250 m 1
 -35 -170 l 1
 921.5 -170 l 1
 1376.5 -170 l 1
 1361.5 -250 l 1
 906.5 -250 l 1
 -50 -250 l 1
EndSplineSet
EndChar
StartChar: afii10094
Encoding: 1100 1100 101
Width: 872
VWidth: 2047
Flags: HW
HStem: 0 44<108 217> 0 54<368.642 580.3> 444 71<370 581> 827 55<69.2663 225 381 527>
VStem: 217 153<64 444 515 807> 674 139<37.1 358.2>
Fore
674 262 m 0
 674 336 623 444 494 444 c 2
 370 444 l 1
 370 64 l 1
 388 60 423 54 462 54 c 0
 553 54 674 89 674 262 c 0
813 259 m 0
 813 52 671 0 562 0 c 2
 108 0 l 1
 108 38 l 2
 108 42 110 44 115 44 c 2
 166 45 l 2
 217 48 217 63 217 106 c 2
 217 727 l 2
 217 807 204 825 134 827 c 2
 71 828 l 2
 64 828 60 831 60 838 c 2
 60 882 l 1
 294 876 l 1
 527 882 l 1
 527 840 l 2
 527 832 523 828 515 828 c 2
 453 827 l 2
 381 825 370 807 370 727 c 2
 370 515 l 1
 462 515 l 2
 581 515 666 497 718 460 c 0
 781 414 813 347 813 259 c 0
-35 -170 m 1
 921.5 -170 l 1
 906.5 -250 l 1
 -50 -250 l 1
 -35 -170 l 1
EndSplineSet
EndChar
StartChar: afii10095
Encoding: 1101 1101 102
Width: 877
VWidth: 2047
Flags: HW
HStem: -9 60<252.165 595> 423 69<337 642> 815 80<279.5 470.5>
VStem: 646 162<129.8 423>
Fore
287 521 m 1
 322 521 l 1
 337 492 l 1
 642 492 l 1
 614 767 451 815 386 815 c 0
 269 815 158 745 107 573 c 1
 66 573 l 1
 100 800 l 1
 204 871 311 895 416 895 c 0
 668 895 808 677 808 451 c 0
 808 129 570 -9 388 -9 c 0
 202 -9 70 90 70 213 c 0
 70 241 95 272 132 272 c 0
 154.271 272 206.036 263.561 216.013 196 c 0
 226.191 127.078 283.281 51 387 51 c 0
 547 51 646 194 646 408 c 2
 646 423 l 1
 337 423 l 1
 322 392 l 1
 287 392 l 1
 287 521 l 1
-35 -170 m 1
 922.5 -170 l 1
 907.5 -250 l 1
 -50 -250 l 1
 -35 -170 l 1
EndSplineSet
EndChar
StartChar: afii10096
Encoding: 1102 1102 103
Width: 1456
VWidth: 2047
Flags: HW
HStem: -20 73<735.4 1117.6> 2 55<57.8876 183 355.9 495.508> 425 90<261 693> 823 55<61.8366 203.7 376 499.561> 841 68<732.8 1163.1>
VStem: 202 153<89 808.4> 544 163<266.9 703.7> 1227 160<176.5 719.9>
Fore
202 733 m 2
 202 791 183 823 114 823 c 2
 75 823 l 2
 65 823 59 829 59 840 c 2
 59 878 l 1
 63 882 l 1
 63 882 202 878 275 878 c 0
 355 878 495 882 495 882 c 1
 499 878 l 1
 499 840 l 2
 499 829 491 823 482 823 c 2
 443 823 l 2
 376 823 355 791 355 733 c 2
 355 515 l 1
 549.664 515 l 1
 579.509 747.314 726.326 909 967 909 c 0
 1271 909 1387 656 1387 443 c 0
 1387 238 1254 -20 964 -20 c 0
 689 -20 544 214 544 424 c 2
 544.001 425 l 1
 355 425 l 1
 355 147 l 2
 355 89 376 57 443 57 c 2
 482 57 l 2
 491 57 499 51 499 40 c 2
 499 2 l 1
 495 -2 l 1
 495 -2 355 2 275 2 c 0
 202 2 63 -2 63 -2 c 1
 59 2 l 1
 59 40 l 2
 59 51 65 57 75 57 c 2
 114 57 l 2
 183 57 202 89 202 147 c 2
 202 733 l 2
946 841 m 0
 782 841 707 650 707 471 c 0
 707 314 796 53 998 53 c 0
 1090 53 1227 107 1227 377 c 0
 1227 677 1113 841 946 841 c 0
-37 -170 m 1
 1513 -170 l 1
 1498 -250 l 1
 -52 -250 l 1
 -37 -170 l 1
EndSplineSet
EndChar
StartChar: afii10097
Encoding: 1103 1103 104
Width: 905
VWidth: 2047
Flags: HW
HStem: -7 33<70.0479 147.911> 0 47<475 590 736.6 846> 364 71<468 589> 826 54<274.9 587.906 742 851>
VStem: 146 138<562.402 728.1> 589 153<62.1328 364 435 810.595>
Fore
742 146 m 2
 742 92 748 47 786 47 c 2
 830 47 l 2
 846 47 851 32 851 29 c 2
 851 0 l 1
 665 5 l 1
 475 0 l 1
 475 33 l 2
 475 41 479 45 487 45 c 2
 517 46 l 2
 588.053 48.92 589 65.1033 589 139.733 c 2
 589 146 l 1
 589 364 l 1
 496 364 l 2
 487 364 477 365 468 365 c 1
 367 143 l 2
 321.278 44.0904 221.572 -7.80179 98.7571 -7.80179 c 0
 89.953 -7.80179 81.0302 -7.53512 72 -7 c 1
 72 26 l 1
 132 26 206.275 83.3193 244 168 c 2
 338 379 l 1
 299 389 146 459 146 621 c 0
 146 780 271 880 397 880 c 2
 851 880 l 1
 851 834 l 2
 851 830 849 827 844 827 c 2
 793 827 l 2
 742 824 742 809 742 766 c 2
 742 146 l 2
589 435 m 1
 589 816 l 1
 560 822 532 826 505 826 c 0
 328 826 284 705 284 628 c 0
 284 580 301 527 336 489 c 0
 367 454 410 435 465 435 c 2
 589 435 l 1
-35 -170 m 1
 952.5 -170 l 1
 937.5 -250 l 1
 -50 -250 l 1
 -35 -170 l 1
EndSplineSet
EndChar
StartChar: uni04AE
Encoding: 1198 1198 105
Width: 1108
VWidth: 2047
Flags: HW
HStem: 2 55<314.888 470 669.7 842.508> 1269 51<-18.2199 91.3277 324.151 432.26 783.79 908.6 1012.7 1154>
VStem: 498 165<72.9 576>
Fore
498 147 m 2
 498 576 l 1
 150 1175 l 2
 128 1216 110 1243 82 1260 c 0
 73 1266 53 1269 24 1269 c 2
 -1 1269 l 1
 -8 1270 -22 1272 -22 1284 c 2
 -22 1322 l 1
 -19 1325 l 1
 3 1322 171 1320 198 1320 c 0
 210 1320 401 1322 432 1325 c 1
 435 1322 l 1
 435 1286 l 2
 435 1278 431 1269 422 1269 c 2
 364 1269 l 2
 325 1269 312 1261 312 1242 c 0
 312 1229 320 1208 337 1179 c 2
 623 699 l 1
 883 1179 l 2
 899 1209 906 1231 906 1242 c 0
 906 1264 896 1270 854 1270 c 2
 794 1270 l 2
 784 1271 782 1278 782 1285 c 2
 782 1322 l 1
 785 1325 l 1
 802 1324 947 1319 973 1319 c 0
 991 1319 1113 1322 1152 1325 c 1
 1155 1322 l 1
 1155 1286 l 2
 1155 1278 1154 1270 1136 1270 c 2
 1092 1270 l 2
 1031 1270 1003.42 1241.78 968 1175 c 2
 663 600 l 1
 663 147 l 2
 663 84 694 57 775 57 c 2
 829 57 l 2
 838 57 846 51 846 40 c 2
 846 2 l 1
 842 -2 l 1
 842 -2 664 2 584 2 c 0
 511 2 320 -2 320 -2 c 1
 316 2 l 1
 316 40 l 2
 316 51 322 57 332 57 c 2
 386 57 l 2
 470 57 498 90 498 147 c 2
-35 -170 m 1
 1191 -170 l 1
 1176 -250 l 1
 -50 -250 l 1
 -35 -170 l 1
EndSplineSet
EndChar
StartChar: uni04C0
Encoding: 1216 1216 106
Width: 601
VWidth: 2047
Flags: HW
HStem: 2 54<34.8876 190 389.7 562.508> 1266 53<38.4916 211.3 411 566.112>
VStem: 218 165<89 1250.1>
Fore
383 1176 m 2
 383 146 l 2
 383 83 414 56 495 56 c 2
 549 56 l 2
 558 56 566 50 566 39 c 2
 566 1 l 1
 562 -3 l 1
 562 -3 384 2 304 2 c 0
 231 2 40 -3 40 -3 c 1
 36 1 l 1
 36 39 l 2
 36 50 42 56 52 56 c 2
 106 56 l 2
 190 56 218 89 218 146 c 2
 218 1176 l 2
 218 1239 187 1266 106 1266 c 2
 52 1266 l 2
 43 1266 35 1272 35 1283 c 2
 35 1321 l 1
 39 1325 l 1
 39 1325 217 1319 297 1319 c 0
 370 1319 561 1325 561 1325 c 1
 565 1321 l 1
 565 1283 l 2
 565 1272 559 1266 549 1266 c 2
 495 1266 l 2
 411 1266 383 1233 383 1176 c 2
-35 -170 m 1
 663 -170 l 1
 648 -250 l 1
 -50 -250 l 1
 -35 -170 l 1
EndSplineSet
EndChar
StartChar: uni04D0
Encoding: 1232 1232 107
Width: 1410
VWidth: 2047
Flags: HW
HStem: 3 54<7.83661 154.2 293.7 445.508 892.888 1031 1264.7 1408.43> 500 80<473.748 896> 1336 20<720.5 745.5> 1416 107<592.3 864> 1628 20<455 512 954 1009>
VStem: 455 554<1550.82 1648 1648 1648>
Fore
1009 1648 m 1
 997 1502 868 1416 734 1416 c 0
 583 1416 466 1505 455 1648 c 1
 512 1648 l 1
 529 1568 625 1523 734 1523 c 0
 834 1523 940 1568 954 1648 c 1
 1009 1648 l 1
531 580 m 2
 896 580 l 1
 694 1126 l 1
 482 616 l 2
 479 609 478 604 478 599 c 0
 478 586 492 580 531 580 c 2
287 147 m 2
 281 133 278 120 278 109 c 0
 278 75 312 57 373 57 c 2
 432 57 l 2
 441 57 449 51 449 40 c 2
 449 2 l 1
 445 -2 l 1
 445 -2 242 3 192 3 c 0
 140 3 9 -2 9 -2 c 1
 5 2 l 1
 5 40 l 2
 5 51 11 57 21 57 c 2
 45 57 l 2
 129 57 165 97 195 166 c 2
 673 1287 l 2
 694.271 1336.89 712 1356 729 1356 c 0
 762 1356 778.995 1340 799 1287 c 2
 1218 177 l 2
 1248.17 97.0653 1289 57 1370 57 c 2
 1393 57 l 2
 1402 57 1413 51 1413 40 c 2
 1413 2 l 1
 1406 -2 l 1
 1406 -2 1250 3 1170 3 c 0
 1097 3 898 -2 898 -2 c 1
 894 2 l 1
 894 40 l 2
 894 51 900 57 910 57 c 2
 967 57 l 2
 1031 57 1063 79 1063 113 c 0
 1063 123 1061 135 1056 147 c 2
 925 500 l 1
 494 500 l 2
 444 500 429 488 419 464 c 2
 287 147 l 2
-35 -170 m 1
 1479 -170 l 1
 1464 -250 l 1
 -50 -250 l 1
 -35 -170 l 1
EndSplineSet
LCarets2: 1 0 
Ligature2: "'liga' Standard Ligatures in Cyrillic lookup 2" afii10017 uni0306
EndChar
StartChar: uni04D1
Encoding: 1233 1233 108
Width: 926
VWidth: 2047
Flags: HW
HStem: -15 84<208.9 437.9> -15 93<728 853.8> 847 62<321.3 481.749> 1032 117<289.8 573.2>
VStem: 80 148<146.3 371.2> 102 149<685 831.9> 173 55<1195.33 1331.71> 606 147<164 507> 672 54<1198.09 1337>
Fore
228 1337 m 1
 232 1232 327 1149 451 1149 c 0
 545 1149 667 1210 672 1337 c 1
 726 1309 l 1
 706 1103 553 1032 451 1032 c 0
 292 1032 188 1150 173 1309 c 1
 228 1337 l 1
606 507 m 1
 284 431 228 337 228 223 c 0
 228 164 256 69 413 69 c 0
 463 69 529 100 606 164 c 1
 606 507 l 1
728 -15 m 0
 649 -15 616 45 607 95 c 1
 535 47 l 2
 479 6 416 -15 343 -15 c 0
 183 -15 80 74 80 213 c 0
 80 377 201 470 413 523 c 2
 606 570 l 1
 606 622 599.97 739.969 538 800 c 0
 504.984 831.983 467 847 424 847 c 0
 345 847 251 813 251 750 c 0
 251 726 255 715 258 708 c 0
 262 701 265 686.125 265 671 c 0
 265 645 243 604 184 604 c 0
 136 604 102 636 102 685 c 0
 102 805 294 909 430 909 c 0
 494 909 649 896 719 752 c 0
 744 703 753 633 753 552 c 2
 753 251 l 2
 753 143 755 108 770 92 c 0
 779 84 791 78 807 78 c 0
 843 78 865 115 887 168 c 1
 920 154 l 1
 888 60 843 -15 728 -15 c 0
-35 -170 m 1
 990 -170 l 1
 975 -250 l 1
 -50 -250 l 1
 -35 -170 l 1
EndSplineSet
LCarets2: 1 0 
Ligature2: "'liga' Standard Ligatures in Cyrillic lookup 2" afii10065 uni0306
EndChar
StartChar: uni04D2
Encoding: 1234 1234 109
Width: 1410
VWidth: 2047
Flags: HW
HStem: 3 54<7.83661 154.2 293.7 445.508 892.888 1031 1264.7 1408.43> 500 80<473.748 896> 1336 20<720.5 745.5> 1454 186<501.7 634.3 830.7 963.3>
VStem: 475 186<1480.7 1613.3> 804 186<1481.7 1614.3>
Fore
804 1548 m 0
 804 1599 846 1641 897 1641 c 0
 948 1641 990 1599 990 1548 c 0
 990 1497 948 1455 897 1455 c 0
 846 1455 804 1497 804 1548 c 0
475 1547 m 0
 475 1598 517 1640 568 1640 c 0
 619 1640 661 1598 661 1547 c 0
 661 1496 619 1454 568 1454 c 0
 517 1454 475 1496 475 1547 c 0
531 580 m 2
 896 580 l 1
 694 1126 l 1
 482 616 l 2
 479 609 478 604 478 599 c 0
 478 586 492 580 531 580 c 2
287 147 m 2
 281 133 278 120 278 109 c 0
 278 75 312 57 373 57 c 2
 432 57 l 2
 441 57 449 51 449 40 c 2
 449 2 l 1
 445 -2 l 1
 445 -2 242 3 192 3 c 0
 140 3 9 -2 9 -2 c 1
 5 2 l 1
 5 40 l 2
 5 51 11 57 21 57 c 2
 45 57 l 2
 129 57 165 97 195 166 c 2
 673 1287 l 2
 694.271 1336.89 712 1356 729 1356 c 0
 762 1356 778.995 1340 799 1287 c 2
 1218 177 l 2
 1248.17 97.0653 1289 57 1370 57 c 2
 1393 57 l 2
 1402 57 1413 51 1413 40 c 2
 1413 2 l 1
 1406 -2 l 1
 1406 -2 1250 3 1170 3 c 0
 1097 3 898 -2 898 -2 c 1
 894 2 l 1
 894 40 l 2
 894 51 900 57 910 57 c 2
 967 57 l 2
 1031 57 1063 79 1063 113 c 0
 1063 123 1061 135 1056 147 c 2
 925 500 l 1
 494 500 l 2
 444 500 429 488 419 464 c 2
 287 147 l 2
-35 -170 m 1
 1479 -170 l 1
 1464 -250 l 1
 -50 -250 l 1
 -35 -170 l 1
EndSplineSet
LCarets2: 1 0 
Ligature2: "'liga' Standard Ligatures in Cyrillic lookup 2" afii10017 uni0308
EndChar
StartChar: uni04D3
Encoding: 1235 1235 110
Width: 926
VWidth: 2047
Flags: HW
HStem: -15 84<208.9 437.9> -15 93<728 853.8> 847 62<321.3 481.749> 1067 186<219.7 352.3 548.7 681.3>
VStem: 80 148<146.3 371.2> 102 149<685 831.9> 193 186<1093.7 1226.3> 522 186<1094.7 1227.3> 606 147<164 507>
Fore
522 1161 m 0
 522 1212 564 1254 615 1254 c 0
 666 1254 708 1212 708 1161 c 0
 708 1110 666 1068 615 1068 c 0
 564 1068 522 1110 522 1161 c 0
193 1160 m 0
 193 1211 235 1253 286 1253 c 0
 337 1253 379 1211 379 1160 c 0
 379 1109 337 1067 286 1067 c 0
 235 1067 193 1109 193 1160 c 0
606 507 m 1
 284 431 228 337 228 223 c 0
 228 164 256 69 413 69 c 0
 463 69 529 100 606 164 c 1
 606 507 l 1
728 -15 m 0
 649 -15 616 45 607 95 c 1
 535 47 l 2
 479 6 416 -15 343 -15 c 0
 183 -15 80 74 80 213 c 0
 80 377 201 470 413 523 c 2
 606 570 l 1
 606 622 599.97 739.969 538 800 c 0
 504.984 831.983 467 847 424 847 c 0
 345 847 251 813 251 750 c 0
 251 726 255 715 258 708 c 0
 262 701 265 686.125 265 671 c 0
 265 645 243 604 184 604 c 0
 136 604 102 636 102 685 c 0
 102 805 294 909 430 909 c 0
 494 909 649 896 719 752 c 0
 744 703 753 633 753 552 c 2
 753 251 l 2
 753 143 755 108 770 92 c 0
 779 84 791 78 807 78 c 0
 843 78 865 115 887 168 c 1
 920 154 l 1
 888 60 843 -15 728 -15 c 0
-35 -170 m 1
 990 -170 l 1
 975 -250 l 1
 -50 -250 l 1
 -35 -170 l 1
EndSplineSet
LCarets2: 1 0 
Ligature2: "'liga' Standard Ligatures in Cyrillic lookup 2" afii10065 uni0308
EndChar
StartChar: uni04D4
Encoding: 1236 1236 111
Width: 1862
VWidth: 2047
Flags: HW
HStem: -4 61<4.12241 142.7 260.627 401.138 694.749 845> 0 80<1053.5 1558> 544 80<549 873> 679 70<1038 1314> 1242 80<1048.3 1508> 1264 60<599 717.151>
VStem: 873 165<76.8 544 624 679 749 1237.26> 1592 55<1030.42 1145.78>
Fore
549 624 m 1
 873 624 l 1
 873 1178 l 2
 873 1215 870 1215 870 1224 c 1
 549 624 l 1
959 2 m 2
 886 2 695 -4 695 -4 c 1
 691 0 l 1
 691 38 l 2
 691 49 697 57 707 57 c 2
 761 57 l 2
 845 57 873 90 873 147 c 2
 873 544 l 1
 507 544 l 1
 291 140 l 2
 276.023 111.988 265 92 265 80 c 0
 265 62 282 57 331 57 c 2
 391 57 l 2
 399 57 402 51 403 45 c 1
 403 -2 l 1
 403 -2 268 2 188 2 c 0
 116 2 0 -2 0 -2 c 1
 0 41 l 2
 1 51 8 57 20 57 c 2
 66 57 l 2
 125 57 150 71 189 144 c 2
 735 1182 l 2
 740.56 1192.57 742.984 1202.29 742.984 1211.06 c 0
 742.984 1244.43 707.885 1264 677 1264 c 2
 613 1264 l 2
 599 1264 597 1273 597 1278 c 2
 597 1324 l 1
 956 1320 l 1
 1115 1322 l 1
 1618 1322 l 1
 1647 1036 l 1
 1592 1030 l 1
 1577 1118 1508 1242 1402 1242 c 2
 1112 1242 l 2
 1063 1242 1038 1224 1038 1175 c 2
 1038 749 l 1
 1245 749 l 2
 1317 749 1334.92 783.018 1348 840 c 2
 1362 901 l 2
 1363 910 1369 918 1377 918 c 2
 1422 918 l 2
 1427 918 1429 913 1429 909 c 0
 1424 843 1413 783 1413 714 c 0
 1413 644 1422 584 1429 518 c 1
 1424 511 l 1
 1377 511 l 2
 1366 511 1361 519 1360 526 c 2
 1348 589 l 2
 1336.77 647.957 1314 679 1245 679 c 2
 1038 679 l 1
 1038 147 l 2
 1038 93 1067 80 1112 80 c 2
 1424 80 l 2
 1558 80 1616 189 1648 337 c 1
 1702 328 l 1
 1650 0 l 1
 1114 0 l 1
 959 2 l 2
-35 -170 m 1
 1837.5 -170 l 1
 1822.5 -250 l 1
 -50 -250 l 1
 -35 -170 l 1
EndSplineSet
EndChar
StartChar: uni04D5
Encoding: 1237 1237 112
Width: 1440
VWidth: 2047
Flags: HW
HStem: -19 84<208.9 442.455> -15 101<839.8 1185.6> 482 80<768 1192> 840 70<851.9 1100.8> 847 62<321.3 479.9>
VStem: 80 148<146.3 371.2> 102 149<681.1 831.9> 600 159<165.3 490.467> 1192 163<482 736.8>
Fore
1040 86 m 0
 1152 86 1241 119 1313 197 c 1
 1347 176 l 1
 1306 122 1216 -15 1020 -15 c 0
 812 -15 716 90 684 138 c 1
 674 127 666 124 618 86 c 2
 552 38 l 2
 495.87 -2.82183 416 -19 343 -19 c 0
 183 -19 80 74 80 213 c 0
 80 377 201.067 469.733 413 523 c 2
 600 570 l 1
 600 620 600 739 543 796 c 0
 511 828 467 847 424 847 c 0
 345 847 251 813 251 750 c 0
 251 697 265 718 265 671 c 0
 265 640 236 604 185 604 c 0
 120 604 102 656 102 696 c 0
 102 816 262 909 430 909 c 0
 480 909 636 903 712 765 c 1
 793 859 887 910 1004 910 c 0
 1285 910 1355 678 1355 482 c 1
 761 482 l 1
 759 463 759 470 759 450 c 0
 759 231 886 86 1040 86 c 0
1192 562 m 1
 1192 780 1078 840 1002 840 c 0
 853 840 783 677 768 562 c 1
 1192 562 l 1
600 507 m 1
 278 431 228 337 228 223 c 0
 228 164 256 65 413 65 c 0
 463 65 523 96 600 160 c 1
 600 507 l 1
-35 -170 m 1
 1492 -170 l 1
 1477 -250 l 1
 -50 -250 l 1
 -35 -170 l 1
EndSplineSet
EndChar
StartChar: uni04D6
Encoding: 1238 1238 113
Width: 1199
VWidth: 2047
Flags: HW
HStem: -2 57<25 184> 0 80<388.5 974> 669 70<373 730> 888 20<793 838> 1242 80<398 904.8> 1267 57<27 203.4> 1414 107<493.3 765> 1626 20<356 413 855 910>
VStem: 208 165<93 669 739 1238.7> 356 554<1548.82 1646 1646 1646> 778 59.8224<837.474 910.756> 957 55<1030.42 1145.78>
Fore
910 1646 m 1
 898 1500 769 1414 635 1414 c 0
 484 1414 367 1503 356 1646 c 1
 413 1646 l 1
 430 1566 526 1521 635 1521 c 0
 735 1521 841 1566 855 1646 c 1
 910 1646 l 1
983 1322 m 1
 1012 1036 l 1
 957 1030 l 1
 942 1118 873 1242 767 1242 c 2
 447 1242 l 2
 398 1242 373 1224 373 1175 c 2
 373 739 l 1
 661 739 l 2
 733 739 750.922 773.018 764 830 c 2
 778 891 l 2
 779 900 785 908 793 908 c 2
 838 908 l 2
 843 908 845 904 845 899 c 0
 838.5 848.5 829 773 829 704 c 0
 829 634 839.5 543 845 508 c 1
 840 501 l 1
 793 501 l 2
 782 501 777 509 776 516 c 2
 764 579 l 2
 752.77 637.957 730 669 661 669 c 2
 373 669 l 1
 373 147 l 2
 373 93 402 80 447 80 c 2
 840 80 l 2
 974 80 1032 189 1064 337 c 1
 1118 328 l 1
 1066 0 l 1
 449 0 l 1
 290 2 l 1
 25 -2 l 1
 25 41 l 2
 25 48 28 55 41 55 c 2
 102 55 l 2
 184 55 208 90 208 147 c 2
 208 1175 l 2
 208 1239 180 1267 102 1267 c 2
 41 1267 l 2
 27 1267 25 1276 25 1281 c 2
 25 1324 l 1
 291 1320 l 1
 450 1322 l 1
 983 1322 l 1
-35 -170 m 1
 1235 -170 l 1
 1220 -250 l 1
 -50 -250 l 1
 -35 -170 l 1
EndSplineSet
LCarets2: 1 0 
Ligature2: "'liga' Standard Ligatures in Cyrillic lookup 2" afii10022 uni0306
EndChar
StartChar: uni04D7
Encoding: 1239 1239 114
Width: 895
VWidth: 2047
Flags: HW
HStem: -22 101<304.5 652.024> 488 80<234 658> 836 70<406.165 566.8> 1025 117<325.8 609.2>
VStem: 70 155<164.313 499.912> 209 55<1188.33 1324.71> 658 163<488 758.4> 708 54<1191.09 1330>
Fore
264 1330 m 1
 268 1225 363 1142 487 1142 c 0
 581 1142 703 1203 708 1330 c 1
 762 1302 l 1
 742 1096 589 1025 487 1025 c 0
 328 1025 224 1143 209 1302 c 1
 264 1330 l 1
234 568 m 1
 658 568 l 1
 658 794 544 836 468 836 c 0
 421.2 836 267.769 817.892 234 568 c 1
779 190 m 1
 813 169 l 1
 736 60 634 -22 486 -22 c 0
 186 -22 70 189 70 429 c 0
 70 739.699 275.023 906 470 906 c 0
 752 906 821 696 821 488 c 1
 227 488 l 1
 225.5 476.75 225 463 225 446 c 0
 225 229.318 351 79 506 79 c 0
 618.326 79 708 112 779 190 c 1
-35 -170 m 1
 964 -170 l 1
 949 -250 l 1
 -50 -250 l 1
 -35 -170 l 1
EndSplineSet
LCarets2: 1 0 
Ligature2: "'liga' Standard Ligatures in Cyrillic lookup 2" afii10070 uni0306
EndChar
StartChar: uni04D8
Encoding: 1240 1240 115
Width: 1369
VWidth: 2047
Flags: HW
HStem: -22 70<343.4 1020.7> 443 90<250 1102> 1272 70<415.2 1141.9>
VStem: 1124 175<511.005 988.2>
Fore
-35 -170 m 1
 1407 -170 l 1
 1392 -250 l 1
 -50 -250 l 1
 -35 -170 l 1
214 1067 m 1
 161 1107 l 1
 255 1224 426 1342 654 1342 c 0
 1170 1342 1299 915 1299 671 c 0
 1299 261 1048 -22 667 -22 c 0
 279 -22 70 319 70 533 c 1
 1121 533 l 1
 1123 556 1124 583 1124 611 c 0
 1124 954 1030 1272 657 1272 c 0
 471 1272 301 1151 214 1067 c 1
250 443 m 1
 287 282 419 48 671 48 c 0
 940 48 1083 310 1102 443 c 1
 250 443 l 1
EndSplineSet
EndChar
StartChar: afii10846
Encoding: 1241 1241 116
Width: 895
VWidth: 2047
Flags: HW
HStem: -23 70<334.2 494.835> 315 80<243 667> 804 101<248.976 596.5>
VStem: 80 163<124.6 395> 676 155<383.088 718.687>
Fore
667 315 m 1
 243 315 l 1
 243 89 357 47 433 47 c 0
 479.8 47 633.23 65.1084 667 315 c 1
122 693 m 1
 88 714 l 1
 165 823 267 905 415 905 c 0
 715 905 831 694 831 454 c 0
 831 143.301 625.977 -23 431 -23 c 0
 149 -23 80 187 80 395 c 1
 674 395 l 1
 675.5 406.25 676 420 676 437 c 0
 676 653.682 550 804 395 804 c 0
 282.674 804 193 771 122 693 c 1
-35 -170 m 1
 949.5 -170 l 1
 934.5 -250 l 1
 -50 -250 l 1
 -35 -170 l 1
EndSplineSet
EndChar
StartChar: uni04DA
Encoding: 1242 1242 117
Width: 1369
VWidth: 2047
Flags: HW
HStem: -22 70<343.4 1020.7> 443 90<250 1102> 1272 70<415.2 1141.9> 1445.5 186<398.2 530.8 786.2 918.8>
VStem: 371.5 186<1472.2 1604.8> 759.5 186<1473.2 1605.8> 1124 175<511.005 988.2>
Fore
759.5 1539.5 m 0
 759.5 1590.5 801.5 1632.5 852.5 1632.5 c 0
 903.5 1632.5 945.5 1590.5 945.5 1539.5 c 0
 945.5 1488.5 903.5 1446.5 852.5 1446.5 c 0
 801.5 1446.5 759.5 1488.5 759.5 1539.5 c 0
371.5 1538.5 m 0
 371.5 1589.5 413.5 1631.5 464.5 1631.5 c 0
 515.5 1631.5 557.5 1589.5 557.5 1538.5 c 0
 557.5 1487.5 515.5 1445.5 464.5 1445.5 c 0
 413.5 1445.5 371.5 1487.5 371.5 1538.5 c 0
-35 -170 m 1
 1407 -170 l 1
 1392 -250 l 1
 -50 -250 l 1
 -35 -170 l 1
214 1067 m 1
 161 1107 l 1
 255 1224 426 1342 654 1342 c 0
 1170 1342 1299 915 1299 671 c 0
 1299 261 1048 -22 667 -22 c 0
 279 -22 70 319 70 533 c 1
 1121 533 l 1
 1123 556 1124 583 1124 611 c 0
 1124 954 1030 1272 657 1272 c 0
 471 1272 301 1151 214 1067 c 1
250 443 m 1
 287 282 419 48 671 48 c 0
 940 48 1083 310 1102 443 c 1
 250 443 l 1
EndSplineSet
LCarets2: 1 0 
Ligature2: "'liga' Standard Ligatures in Cyrillic lookup 2" uni04D8 uni0308
EndChar
StartChar: uni04DB
Encoding: 1243 1243 118
Width: 895
VWidth: 2047
Flags: HW
HStem: -23 70<334.2 494.835> 315 80<243 667> 804 101<248.976 596.5> 1067 186<207.7 340.3 536.7 669.3>
VStem: 80 163<124.6 395> 181 186<1093.7 1226.3> 510 186<1094.7 1227.3> 676 155<383.088 718.687>
Fore
510 1161 m 0
 510 1212 552 1254 603 1254 c 0
 654 1254 696 1212 696 1161 c 0
 696 1110 654 1068 603 1068 c 0
 552 1068 510 1110 510 1161 c 0
181 1160 m 0
 181 1211 223 1253 274 1253 c 0
 325 1253 367 1211 367 1160 c 0
 367 1109 325 1067 274 1067 c 0
 223 1067 181 1109 181 1160 c 0
667 315 m 1
 243 315 l 1
 243 89 357 47 433 47 c 0
 479.8 47 633.23 65.1084 667 315 c 1
122 693 m 1
 88 714 l 1
 165 823 267 905 415 905 c 0
 715 905 831 694 831 454 c 0
 831 143.301 625.977 -23 431 -23 c 0
 149 -23 80 187 80 395 c 1
 674 395 l 1
 675.5 406.25 676 420 676 437 c 0
 676 653.682 550 804 395 804 c 0
 282.674 804 193 771 122 693 c 1
-35 -170 m 1
 949.5 -170 l 1
 934.5 -250 l 1
 -50 -250 l 1
 -35 -170 l 1
EndSplineSet
LCarets2: 1 0 
Ligature2: "'liga' Standard Ligatures in Cyrillic lookup 2" afii10846 uni0308
EndChar
StartChar: uni04E0
Encoding: 1248 1248 119
Width: 1246
VWidth: 2047
Flags: HW
HStem: -432 70<466.7 683.8> 1227 95<282 920>
VStem: 962 180<1 227.2>
Fore
240 1322 m 2
 1086 1322 l 2
 1122 1322 1135 1311 1135 1294 c 0
 1135 1273 1112 1241 1090 1210 c 2
 665 613 l 1
 816 582 944.992 524.992 1038 429 c 0
 1131.99 331.992 1142 246 1142 123 c 2
 1142 121 l 2
 1141 1 1109 -104 1042 -195 c 0
 988 -268 915 -332 816 -377 c 0
 721 -420 646 -432 520 -432 c 0
 407 -432 250 -390 148 -330 c 0
 102 -302 73 -266 73 -230 c 0
 73 -204 85 -184 104 -168 c 0
 128 -147 157 -140 188 -140 c 0
 242 -140 286.944 -159.046 319 -198 c 0
 398 -294 488 -362 559 -362 c 0
 658 -362 739 -335 803 -279 c 0
 909 -185 962 -61 962 105 c 0
 962 199 948 274 870 363 c 0
 795 448 652 501 484 501 c 0
 436 501 426 498 390 495 c 1
 920 1227 l 1
 339 1227 l 2
 282 1227 235 1204 206 1176 c 0
 163 1133 148 1062 142 1021 c 1
 92 1021 l 1
 133 1347 l 1
 184 1339 l 1
 183 1333 184 1329 188 1325 c 0
 190 1323 195 1322 240 1322 c 2
EndSplineSet
EndChar
StartChar: uni04E1
Encoding: 1249 1249 120
Width: 919
VWidth: 2047
Flags: HW
HStem: -459 59<294.2 459.3> 795 85<203.301 573>
VStem: 669 144<-113 92.5>
Fore
220 880 m 2
 691 880 l 2
 728 880 740 872 740 854 c 0
 740 841 732 821 720 795 c 2
 453 312 l 1
 694 290 822 150 822 -65 c 0
 822 -262 665 -459 370 -459 c 0
 184 -459 57 -378 57 -311 c 0
 57 -279 73 -249 117 -249 c 0
 164 -249 197 -262 222 -306 c 0
 248 -353 305 -400 388 -400 c 0
 490 -400 669 -308 669 -67 c 0
 669 97 532 232 372 232 c 0
 336 232 296 227 252 217 c 1
 573 800 l 1
 282 800 l 2
 220 800 160 774 122 603 c 1
 68 612 l 1
 133 924 l 1
 181 915 l 1
 180 910 180 906 180 903 c 0
 180 884 192 880 220 880 c 2
EndSplineSet
EndChar
StartChar: uni04E6
Encoding: 1254 1254 121
Width: 1431
VWidth: 2047
Flags: HW
HStem: -25 70<403.3 1058.5> 1276 70<428.9 1021.7> 1445.5 186<450.7 583.3 838.7 971.3>
VStem: 75 188<157.8 1157.6> 424 186<1472.2 1604.8> 812 186<1473.2 1605.8> 1168 188<158.2 1187.8>
Fore
812 1539.5 m 0
 812 1590.5 854 1632.5 905 1632.5 c 0
 956 1632.5 998 1590.5 998 1539.5 c 0
 998 1488.5 956 1446.5 905 1446.5 c 0
 854 1446.5 812 1488.5 812 1539.5 c 0
424 1538.5 m 0
 424 1589.5 466 1631.5 517 1631.5 c 0
 568 1631.5 610 1589.5 610 1538.5 c 0
 610 1487.5 568 1445.5 517 1445.5 c 0
 466 1445.5 424 1487.5 424 1538.5 c 0
685 1276 m 0
 488 1276 263 1100 263 670 c 0
 263 276 484 45 753 45 c 0
 988 45 1168 268 1168 634 c 0
 1168 1060 944 1276 685 1276 c 0
1356 674 m 0
 1356 264 1104 -25 713 -25 c 0
 360 -25 75 232 75 635 c 0
 75 1037 344 1346 711 1346 c 0
 1052 1346 1356 1080 1356 674 c 0
-35 -170 m 1
 1479 -170 l 1
 1464 -250 l 1
 -50 -250 l 1
 -35 -170 l 1
EndSplineSet
LCarets2: 1 0 
Ligature2: "'liga' Standard Ligatures in Cyrillic lookup 2" afii10032 uni0308
EndChar
StartChar: uni04E7
Encoding: 1255 1255 122
Width: 982
VWidth: 2047
Flags: HW
HStem: -20 73<261.4 643.6> 841 68<258.8 689.1> 1066 186<272.7 405.3 601.7 734.3>
VStem: 70 163<266.9 703.7> 246 186<1092.7 1225.3> 575 186<1093.7 1226.3> 753 160<176.5 719.9>
Fore
70 424 m 0
 70 704 222 909 493 909 c 0
 797 909 913 656 913 443 c 0
 913 238 780 -20 490 -20 c 0
 215 -20 70 214 70 424 c 0
472 841 m 0
 308 841 233 650 233 471 c 0
 233 314 322 53 524 53 c 0
 616 53 753 107 753 377 c 0
 753 677 639 841 472 841 c 0
-35 -170 m 1
 1039 -170 l 1
 1024 -250 l 1
 -50 -250 l 1
 -35 -170 l 1
575 1160 m 0
 575 1211 617 1253 668 1253 c 0
 719 1253 761 1211 761 1160 c 0
 761 1109 719 1067 668 1067 c 0
 617 1067 575 1109 575 1160 c 0
246 1159 m 0
 246 1210 288 1252 339 1252 c 0
 390 1252 432 1210 432 1159 c 0
 432 1108 390 1066 339 1066 c 0
 288 1066 246 1108 246 1159 c 0
EndSplineSet
LCarets2: 1 0 
Ligature2: "'liga' Standard Ligatures in Cyrillic lookup 2" afii10080 uni0308
EndChar
StartChar: uni04E8
Encoding: 1256 1256 123
Width: 1421
VWidth: 2047
Flags: HW
HStem: -25 67<552.4 893> 608 115<255 1158> 1275 71<525.9 834>
VStem: 70 185<652 809.3> 1161 190<423.2 665>
Fore
1161 608 m 1
 255 608 l 1
 264 433 313 288 440 161 c 0
 498 104 592 42 724 42 c 0
 854 42 959.956 86.0366 1042 185 c 0
 1119.96 279.035 1159 404 1161 608 c 1
1154 1160 m 0
 1289 1022 1351 873 1351 665 c 0
 1351 479 1291 319 1170 179 c 0
 1046 36 900 -25 728 -25 c 0
 553 -25 381 42 266 157 c 0
 135 289 70 440 70 652 c 0
 70 773 87.3926 974.609 279 1167 c 0
 401.251 1289.75 540 1346 704 1346 c 0
 894 1346 1028 1288 1154 1160 c 0
678 1275 m 0
 561 1275 468 1232 390 1137 c 0
 307 1035 262 911 255 723 c 1
 1158 723 l 1
 1147 890 1102 1028 983 1147 c 0
 892 1238 798 1275 678 1275 c 0
-35 -170 m 1
 1467 -170 l 1
 1452 -250 l 1
 -50 -250 l 1
 -35 -170 l 1
EndSplineSet
EndChar
StartChar: uni04E9
Encoding: 1257 1257 124
Width: 991
VWidth: 2047
Flags: HW
HStem: -21 73<443.4 608.5> 419 80<218 773> 840 68<370.6 621.5>
VStem: 218 15<419 499> 753 160<261.3 605.8>
Fore
753 81 m 0
 699 27 589 -21 490 -21 c 0
 359 -21 269.07 25.0612 193 112 c 0
 115.072 201.063 70 304 70 433 c 0
 70 572 123 719 230 813 c 0
 303 877 387 908 493 908 c 0
 625 908 723.804 864.84 796 776 c 0
 875.783 677.824 913 568 913 442 c 0
 913 303 843 171 753 81 c 0
668 728 m 0
 644.843 765.904 587 840 472 840 c 0
 394 840 328 811 282 736 c 0
 242.079 668.227 234.049 581.492 233.104 499 c 1
 745.602 499 l 1
 730.677 614.454 696.001 682.168 668 728 c 0
-35 -170 m 1
 1030 -170 l 1
 1015 -250 l 1
 -50 -250 l 1
 -35 -170 l 1
752.174 419 m 1
 237.244 419 l 1
 247.348 340.149 274.935 246.778 314 184 c 0
 371.18 92.112 462 52 524 52 c 0
 589 52 653.839 77.1026 708 162 c 0
 748.879 226.077 753 315 753 376 c 0
 753 390.891 752.716 405.216 752.174 419 c 1
EndSplineSet
EndChar
StartChar: uni04EA
Encoding: 1258 1258 125
Width: 1421
VWidth: 2047
Flags: HW
HStem: -25 67<552.4 893> 608 115<255 1158> 1275 71<525.9 834> 1449 186<443.7 576.3 831.7 964.3>
VStem: 70 185<652 809.3> 417 186<1475.7 1608.3> 805 186<1476.7 1609.3> 1161 190<423.2 665>
Fore
805 1543 m 0
 805 1594 847 1636 898 1636 c 0
 949 1636 991 1594 991 1543 c 0
 991 1492 949 1450 898 1450 c 0
 847 1450 805 1492 805 1543 c 0
417 1542 m 0
 417 1593 459 1635 510 1635 c 0
 561 1635 603 1593 603 1542 c 0
 603 1491 561 1449 510 1449 c 0
 459 1449 417 1491 417 1542 c 0
1161 608 m 1
 255 608 l 1
 264 433 313 288 440 161 c 0
 498 104 592 42 724 42 c 0
 854 42 959.956 86.0366 1042 185 c 0
 1119.96 279.035 1159 404 1161 608 c 1
1154 1160 m 0
 1289 1022 1351 873 1351 665 c 0
 1351 479 1291 319 1170 179 c 0
 1046 36 900 -25 728 -25 c 0
 553 -25 381 42 266 157 c 0
 135 289 70 440 70 652 c 0
 70 773 87.3926 974.609 279 1167 c 0
 401.251 1289.75 540 1346 704 1346 c 0
 894 1346 1028 1288 1154 1160 c 0
678 1275 m 0
 561 1275 468 1232 390 1137 c 0
 307 1035 262 911 255 723 c 1
 1158 723 l 1
 1147 890 1102 1028 983 1147 c 0
 892 1238 798 1275 678 1275 c 0
-35 -170 m 1
 1467 -170 l 1
 1452 -250 l 1
 -50 -250 l 1
 -35 -170 l 1
EndSplineSet
LCarets2: 1 0 
Ligature2: "'liga' Standard Ligatures in Cyrillic lookup 2" uni04E8 uni0308
EndChar
StartChar: uni04EB
Encoding: 1259 1259 126
Width: 991
VWidth: 2047
Flags: HW
HStem: -21 73<443.4 608.5> 419 80<218 773> 840 68<370.6 621.5> 1058 186<274.7 407.3 603.7 736.3>
VStem: 218 15<419 499> 248 186<1084.7 1217.3> 577 186<1085.7 1218.3> 753 160<261.3 605.8>
Fore
753 81 m 0
 699 27 589 -21 490 -21 c 0
 359 -21 269.07 25.0612 193 112 c 0
 115.072 201.063 70 304 70 433 c 0
 70 572 123 719 230 813 c 0
 303 877 387 908 493 908 c 0
 625 908 723.804 864.84 796 776 c 0
 875.783 677.824 913 568 913 442 c 0
 913 303 843 171 753 81 c 0
668 728 m 0
 644.843 765.904 587 840 472 840 c 0
 394 840 328 811 282 736 c 0
 242.079 668.227 234.049 581.492 233.104 499 c 1
 745.602 499 l 1
 730.677 614.454 696.001 682.168 668 728 c 0
-35 -170 m 1
 1030 -170 l 1
 1015 -250 l 1
 -50 -250 l 1
 -35 -170 l 1
577 1152 m 0
 577 1203 619 1245 670 1245 c 0
 721 1245 763 1203 763 1152 c 0
 763 1101 721 1059 670 1059 c 0
 619 1059 577 1101 577 1152 c 0
248 1151 m 0
 248 1202 290 1244 341 1244 c 0
 392 1244 434 1202 434 1151 c 0
 434 1100 392 1058 341 1058 c 0
 290 1058 248 1100 248 1151 c 0
752.174 419 m 1
 237.244 419 l 1
 247.348 340.149 274.935 246.778 314 184 c 0
 371.18 92.112 462 52 524 52 c 0
 589 52 653.839 77.1026 708 162 c 0
 748.879 226.077 753 315 753 376 c 0
 753 390.891 752.716 405.216 752.174 419 c 1
EndSplineSet
LCarets2: 1 0 
Ligature2: "'liga' Standard Ligatures in Cyrillic lookup 2" uni04E9 uni0308
EndChar
StartChar: uni04EF
Encoding: 1263 1263 127
Width: 1072
VWidth: 2047
Flags: HW
HStem: -440 112<208 355.6> 825 53<23.9711 142.1 333 432.714 694.229 806.7 909 1019.47> 1037 90<279 817.8>
Fore
433 841 m 2
 433 831 420 825 411 825 c 2
 374 825 l 2
 333 824 320 813 320 792 c 0
 320 777 325 754 335 731 c 2
 554 192 l 1
 778.337 722.008 l 2
 787.243 743.048 799 777 799 789 c 0
 799 809 792 825 743 825 c 2
 709 825 l 2
 699 826 689 833 689 840 c 2
 689 877 l 1
 693 883 l 1
 693 883 805.214 878 877 878 c 0
 933.974 878 1023 883 1023 883 c 1
 1023 841 l 2
 1023 831 1016 825 1001 825 c 2
 987 825 l 2
 927 825 893.337 784.008 866.337 721.008 c 2
 493 -152 l 2
 430.993 -296.997 363 -440 208 -440 c 0
 169 -440 88 -417 88 -343 c 0
 88 -282 140 -264 173 -264 c 0
 194 -264 217 -276 231 -292 c 0
 249 -313 265 -328 288 -328 c 0
 340 -328 372.855 -250.942 419 -136 c 2
 474 1 l 1
 167 758 l 2
 155 786 122 825 55 825 c 2
 40 825 l 2
 28 825 20 832 20 840 c 2
 20 883 l 1
 20 883 121.23 878 186 878 c 0
 280.79 878 429 883 429 883 c 1
 433 877 l 1
 433 841 l 2
671 -170 m 1
 1123 -170 l 1
 1108 -250 l 1
 656 -250 l 1
 671 -170 l 1
784 1037 m 2
 283 1037 l 2
 265 1037 258 1053 258 1067 c 0
 258 1091 279 1127 303 1127 c 2
 804 1127 l 2
 824 1127 832 1111 832 1097 c 0
 832 1073 810 1037 784 1037 c 2
EndSplineSet
LCarets2: 1 0 
Ligature2: "'liga' Standard Ligatures in Cyrillic lookup 2" afii10085 uni0304
EndChar
StartChar: uni04F1
Encoding: 1265 1265 128
Width: 1072
VWidth: 2047
Flags: HW
HStem: -440 112<208 355.6> 825 53<23.9711 142.1 333 432.714 694.229 806.7 909 1019.47> 1071 186<323.7 456.3 652.7 785.3>
VStem: 297 186<1097.7 1230.3> 626 186<1098.7 1231.3>
Fore
433 841 m 2
 433 831 420 825 411 825 c 2
 374 825 l 2
 333 824 320 813 320 792 c 0
 320 777 325 754 335 731 c 2
 554 192 l 1
 778.337 722.008 l 2
 787.243 743.048 799 777 799 789 c 0
 799 809 792 825 743 825 c 2
 709 825 l 2
 699 826 689 833 689 840 c 2
 689 877 l 1
 693 883 l 1
 693 883 805.214 878 877 878 c 0
 933.974 878 1023 883 1023 883 c 1
 1023 841 l 2
 1023 831 1016 825 1001 825 c 2
 987 825 l 2
 927 825 893.337 784.008 866.337 721.008 c 2
 493 -152 l 2
 430.993 -296.997 363 -440 208 -440 c 0
 169 -440 88 -417 88 -343 c 0
 88 -282 140 -264 173 -264 c 0
 194 -264 217 -276 231 -292 c 0
 249 -313 265 -328 288 -328 c 0
 340 -328 372.855 -250.942 419 -136 c 2
 474 1 l 1
 167 758 l 2
 155 786 122 825 55 825 c 2
 40 825 l 2
 28 825 20 832 20 840 c 2
 20 883 l 1
 20 883 121.23 878 186 878 c 0
 280.79 878 429 883 429 883 c 1
 433 877 l 1
 433 841 l 2
671 -170 m 1
 1123 -170 l 1
 1108 -250 l 1
 656 -250 l 1
 671 -170 l 1
626 1165 m 0
 626 1216 668 1258 719 1258 c 0
 770 1258 812 1216 812 1165 c 0
 812 1114 770 1072 719 1072 c 0
 668 1072 626 1114 626 1165 c 0
297 1164 m 0
 297 1215 339 1257 390 1257 c 0
 441 1257 483 1215 483 1164 c 0
 483 1113 441 1071 390 1071 c 0
 339 1071 297 1113 297 1164 c 0
EndSplineSet
LCarets2: 1 0 
Ligature2: "'liga' Standard Ligatures in Cyrillic lookup 2" afii10085 uni0308
EndChar
StartChar: uni04F3
Encoding: 1267 1267 129
Width: 1072
VWidth: 2047
Flags: HW
HStem: -440 112<208 355.6> 825 53<23.9711 142.1 333 432.714 694.229 806.7 909 1019.47> 985 361<414 571>
VStem: 385 534<1011 1259>
Fore
433 841 m 2
 433 831 420 825 411 825 c 2
 374 825 l 2
 333 824 320 813 320 792 c 0
 320 777 325 754 335 731 c 2
 554 192 l 1
 778.337 722.008 l 2
 787.243 743.048 799 777 799 789 c 0
 799 809 792 825 743 825 c 2
 709 825 l 2
 699 826 689 833 689 840 c 2
 689 877 l 1
 693 883 l 1
 693 883 805.214 878 877 878 c 0
 933.974 878 1023 883 1023 883 c 1
 1023 841 l 2
 1023 831 1016 825 1001 825 c 2
 987 825 l 2
 927 825 893.337 784.008 866.337 721.008 c 2
 493 -152 l 2
 430.993 -296.997 363 -440 208 -440 c 0
 169 -440 88 -417 88 -343 c 0
 88 -282 140 -264 173 -264 c 0
 194 -264 217 -276 231 -292 c 0
 249 -313 265 -328 288 -328 c 0
 340 -328 372.855 -250.942 419 -136 c 2
 474 1 l 1
 167 758 l 2
 155 786 122 825 55 825 c 2
 40 825 l 2
 28 825 20 832 20 840 c 2
 20 883 l 1
 20 883 121.23 878 186 878 c 0
 280.79 878 429 883 429 883 c 1
 433 877 l 1
 433 841 l 2
671 -170 m 1
 1123 -170 l 1
 1108 -250 l 1
 656 -250 l 1
 671 -170 l 1
891 1316 m 0
 909 1302 919 1280 919 1259 c 0
 919 1247 917 1232 905 1220 c 2
 671 996 l 1
 668 991 663 990 659 990 c 0
 653 990 647 993 641 998 c 1
 634 1002 630 1010 630 1018 c 0
 630 1020 630 1024 632 1026 c 1
 792 1310 l 2
 802.107 1327.94 817 1334 841 1334 c 0
 859 1334 876 1328 891 1316 c 0
615 1332 m 0
 636 1319 649 1296 649 1271 c 0
 649 1261 647 1249 638 1239 c 2
 429 991 l 2
 425 987 419 985 414 985 c 0
 409 985 403 987 398 990 c 0
 390 995 385 1003 385 1011 c 0
 385 1014 385 1016 386 1018 c 2
 517 1317 l 2
 525 1335 539 1343 563 1345 c 1
 566 1346 569 1346 571 1346 c 0
 587 1346 600 1341 615 1332 c 0
EndSplineSet
LCarets2: 1 0 
Ligature2: "'liga' Standard Ligatures in Cyrillic lookup 2" afii10085 uni030B
EndChar
StartChar: uni1E00
Encoding: 7680 7680 130
Width: 1410
VWidth: 2047
Flags: HW
HStem: -441 60<603.49 769.812> -161 60<604.775 765.65> 3 54<7.83661 154.2 293.7 445.508 892.888 1031 1264.7 1408.43> 500 80<473.748 896> 1336 20<720.5 745.5>
VStem: 516 61<-345.85 -192.35> 797 61<-346.58 -188.78>
Fore
531 580 m 2
 896 580 l 1
 694 1126 l 1
 482 616 l 2
 479 609 478 604 478 599 c 0
 478 586 492 580 531 580 c 2
287 147 m 2
 281 133 278 120 278 109 c 0
 278 75 312 57 373 57 c 2
 432 57 l 2
 441 57 449 51 449 40 c 2
 449 2 l 1
 445 -2 l 1
 445 -2 242 3 192 3 c 0
 140 3 9 -2 9 -2 c 1
 5 2 l 1
 5 40 l 2
 5 51 11 57 21 57 c 2
 45 57 l 2
 129 57 165 97 195 166 c 2
 673 1287 l 2
 694.271 1336.89 712 1356 729 1356 c 0
 762 1356 778.995 1340 799 1287 c 2
 1218 177 l 2
 1248.17 97.0653 1289 57 1370 57 c 2
 1393 57 l 2
 1402 57 1413 51 1413 40 c 2
 1413 2 l 1
 1406 -2 l 1
 1406 -2 1250 3 1170 3 c 0
 1097 3 898 -2 898 -2 c 1
 894 2 l 1
 894 40 l 2
 894 51 900 57 910 57 c 2
 967 57 l 2
 1031 57 1063 79 1063 113 c 0
 1063 123 1061 135 1056 147 c 2
 925 500 l 1
 494 500 l 2
 444 500 429 488 419 464 c 2
 287 147 l 2
-35 -170 m 1
 430 -170 l 1
 415 -250 l 1
 -50 -250 l 1
 -35 -170 l 1
955 -170 m 1
 1479 -170 l 1
 1464 -250 l 1
 940 -250 l 1
 955 -170 l 1
687 -161 m 0
 623.75 -161 577 -210.5 577 -271 c 0
 577 -328.58 622.762 -381 687 -381 c 0
 750.701 -381 797 -329.14 797 -271 c 0
 797 -207.75 747.5 -161 687 -161 c 0
516 -271 m 0
 516 -178.36 590.109 -101 686 -101 c 0
 780.166 -101 858 -175.72 858 -271 c 0
 858 -363.45 784.123 -441 686 -441 c 0
 591.749 -441 516 -366.43 516 -271 c 0
EndSplineSet
LCarets2: 1 0 
Ligature2: "'liga' Standard Ligatures lookup 1" A uni0325
EndChar
StartChar: uni1E01
Encoding: 7681 7681 131
Width: 935
VWidth: 2047
Flags: HW
HStem: -443 60<374.49 540.812> -163 60<375.775 536.65> -15 84<208.9 437.9> -15 93<728 853.8> 847 62<321.3 481.749>
VStem: 80 148<146.3 371.2> 102 149<685 831.9> 287 61<-347.85 -194.35> 568 61<-348.58 -190.78> 606 147<164 507>
Fore
606 507 m 1
 284 431 228 337 228 223 c 0
 228 164 256 69 413 69 c 0
 463 69 529 100 606 164 c 1
 606 507 l 1
728 -15 m 0
 649 -15 616 45 607 95 c 1
 535 47 l 2
 479 6 416 -15 343 -15 c 0
 183 -15 80 74 80 213 c 0
 80 377 201 470 413 523 c 2
 606 570 l 1
 606 622 599.97 739.969 538 800 c 0
 504.984 831.983 467 847 424 847 c 0
 345 847 251 813 251 750 c 0
 251 726 255 715 258 708 c 0
 262 701 265 686.125 265 671 c 0
 265 645 243 604 184 604 c 0
 136 604 102 636 102 685 c 0
 102 805 294 909 430 909 c 0
 494 909 649 896 719 752 c 0
 744 703 753 633 753 552 c 2
 753 251 l 2
 753 143 755 108 770 92 c 0
 779 84 791 78 807 78 c 0
 843 78 865 115 887 168 c 1
 920 154 l 1
 888 60 843 -15 728 -15 c 0
-35 -170 m 1
 225 -170 l 1
 210 -250 l 1
 -50 -250 l 1
 -35 -170 l 1
704.5 -170 m 1
 983 -170 l 1
 968 -250 l 1
 689.5 -250 l 1
 704.5 -170 l 1
458 -163 m 0
 394.75 -163 348 -212.5 348 -273 c 0
 348 -330.58 393.762 -383 458 -383 c 0
 521.701 -383 568 -331.14 568 -273 c 0
 568 -209.75 518.5 -163 458 -163 c 0
287 -273 m 0
 287 -180.36 361.109 -103 457 -103 c 0
 551.166 -103 629 -177.72 629 -273 c 0
 629 -365.45 555.123 -443 457 -443 c 0
 362.749 -443 287 -368.43 287 -273 c 0
EndSplineSet
LCarets2: 1 0 
Ligature2: "'liga' Standard Ligatures lookup 1" a uni0325
EndChar
StartChar: uni1E02
Encoding: 7682 7682 132
Width: 1214
VWidth: 2047
Flags: HW
HStem: -3 70<346.9 968.3> -2 57<37.9924 192> 693 70<382 575> 1252 72<340.9 720.5> 1270 49<37.0099 298> 1420 196<508.8 649.2>
VStem: 217 165<59.6 693 763 1246> 481 196<1447.8 1588.2> 849 158<862.1 1188.4> 946 183<215.2 603>
Fore
481 1518 m 0
 481 1572 525 1616 579 1616 c 0
 633 1616 677 1572 677 1518 c 0
 677 1464 633 1420 579 1420 c 0
 525 1420 481 1464 481 1518 c 0
382 1178 m 2
 382 763 l 1
 544 763 l 2
 714 763 849 832 849 1005 c 0
 849 1215 686 1252 571 1252 c 0
 394 1252 382 1245 382 1178 c 2
382 693 m 1
 382 148 l 2
 382 80 397 67 564 67 c 0
 875 67 946 253 946 379 c 0
 946 563 816 693 575 693 c 2
 382 693 l 1
35 39 m 1
 36 46 38 55 50 55 c 2
 111 55 l 2
 192 55 217 77 217 149 c 2
 217 1177 l 2
 217 1246 196 1270 111 1270 c 2
 50 1270 l 2
 39 1271 35 1276 35 1284 c 2
 35 1325 l 1
 35 1325 233 1319 298 1319 c 0
 365 1319 485 1324 557 1324 c 0
 938 1324 1007 1147 1007 1009 c 0
 1007 896 922 787 817 735 c 1
 1034 686 1129 546 1129 356 c 0
 1129 181 1010 -3 602 -3 c 0
 455 -3 358.5 2 298 2 c 2
 35 -2 l 1
 35 39 l 1
-35 -170 m 1
 1275 -170 l 1
 1260 -250 l 1
 -50 -250 l 1
 -35 -170 l 1
EndSplineSet
LCarets2: 1 0 
Ligature2: "'liga' Standard Ligatures lookup 1" B uni0307
EndChar
StartChar: uni1E03
Encoding: 7683 7683 133
Width: 988
VWidth: 2047
Flags: HW
HStem: -17 57<379.1 713.512> 820 89<456.71 685.8> 1406 20<260 305> 1415 196<471.8 612.2>
VStem: 152 153<118 729 792 1304.5> 444 196<1442.8 1583.2> 757 158<159.88 734.198>
Fore
444 1513 m 0
 444 1567 488 1611 542 1611 c 0
 596 1611 640 1567 640 1513 c 0
 640 1459 596 1415 542 1415 c 0
 488 1415 444 1459 444 1513 c 0
305 118 m 1
 346 68 398 40 461 40 c 0
 655.24 40 757 229.831 757 463 c 0
 757 671.614 648 820 522 820 c 0
 500 820 386 812 305 729 c 1
 305 118 l 1
305 1426 m 1
 305 792 l 1
 375.168 867.565 463.662 909 564 909 c 0
 742 909 915 739.781 915 490 c 0
 915 164 682 -17 472 -17 c 0
 385 -17 312 7 252 59 c 1
 234 32.667 207 0.333008 188 -20 c 1
 146 -10 l 1
 151 38 152 71 152 151 c 2
 152 1181 l 2
 152 1276 132 1319 91 1319 c 2
 25 1312 l 2
 18.5723 1311.32 14.5166 1315.29 14 1322 c 2
 10 1374 l 1
 42 1374 117 1385 152 1392 c 0
 189 1399 219 1408 260 1426 c 1
 305 1426 l 1
-35 -170 m 1
 1048 -170 l 1
 1033 -250 l 1
 -50 -250 l 1
 -35 -170 l 1
EndSplineSet
LCarets2: 1 0 
Ligature2: "'liga' Standard Ligatures lookup 1" b uni0307
EndChar
StartChar: uni1E04
Encoding: 7684 7684 134
Width: 1214
VWidth: 2047
Flags: HW
HStem: -329 196<485.8 626.2> -3 70<346.9 968.3> -2 57<37.9924 192> 693 70<382 575> 1252 72<340.9 720.5> 1270 49<37.0099 298>
VStem: 217 165<59.6 693 763 1246> 458 196<-301.2 -160.8> 849 158<862.1 1188.4> 946 183<215.2 603>
Fore
382 1178 m 2
 382 763 l 1
 544 763 l 2
 714 763 849 832 849 1005 c 0
 849 1215 686 1252 571 1252 c 0
 394 1252 382 1245 382 1178 c 2
382 693 m 1
 382 148 l 2
 382 80 397 67 564 67 c 0
 875 67 946 253 946 379 c 0
 946 563 816 693 575 693 c 2
 382 693 l 1
35 39 m 1
 36 46 38 55 50 55 c 2
 111 55 l 2
 192 55 217 77 217 149 c 2
 217 1177 l 2
 217 1246 196 1270 111 1270 c 2
 50 1270 l 2
 39 1271 35 1276 35 1284 c 2
 35 1325 l 1
 35 1325 233 1319 298 1319 c 0
 365 1319 485 1324 557 1324 c 0
 938 1324 1007 1147 1007 1009 c 0
 1007 896 922 787 817 735 c 1
 1034 686 1129 546 1129 356 c 0
 1129 181 1010 -3 602 -3 c 0
 455 -3 358.5 2 298 2 c 2
 35 -2 l 1
 35 39 l 1
-35 -170 m 1
 366 -170 l 1
 351 -250 l 1
 -50 -250 l 1
 -35 -170 l 1
762 -170 m 1
 1270.5 -170 l 1
 1255.5 -250 l 1
 747 -250 l 1
 762 -170 l 1
458 -231 m 0
 458 -177 502 -133 556 -133 c 0
 610 -133 654 -177 654 -231 c 0
 654 -285 610 -329 556 -329 c 0
 502 -329 458 -285 458 -231 c 0
EndSplineSet
LCarets2: 1 0 
Ligature2: "'liga' Standard Ligatures lookup 1" B dotbelowcomb
EndChar
StartChar: uni1E05
Encoding: 7685 7685 135
Width: 988
VWidth: 2047
Flags: HW
HStem: -335 196<382.8 523.2> -17 57<379.1 713.512> 820 89<456.71 685.8> 1406 20<260 305>
VStem: 152 153<118 729 792 1304.5> 355 196<-307.2 -166.8> 757 158<159.88 734.198>
Fore
305 118 m 1
 346 68 398 40 461 40 c 0
 655.24 40 757 229.831 757 463 c 0
 757 671.614 648 820 522 820 c 0
 500 820 386 812 305 729 c 1
 305 118 l 1
305 1426 m 1
 305 792 l 1
 375.168 867.565 463.662 909 564 909 c 0
 742 909 915 739.781 915 490 c 0
 915 164 682 -17 472 -17 c 0
 385 -17 312 7 252 59 c 1
 234 32.667 207 0.333008 188 -20 c 1
 146 -10 l 1
 151 38 152 71 152 151 c 2
 152 1181 l 2
 152 1276 132 1319 91 1319 c 2
 25 1312 l 2
 18.5723 1311.32 14.5166 1315.29 14 1322 c 2
 10 1374 l 1
 42 1374 117 1385 152 1392 c 0
 189 1399 219 1408 260 1426 c 1
 305 1426 l 1
-35 -170 m 1
 280 -170 l 1
 265 -250 l 1
 -50 -250 l 1
 -35 -170 l 1
645 -170 m 1
 1045 -170 l 1
 1030 -250 l 1
 630 -250 l 1
 645 -170 l 1
355 -237 m 0
 355 -183 399 -139 453 -139 c 0
 507 -139 551 -183 551 -237 c 0
 551 -291 507 -335 453 -335 c 0
 399 -335 355 -291 355 -237 c 0
EndSplineSet
LCarets2: 1 0 
Ligature2: "'liga' Standard Ligatures lookup 1" b dotbelowcomb
EndChar
StartChar: uni1E06
Encoding: 7686 7686 136
Width: 1214
VWidth: 2047
Flags: HW
HStem: -211 80<265 878> -3 70<346.9 968.3> -2 57<37.9924 192> 693 70<382 575> 1252 72<340.9 720.5> 1270 49<37.0099 298>
VStem: 217 165<59.6 693 763 1246> 263 615<-211 -211> 849 158<862.1 1188.4> 946 183<215.2 603>
Fore
382 1178 m 2
 382 763 l 1
 544 763 l 2
 714 763 849 832 849 1005 c 0
 849 1215 686 1252 571 1252 c 0
 394 1252 382 1245 382 1178 c 2
382 693 m 1
 382 148 l 2
 382 80 397 67 564 67 c 0
 875 67 946 253 946 379 c 0
 946 563 816 693 575 693 c 2
 382 693 l 1
35 39 m 1
 36 46 38 55 50 55 c 2
 111 55 l 2
 192 55 217 77 217 149 c 2
 217 1177 l 2
 217 1246 196 1270 111 1270 c 2
 50 1270 l 2
 39 1271 35 1276 35 1284 c 2
 35 1325 l 1
 35 1325 233 1319 298 1319 c 0
 365 1319 485 1324 557 1324 c 0
 938 1324 1007 1147 1007 1009 c 0
 1007 896 922 787 817 735 c 1
 1034 686 1129 546 1129 356 c 0
 1129 181 1010 -3 602 -3 c 0
 455 -3 358.5 2 298 2 c 2
 35 -2 l 1
 35 39 l 1
-35 -170 m 1
 159 -170 l 1
 144 -250 l 1
 -50 -250 l 1
 -35 -170 l 1
987 -170 m 1
 1270.5 -170 l 1
 1255.5 -250 l 1
 972 -250 l 1
 987 -170 l 1
878 -211 m 1
 263 -211 l 1
 253.248 -198.731 249.928 -186.561 249.928 -175.548 c 0
 249.928 -151.555 265.685 -133.056 265 -131 c 1
 878 -131 l 1
 887.137 -150.645 890.848 -163.82 890.848 -174.72 c 0
 890.848 -187.678 885.604 -197.422 878 -211 c 1
EndSplineSet
LCarets2: 1 0 
Ligature2: "'liga' Standard Ligatures lookup 1" B uni0331
EndChar
StartChar: uni1E07
Encoding: 7687 7687 137
Width: 990
VWidth: 2047
Flags: HW
HStem: -218 80<204 817> -17 57<379.1 713.512> 820 89<456.71 685.8> 1406 20<260 305>
VStem: 152 153<118 729 792 1304.5> 202 615<-218 -218> 757 158<159.88 734.198>
Fore
305 118 m 1
 346 68 398 40 461 40 c 0
 655.24 40 757 229.831 757 463 c 0
 757 671.614 648 820 522 820 c 0
 500 820 386 812 305 729 c 1
 305 118 l 1
305 1426 m 1
 305 792 l 1
 375.168 867.565 463.662 909 564 909 c 0
 742 909 915 739.781 915 490 c 0
 915 164 682 -17 472 -17 c 0
 385 -17 312 7 252 59 c 1
 234 32.667 207 0.333008 188 -20 c 1
 146 -10 l 1
 151 38 152 71 152 151 c 2
 152 1181 l 2
 152 1276 132 1319 91 1319 c 2
 25 1312 l 2
 18.5723 1311.32 14.5166 1315.29 14 1322 c 2
 10 1374 l 1
 42 1374 117 1385 152 1392 c 0
 189 1399 219 1408 260 1426 c 1
 305 1426 l 1
-35 -170 m 1
 105 -170 l 1
 90 -250 l 1
 -50 -250 l 1
 -35 -170 l 1
919.5 -170 m 1
 1059 -170 l 1
 1044 -250 l 1
 904.5 -250 l 1
 919.5 -170 l 1
817 -218 m 1
 202 -218 l 1
 192.248 -205.731 188.928 -193.561 188.928 -182.548 c 0
 188.928 -158.555 204.685 -140.056 204 -138 c 1
 817 -138 l 1
 826.137 -157.645 829.848 -170.82 829.848 -181.72 c 0
 829.848 -194.678 824.604 -204.422 817 -218 c 1
EndSplineSet
LCarets2: 1 0 
Ligature2: "'liga' Standard Ligatures lookup 1" b uni0331
EndChar
StartChar: uni1E08
Encoding: 7688 7688 138
Width: 1403
VWidth: 2047
Flags: HW
HStem: -380 52<635.201 790.6> -172 64<729.077 809.1> -33 87<356.6 1017> 1275 70<495.9 939.2> 1428 250<581 836>
VStem: 78 178<300.8 1185.7> 551 413<1458 1571> 833 109<-315.5 -188.1> 1125 62<923.328 1027.01 1267.78 1335>
Fore
836 1678 m 1
 964 1571 l 1
 669 1452 l 2
 624.714 1434.14 598.5 1428 581 1428 c 0
 562.5 1428 551 1438.5 551 1458 c 0
 551 1472 556.307 1483.08 582 1501 c 2
 836 1678 l 1
1095 -170 m 1
 1403 -170 l 1
 1388 -250 l 1
 1080 -250 l 1
 1095 -170 l 1
-35 -170 m 1
 483 -170 l 1
 468 -250 l 1
 -50 -250 l 1
 -35 -170 l 1
748 -172 m 0
 709 -172 689 -175 656 -186 c 1
 643 -173 l 1
 707.839 -30.5135 l 1
 305.697 1.07662 78 328.267 78 641 c 0
 78 1060 384 1345 726 1345 c 0
 979 1345 1065 1261 1106 1261 c 0
 1123 1261 1129 1272 1129 1283 c 0
 1129 1291 1128 1323 1125 1335 c 1
 1187 1344 l 1
 1242 934 l 1
 1180 927 l 1
 1169 1006 1138.84 1080.82 1061 1152 c 0
 974.821 1230.8 896 1275 752 1275 c 0
 555 1275 256 1152 256 670 c 0
 256 386 452 54 770 54 c 0
 960 54 1078 108 1214 278 c 1
 1261 248 l 1
 1138.99 69.4466 997.297 -31.3715 777.361 -32.9804 c 1
 744 -114 l 1
 760 -110 778 -108 797 -108 c 0
 879 -108 942 -156 942 -235 c 0
 942 -322 849 -380 724 -380 c 0
 658 -380 623 -368 571 -345 c 1
 590 -308 l 1
 648 -325 662 -328 710 -328 c 0
 772 -328 833 -299 833 -244 c 0
 833 -201 795 -172 748 -172 c 0
EndSplineSet
LCarets2: 1 0 
Ligature2: "'liga' Standard Ligatures lookup 1" Ccedilla acutecomb
EndChar
StartChar: uni1E09
Encoding: 7689 7689 139
Width: 846
VWidth: 2047
Flags: HW
HStem: -366 52<348.201 503.6> -158 64<442.077 522.1> -19 90<300.32 670.3> 839 70<287.56 655.922> 1029 333<438 614>
VStem: 75 158<155.3 763.9> 408.001 323.999<1053.67 1292> 546 109<-301.5 -174.1>
Fore
584 1357 m 1
 591 1360 604 1362 614 1362 c 0
 671.337 1362 696.833 1339.83 714 1324.45 c 0
 718.721 1320.22 722.923 1316.57 727 1314 c 1
 732 1292 l 1
 497 1069 l 2
 465 1039 451 1029 438 1029 c 0
 422 1029 408.001 1040.33 408.001 1053.67 c 0
 408.001 1064.67 408.188 1079.8 421 1100 c 2
 584 1357 l 1
778 -170 m 1
 925 -170 l 1
 910 -250 l 1
 763 -250 l 1
 778 -170 l 1
-35 -170 m 1
 218 -170 l 1
 203 -250 l 1
 -50 -250 l 1
 -35 -170 l 1
461 -158 m 0
 422 -158 402 -161 369 -172 c 1
 356 -159 l 1
 421.871 -14.2457 l 1
 193.057 18.7058 75 218.191 75 435 c 0
 75 688 248 909 493 909 c 0
 710.529 909 817 792.024 817 697 c 0
 817 623 762 612 743 612 c 0
 694.444 612 654.444 637.778 647.777 680 c 0
 636.856 749.164 615.556 839 481 839 c 0
 332.2 839 233 700.328 233 479 c 0
 233 230 355.4 71 539 71 c 0
 640 71 736 122 803 212 c 1
 827 197 l 1
 758.057 46.1251 632.209 -18.8922 490.353 -18.9999 c 1
 457 -100 l 1
 473 -96 491 -94 510 -94 c 0
 592 -94 655 -142 655 -221 c 0
 655 -308 562 -366 437 -366 c 0
 371 -366 336 -354 284 -331 c 1
 303 -294 l 1
 361 -311 375 -314 423 -314 c 0
 485 -314 546 -285 546 -230 c 0
 546 -187 508 -158 461 -158 c 0
EndSplineSet
LCarets2: 1 0 
Ligature2: "'liga' Standard Ligatures lookup 1" ccedilla acutecomb
EndChar
StartChar: uni1E0A
Encoding: 7690 7690 140
Width: 1448
VWidth: 2047
Flags: HW
HStem: -3 57<38.2959 188> -3 70<345.7 981.4> 1255 70<423.4 1129.3> 1268 57<38.7683 222.8> 1429 196<536.8 677.2>
VStem: 217 165<62.2 1248> 509 196<1456.8 1597.2> 1152 188<44.1 991.8>
Fore
509 1527 m 0
 509 1581 553 1625 607 1625 c 0
 661 1625 705 1581 705 1527 c 0
 705 1473 661 1429 607 1429 c 0
 553 1429 509 1473 509 1527 c 0
35 36 m 2
 35 46 40 54 50 54 c 2
 111 54 l 2
 188 54 217 82 217 148 c 2
 217 1174 l 2
 217 1248 197 1268 111 1268 c 2
 53 1268 l 2
 42 1268 35 1275 35 1286 c 2
 35 1325 l 1
 296 1319 l 2
 434 1321 563 1325 632 1325 c 0
 1027 1325 1340 1011 1340 631 c 0
 1340 128 959 -3 669 -3 c 0
 459 -3 371 3 296 3 c 2
 35 -3 l 1
 35 36 l 2
382 147 m 2
 382 81 406 67 607 67 c 0
 895 67 1152 168 1152 581 c 0
 1152 897 997 1255 556 1255 c 0
 454 1255 382 1248 382 1175 c 2
 382 147 l 2
-35 -170 m 1
 1491 -170 l 1
 1476 -250 l 1
 -50 -250 l 1
 -35 -170 l 1
EndSplineSet
LCarets2: 1 0 
Ligature2: "'liga' Standard Ligatures lookup 1" D uni0307
EndChar
StartChar: uni1E0B
Encoding: 7691 7691 141
Width: 1028
VWidth: 2047
Flags: HW
HStem: -15 87<335.7 567.1> 838 71<414.494 586.724> 1132 196<248.8 389.2> 1406 20<805 850>
VStem: 70 159<114.9 623.6> 221 196<1159.8 1300.2> 697 153<189 717 854 1276>
Fore
221 1230 m 0
 221 1284 265 1328 319 1328 c 0
 373 1328 417 1284 417 1230 c 0
 417 1176 373 1132 319 1132 c 0
 265 1132 221 1176 221 1230 c 0
697 189 m 1
 697 717 l 1
 651 798 584 838 488 838 c 0
 446 838 359.437 830.701 294 735 c 0
 265.192 692.869 229 610 229 462 c 0
 229 195 372 72 493 72 c 0
 550 72 627 119 697 189 c 1
700 123 m 1
 650 73 544 -15 440 -15 c 0
 218 -15 70 174 70 426 c 0
 70 578 113 699 200 786 c 0
 283 864 375 909 492 909 c 0
 533 909 622 904 697 854 c 1
 697 1181 l 2
 697 1276 676 1319 636 1319 c 2
 570 1312 l 2
 564.067 1311.37 559.433 1316.37 559 1322 c 2
 555 1374 l 1
 587 1374 662 1385 697 1392 c 0
 734 1399 764 1408 805 1426 c 1
 850 1426 l 1
 850 255 l 2
 850 195 853 162 858 147 c 0
 863 128 880 121 897 121 c 0
 921 121 986 135 1004 140 c 1
 1016 84 l 1
 896 59 789 26 743 -15 c 1
 694 -15 l 1
 700 123 l 1
-35 -170 m 1
 1068 -170 l 1
 1053 -250 l 1
 -50 -250 l 1
 -35 -170 l 1
EndSplineSet
LCarets2: 1 0 
Ligature2: "'liga' Standard Ligatures lookup 1" d uni0307
EndChar
StartChar: uni1E0C
Encoding: 7692 7692 142
Width: 1448
VWidth: 2047
Flags: HW
HStem: -320 196<526.8 667.2> -3 57<38.2959 188> -3 70<345.7 981.4> 1255 70<423.4 1129.3> 1268 57<38.7683 222.8>
VStem: 217 165<62.2 1248> 499 196<-292.2 -151.8> 1152 188<44.1 991.8>
Fore
35 36 m 2
 35 46 40 54 50 54 c 2
 111 54 l 2
 188 54 217 82 217 148 c 2
 217 1174 l 2
 217 1248 197 1268 111 1268 c 2
 53 1268 l 2
 42 1268 35 1275 35 1286 c 2
 35 1325 l 1
 296 1319 l 2
 434 1321 563 1325 632 1325 c 0
 1027 1325 1340 1011 1340 631 c 0
 1340 128 959 -3 669 -3 c 0
 459 -3 371 3 296 3 c 2
 35 -3 l 1
 35 36 l 2
382 147 m 2
 382 81 406 67 607 67 c 0
 895 67 1152 168 1152 581 c 0
 1152 897 997 1255 556 1255 c 0
 454 1255 382 1248 382 1175 c 2
 382 147 l 2
-35 -170 m 1
 406.5 -170 l 1
 391.5 -250 l 1
 -50 -250 l 1
 -35 -170 l 1
816 -170 m 1
 1509 -170 l 1
 1494 -250 l 1
 801 -250 l 1
 816 -170 l 1
499 -222 m 0
 499 -168 543 -124 597 -124 c 0
 651 -124 695 -168 695 -222 c 0
 695 -276 651 -320 597 -320 c 0
 543 -320 499 -276 499 -222 c 0
EndSplineSet
LCarets2: 1 0 
Ligature2: "'liga' Standard Ligatures lookup 1" D dotbelowcomb
EndChar
StartChar: uni1E0D
Encoding: 7693 7693 143
Width: 1028
VWidth: 2047
Flags: HW
HStem: -331 196<524.8 665.2> -15 87<335.7 567.1> 838 71<414.494 586.724> 1406 20<805 850>
VStem: 70 159<114.9 623.6> 497 196<-303.2 -162.8> 697 153<189 717 854 1276>
Fore
697 189 m 1
 697 717 l 1
 651 798 584 838 488 838 c 0
 446 838 359.437 830.701 294 735 c 0
 265.192 692.869 229 610 229 462 c 0
 229 195 372 72 493 72 c 0
 550 72 627 119 697 189 c 1
700 123 m 1
 650 73 544 -15 440 -15 c 0
 218 -15 70 174 70 426 c 0
 70 578 113 699 200 786 c 0
 283 864 375 909 492 909 c 0
 533 909 622 904 697 854 c 1
 697 1181 l 2
 697 1276 676 1319 636 1319 c 2
 570 1312 l 2
 564.067 1311.37 559.433 1316.37 559 1322 c 2
 555 1374 l 1
 587 1374 662 1385 697 1392 c 0
 734 1399 764 1408 805 1426 c 1
 850 1426 l 1
 850 255 l 2
 850 195 853 162 858 147 c 0
 863 128 880 121 897 121 c 0
 921 121 986 135 1004 140 c 1
 1016 84 l 1
 896 59 789 26 743 -15 c 1
 694 -15 l 1
 700 123 l 1
-35 -170 m 1
 415 -170 l 1
 400 -250 l 1
 -50 -250 l 1
 -35 -170 l 1
805 -170 m 1
 1090 -170 l 1
 1075 -250 l 1
 790 -250 l 1
 805 -170 l 1
497 -233 m 0
 497 -179 541 -135 595 -135 c 0
 649 -135 693 -179 693 -233 c 0
 693 -287 649 -331 595 -331 c 0
 541 -331 497 -287 497 -233 c 0
EndSplineSet
LCarets2: 1 0 
Ligature2: "'liga' Standard Ligatures lookup 1" d dotbelowcomb
EndChar
StartChar: uni1E0E
Encoding: 7694 7694 144
Width: 1448
VWidth: 2047
Flags: HW
HStem: -209 80<280 893> -3 57<38.2959 188> -3 70<345.7 981.4> 1255 70<423.4 1129.3> 1268 57<38.7683 222.8>
VStem: 217 165<62.2 1248> 278 615<-209 -209> 1152 188<44.1 991.8>
Fore
35 36 m 2
 35 46 40 54 50 54 c 2
 111 54 l 2
 188 54 217 82 217 148 c 2
 217 1174 l 2
 217 1248 197 1268 111 1268 c 2
 53 1268 l 2
 42 1268 35 1275 35 1286 c 2
 35 1325 l 1
 296 1319 l 2
 434 1321 563 1325 632 1325 c 0
 1027 1325 1340 1011 1340 631 c 0
 1340 128 959 -3 669 -3 c 0
 459 -3 371 3 296 3 c 2
 35 -3 l 1
 35 36 l 2
382 147 m 2
 382 81 406 67 607 67 c 0
 895 67 1152 168 1152 581 c 0
 1152 897 997 1255 556 1255 c 0
 454 1255 382 1248 382 1175 c 2
 382 147 l 2
-35 -170 m 1
 159 -170 l 1
 144 -250 l 1
 -50 -250 l 1
 -35 -170 l 1
987 -170 m 1
 1504.5 -170 l 1
 1489.5 -250 l 1
 972 -250 l 1
 987 -170 l 1
893 -209 m 1
 278 -209 l 1
 268.248 -196.731 264.928 -184.561 264.928 -173.548 c 0
 264.928 -149.555 280.685 -131.056 280 -129 c 1
 893 -129 l 1
 902.137 -148.645 905.848 -161.82 905.848 -172.72 c 0
 905.848 -185.678 900.604 -195.422 893 -209 c 1
EndSplineSet
LCarets2: 1 0 
Ligature2: "'liga' Standard Ligatures lookup 1" D uni0331
EndChar
StartChar: uni1E0F
Encoding: 7695 7695 145
Width: 1024
VWidth: 2047
Flags: HW
HStem: -217 80<179 792> -15 87<335.7 567.1> 838 71<414.494 586.724> 1406 20<805 850>
VStem: 70 159<114.9 623.6> 177 615<-217 -217> 697 153<189 717 854 1276>
Fore
697 189 m 1
 697 717 l 1
 651 798 584 838 488 838 c 0
 446 838 359.437 830.701 294 735 c 0
 265.192 692.869 229 610 229 462 c 0
 229 195 372 72 493 72 c 0
 550 72 627 119 697 189 c 1
700 123 m 1
 650 73 544 -15 440 -15 c 0
 218 -15 70 174 70 426 c 0
 70 578 113 699 200 786 c 0
 283 864 375 909 492 909 c 0
 533 909 622 904 697 854 c 1
 697 1181 l 2
 697 1276 676 1319 636 1319 c 2
 570 1312 l 2
 564.067 1311.37 559.433 1316.37 559 1322 c 2
 555 1374 l 1
 587 1374 662 1385 697 1392 c 0
 734 1399 764 1408 805 1426 c 1
 850 1426 l 1
 850 255 l 2
 850 195 853 162 858 147 c 0
 863 128 880 121 897 121 c 0
 921 121 986 135 1004 140 c 1
 1016 84 l 1
 896 59 789 26 743 -15 c 1
 694 -15 l 1
 700 123 l 1
-35 -170 m 1
 118.5 -170 l 1
 103.5 -250 l 1
 -50 -250 l 1
 -35 -170 l 1
946.5 -170 m 1
 1095 -170 l 1
 1080 -250 l 1
 931.5 -250 l 1
 946.5 -170 l 1
823.5 -217 m 1
 208.5 -217 l 1
 198.748 -204.731 195.428 -192.561 195.428 -181.548 c 0
 195.428 -157.555 211.185 -139.056 210.5 -137 c 1
 823.5 -137 l 1
 832.637 -156.645 836.348 -169.82 836.348 -180.72 c 0
 836.348 -193.678 831.104 -203.422 823.5 -217 c 1
EndSplineSet
LCarets2: 1 0 
Ligature2: "'liga' Standard Ligatures lookup 1" d uni0331
EndChar
StartChar: uni1E10
Encoding: 7696 7696 146
Width: 1448
VWidth: 2047
Flags: HW
HStem: -372 52<246.201 401.6> -164 64<340.077 420.1> -3 57<38.2959 188> -3 70<345.7 981.4> 1255 70<423.4 1129.3> 1268 57<38.7683 222.8>
VStem: 217 165<62.2 1248> 444 109<-307.5 -180.1> 1152 188<44.1 991.8>
Fore
35 36 m 2
 35 46 40 54 50 54 c 2
 111 54 l 2
 188 54 217 82 217 148 c 2
 217 1174 l 2
 217 1248 197 1268 111 1268 c 2
 53 1268 l 2
 42 1268 35 1275 35 1286 c 2
 35 1325 l 1
 296 1319 l 2
 434 1321 563 1325 632 1325 c 0
 1027 1325 1340 1011 1340 631 c 0
 1340 128 959 -3 669 -3 c 0
 542.863 -3 460.742 -0.835306 399.015 0.893629 c 1
 355 -106 l 1
 371 -102 389 -100 408 -100 c 0
 490 -100 553 -148 553 -227 c 0
 553 -314 460 -372 335 -372 c 0
 269 -372 234 -360 182 -337 c 1
 201 -300 l 1
 259 -317 273 -320 321 -320 c 0
 383 -320 444 -291 444 -236 c 0
 444 -193 406 -164 359 -164 c 0
 320 -164 300 -167 267 -178 c 1
 254 -165 l 1
 330.29 2.64868 l 1
 318.347 2.87016 307.033 3 296 3 c 2
 35 -3 l 1
 35 36 l 2
382 147 m 2
 382 81 406 67 607 67 c 0
 895 67 1152 168 1152 581 c 0
 1152 897 997 1255 556 1255 c 0
 454 1255 382 1248 382 1175 c 2
 382 147 l 2
-35 -170 m 1
 163.5 -170 l 1
 148.5 -250 l 1
 -50 -250 l 1
 -35 -170 l 1
662.5 -170 m 1
 1495.5 -170 l 1
 1480.5 -250 l 1
 647.5 -250 l 1
 662.5 -170 l 1
EndSplineSet
LCarets2: 1 0 
Ligature2: "'liga' Standard Ligatures lookup 1" D uni0327
EndChar
StartChar: uni1E11
Encoding: 7697 7697 147
Width: 1028
VWidth: 2047
Flags: HW
HStem: -363 52<341.201 496.6> -155 64<435.077 515.1> -15 87<335.7 567.1> 838 71<414.494 586.724> 1406 20<805 850>
VStem: 70 159<114.9 623.6> 539 109<-298.5 -171.1> 697 153<189 717 854 1276>
Fore
697 189 m 1
 697 717 l 1
 651 798 584 838 488 838 c 0
 446 838 359.437 830.701 294 735 c 0
 265.192 692.869 229 610 229 462 c 0
 229 195 372 72 493 72 c 0
 550 72 627 119 697 189 c 1
-35 -170 m 1
 255 -170 l 1
 240 -250 l 1
 -50 -250 l 1
 -35 -170 l 1
740 -170 m 1
 1075 -170 l 1
 1060 -250 l 1
 725 -250 l 1
 740 -170 l 1
454 -155 m 0
 415 -155 395 -158 362 -169 c 1
 349 -156 l 1
 413.577 -14.0909 l 1
 206.334 0.305553 70 184.136 70 426 c 0
 70 578 113 699 200 786 c 0
 283 864 375 909 492 909 c 0
 533 909 622 904 697 854 c 1
 697 1181 l 2
 697 1276 676 1319 636 1319 c 2
 570 1312 l 2
 564.067 1311.37 559.433 1316.37 559 1322 c 2
 555 1374 l 1
 587 1374 662 1385 697 1392 c 0
 734 1399 764 1408 805 1426 c 1
 850 1426 l 1
 850 255 l 2
 850 195 853 162 858 147 c 0
 863 128 880 121 897 121 c 0
 921 121 986 135 1004 140 c 1
 1016 84 l 1
 896 59 789 26 743 -15 c 1
 694 -15 l 1
 700 123 l 1
 657.375 80.3748 574.051 10.1326 485.963 -9.66098 c 1
 450 -97 l 1
 466 -93 484 -91 503 -91 c 0
 585 -91 648 -139 648 -218 c 0
 648 -305 555 -363 430 -363 c 0
 364 -363 329 -351 277 -328 c 1
 296 -291 l 1
 354 -308 368 -311 416 -311 c 0
 478 -311 539 -282 539 -227 c 0
 539 -184 501 -155 454 -155 c 0
EndSplineSet
LCarets2: 1 0 
Ligature2: "'liga' Standard Ligatures lookup 1" d uni0327
EndChar
StartChar: uni1E12
Encoding: 7698 7698 148
Width: 1448
VWidth: 2047
Flags: HW
HStem: -420 293<598 763> -3 57<38.2959 188> -3 70<345.7 981.4> 1255 70<423.4 1129.3> 1268 57<38.7683 222.8>
VStem: 217 165<62.2 1248> 286 519<-393 -393> 1152 188<44.1 991.8>
Fore
35 36 m 2
 35 46 40 54 50 54 c 2
 111 54 l 2
 188 54 217 82 217 148 c 2
 217 1174 l 2
 217 1248 197 1268 111 1268 c 2
 53 1268 l 2
 42 1268 35 1275 35 1286 c 2
 35 1325 l 1
 296 1319 l 2
 434 1321 563 1325 632 1325 c 0
 1027 1325 1340 1011 1340 631 c 0
 1340 128 959 -3 669 -3 c 0
 459 -3 371 3 296 3 c 2
 35 -3 l 1
 35 36 l 2
382 147 m 2
 382 81 406 67 607 67 c 0
 895 67 1152 168 1152 581 c 0
 1152 897 997 1255 556 1255 c 0
 454 1255 382 1248 382 1175 c 2
 382 147 l 2
-35 -170 m 1
 294 -170 l 1
 279 -250 l 1
 -50 -250 l 1
 -35 -170 l 1
807 -170 m 1
 1500 -170 l 1
 1485 -250 l 1
 792 -250 l 1
 807 -170 l 1
598 -127 m 1
 657 -223 732 -311 805 -393 c 1
 763 -420 l 1
 683 -361 614 -310 545 -236 c 1
 469 -314 402 -365 326 -420 c 1
 286 -393 l 1
 358 -312 436 -221 496 -127 c 1
 598 -127 l 1
EndSplineSet
LCarets2: 1 0 
Ligature2: "'liga' Standard Ligatures lookup 1" D uni032D
EndChar
StartChar: uni1E13
Encoding: 7699 7699 149
Width: 1028
VWidth: 2047
Flags: HW
HStem: -415 293<494 659> -15 87<335.7 567.1> 838 71<414.494 586.724> 1406 20<805 850>
VStem: 70 159<114.9 623.6> 182 519<-388 -388> 697 153<189 717 854 1276>
Fore
697 189 m 1
 697 717 l 1
 651 798 584 838 488 838 c 0
 446 838 359.437 830.701 294 735 c 0
 265.192 692.869 229 610 229 462 c 0
 229 195 372 72 493 72 c 0
 550 72 627 119 697 189 c 1
700 123 m 1
 650 73 544 -15 440 -15 c 0
 218 -15 70 174 70 426 c 0
 70 578 113 699 200 786 c 0
 283 864 375 909 492 909 c 0
 533 909 622 904 697 854 c 1
 697 1181 l 2
 697 1276 676 1319 636 1319 c 2
 570 1312 l 2
 564.067 1311.37 559.433 1316.37 559 1322 c 2
 555 1374 l 1
 587 1374 662 1385 697 1392 c 0
 734 1399 764 1408 805 1426 c 1
 850 1426 l 1
 850 255 l 2
 850 195 853 162 858 147 c 0
 863 128 880 121 897 121 c 0
 921 121 986 135 1004 140 c 1
 1016 84 l 1
 896 59 789 26 743 -15 c 1
 694 -15 l 1
 700 123 l 1
-35 -170 m 1
 217 -170 l 1
 202 -250 l 1
 -50 -250 l 1
 -35 -170 l 1
730 -170 m 1
 1090 -170 l 1
 1075 -250 l 1
 715 -250 l 1
 730 -170 l 1
494 -122 m 1
 553 -218 628 -306 701 -388 c 1
 659 -415 l 1
 579 -356 510 -305 441 -231 c 1
 365 -309 298 -360 222 -415 c 1
 182 -388 l 1
 254 -307 332 -216 392 -122 c 1
 494 -122 l 1
EndSplineSet
LCarets2: 1 0 
Ligature2: "'liga' Standard Ligatures lookup 1" d uni032D
EndChar
StartChar: uni1E14
Encoding: 7700 7700 150
Width: 1199
VWidth: 2047
Flags: HW
HStem: -2 57<25 184> 0 80<388.5 974> 669 70<373 730> 888 20<793 838> 1242 80<398 904.8> 1267 57<27 203.4> 1473 90<311 849.8> 1634.6 216.48<491.35 683.08>
VStem: 208 165<93 669 739 1238.7> 371.23 334.95<1661 1768.36> 778 59.8224<837.474 910.756> 957 55<1030.42 1145.78>
Fore
491.35 1851.08 m 1
 682.31 1698.84 l 2
 699.25 1684.76 706.18 1673.32 706.18 1661 c 0
 706.18 1642.96 697.71 1634.6 683.08 1634.6 c 0
 669.22 1634.6 648.754 1640.29 615.32 1655.72 c 2
 371.23 1768.36 l 1
 491.35 1851.08 l 1
816 1473 m 2
 315 1473 l 2
 297 1473 290 1489 290 1503 c 0
 290 1527 311 1563 335 1563 c 2
 836 1563 l 2
 856 1563 864 1547 864 1533 c 0
 864 1509 842 1473 816 1473 c 2
983 1322 m 1
 1012 1036 l 1
 957 1030 l 1
 942 1118 873 1242 767 1242 c 2
 447 1242 l 2
 398 1242 373 1224 373 1175 c 2
 373 739 l 1
 661 739 l 2
 733 739 750.922 773.018 764 830 c 2
 778 891 l 2
 779 900 785 908 793 908 c 2
 838 908 l 2
 843 908 845 904 845 899 c 0
 838.5 848.5 829 773 829 704 c 0
 829 634 839.5 543 845 508 c 1
 840 501 l 1
 793 501 l 2
 782 501 777 509 776 516 c 2
 764 579 l 2
 752.77 637.957 730 669 661 669 c 2
 373 669 l 1
 373 147 l 2
 373 93 402 80 447 80 c 2
 840 80 l 2
 974 80 1032 189 1064 337 c 1
 1118 328 l 1
 1066 0 l 1
 449 0 l 1
 290 2 l 1
 25 -2 l 1
 25 41 l 2
 25 48 28 55 41 55 c 2
 102 55 l 2
 184 55 208 90 208 147 c 2
 208 1175 l 2
 208 1239 180 1267 102 1267 c 2
 41 1267 l 2
 27 1267 25 1276 25 1281 c 2
 25 1324 l 1
 291 1320 l 1
 450 1322 l 1
 983 1322 l 1
-35 -170 m 1
 1235 -170 l 1
 1220 -250 l 1
 -50 -250 l 1
 -35 -170 l 1
EndSplineSet
LCarets2: 1 0 
Ligature2: "'liga' Standard Ligatures lookup 1" Emacron gravecomb
EndChar
StartChar: uni1E15
Encoding: 7701 7701 151
Width: 895
VWidth: 2047
Flags: HW
HStem: -22 101<304.5 652.024> 488 80<234 658> 836 70<406.165 566.8> 1092 90<198 736.8> 1250.2 299.799<410 535.066>
VStem: 70 155<164.313 499.912> 299.6 259.2<1269.7 1486.96> 658 163<488 758.4>
Fore
434 1545.1 m 1
 548.4 1313.8 l 2
 557.074 1295.65 558.8 1283.65 558.8 1269.7 c 0
 558.8 1261 547.6 1250.2 535.066 1250.2 c 0
 524.134 1250.2 513.232 1259.01 487.6 1285.9 c 2
 299.6 1486.96 l 1
 303.865 1506.7 l 1
 316.134 1518.1 354.267 1550 410 1550 c 0
 418 1550 428.4 1548.25 434 1545.1 c 1
703 1092 m 2
 202 1092 l 2
 184 1092 177 1108 177 1122 c 0
 177 1146 198 1182 222 1182 c 2
 723 1182 l 2
 743 1182 751 1166 751 1152 c 0
 751 1128 729 1092 703 1092 c 2
234 568 m 1
 658 568 l 1
 658 794 544 836 468 836 c 0
 421.2 836 267.769 817.892 234 568 c 1
779 190 m 1
 813 169 l 1
 736 60 634 -22 486 -22 c 0
 186 -22 70 189 70 429 c 0
 70 739.699 275.023 906 470 906 c 0
 752 906 821 696 821 488 c 1
 227 488 l 1
 225.5 476.75 225 463 225 446 c 0
 225 229.318 351 79 506 79 c 0
 618.326 79 708 112 779 190 c 1
-35 -170 m 1
 964 -170 l 1
 949 -250 l 1
 -50 -250 l 1
 -35 -170 l 1
EndSplineSet
LCarets2: 1 0 
Ligature2: "'liga' Standard Ligatures lookup 1" emacron gravecomb
EndChar
StartChar: uni1E16
Encoding: 7702 7702 152
Width: 1199
VWidth: 2047
Flags: HW
HStem: -2 57<25 184> 0 80<388.5 974> 669 70<373 730> 888 20<793 838> 1242 80<398 904.8> 1267 57<27 203.4> 1473 90<311 849.8> 1629.6 220<472.71 669.06>
VStem: 208 165<93 669 739 1238.7> 449.61 318.01<1656 1755.44> 778 59.8224<837.474 910.756> 957 55<1030.42 1145.78>
Fore
669.06 1849.6 m 1
 767.62 1755.44 l 1
 540.47 1650.72 l 2
 506.368 1635 486.185 1629.6 472.71 1629.6 c 0
 458.465 1629.6 449.61 1638.84 449.61 1656 c 0
 449.61 1668.32 453.696 1678.07 473.48 1693.84 c 2
 669.06 1849.6 l 1
816 1473 m 2
 315 1473 l 2
 297 1473 290 1489 290 1503 c 0
 290 1527 311 1563 335 1563 c 2
 836 1563 l 2
 856 1563 864 1547 864 1533 c 0
 864 1509 842 1473 816 1473 c 2
983 1322 m 1
 1012 1036 l 1
 957 1030 l 1
 942 1118 873 1242 767 1242 c 2
 447 1242 l 2
 398 1242 373 1224 373 1175 c 2
 373 739 l 1
 661 739 l 2
 733 739 750.922 773.018 764 830 c 2
 778 891 l 2
 779 900 785 908 793 908 c 2
 838 908 l 2
 843 908 845 904 845 899 c 0
 838.5 848.5 829 773 829 704 c 0
 829 634 839.5 543 845 508 c 1
 840 501 l 1
 793 501 l 2
 782 501 777 509 776 516 c 2
 764 579 l 2
 752.77 637.957 730 669 661 669 c 2
 373 669 l 1
 373 147 l 2
 373 93 402 80 447 80 c 2
 840 80 l 2
 974 80 1032 189 1064 337 c 1
 1118 328 l 1
 1066 0 l 1
 449 0 l 1
 290 2 l 1
 25 -2 l 1
 25 41 l 2
 25 48 28 55 41 55 c 2
 102 55 l 2
 184 55 208 90 208 147 c 2
 208 1175 l 2
 208 1239 180 1267 102 1267 c 2
 41 1267 l 2
 27 1267 25 1276 25 1281 c 2
 25 1324 l 1
 291 1320 l 1
 450 1322 l 1
 983 1322 l 1
-35 -170 m 1
 1235 -170 l 1
 1220 -250 l 1
 -50 -250 l 1
 -35 -170 l 1
EndSplineSet
LCarets2: 1 0 
Ligature2: "'liga' Standard Ligatures lookup 1" Emacron acutecomb
EndChar
StartChar: uni1E17
Encoding: 7703 7703 153
Width: 895
VWidth: 2047
Flags: HW
HStem: -22 101<304.5 652.024> 488 80<234 658> 836 70<406.165 566.8> 1092 90<198 736.8> 1239.9 299.7<423.6 564.4>
VStem: 70 155<164.313 499.912> 399.601 259.199<1262.1 1476.6> 658 163<488 758.4>
Fore
540.4 1535.1 m 1
 546 1537.8 556.4 1539.6 564.4 1539.6 c 0
 610.27 1539.6 630.666 1519.65 644.4 1505.8 c 0
 648.177 1502 651.538 1498.71 654.8 1496.4 c 1
 658.8 1476.6 l 1
 470.8 1275.9 l 2
 445.2 1248.9 434 1239.9 423.6 1239.9 c 0
 410.8 1239.9 399.601 1250.1 399.601 1262.1 c 0
 399.601 1272 399.751 1285.62 410 1303.8 c 2
 540.4 1535.1 l 1
703 1092 m 2
 202 1092 l 2
 184 1092 177 1108 177 1122 c 0
 177 1146 198 1182 222 1182 c 2
 723 1182 l 2
 743 1182 751 1166 751 1152 c 0
 751 1128 729 1092 703 1092 c 2
234 568 m 1
 658 568 l 1
 658 794 544 836 468 836 c 0
 421.2 836 267.769 817.892 234 568 c 1
779 190 m 1
 813 169 l 1
 736 60 634 -22 486 -22 c 0
 186 -22 70 189 70 429 c 0
 70 739.699 275.023 906 470 906 c 0
 752 906 821 696 821 488 c 1
 227 488 l 1
 225.5 476.75 225 463 225 446 c 0
 225 229.318 351 79 506 79 c 0
 618.326 79 708 112 779 190 c 1
-35 -170 m 1
 964 -170 l 1
 949 -250 l 1
 -50 -250 l 1
 -35 -170 l 1
EndSplineSet
LCarets2: 1 0 
Ligature2: "'liga' Standard Ligatures lookup 1" emacron acutecomb
EndChar
StartChar: uni1E18
Encoding: 7704 7704 154
Width: 1199
VWidth: 2047
Flags: HW
HStem: -415 293<614 779> -2 57<25 184> 0 80<388.5 974> 669 70<373 730> 888 20<793 838> 1242 80<398 904.8> 1267 57<27 203.4>
VStem: 208 165<93 669 739 1238.7> 302 519<-388 -388> 778 59.8224<837.474 910.756> 957 55<1030.42 1145.78>
Fore
614 -122 m 1
 673 -218 748 -306 821 -388 c 1
 779 -415 l 1
 699 -356 630 -305 561 -231 c 1
 485 -309 418 -360 342 -415 c 1
 302 -388 l 1
 374 -307 452 -216 512 -122 c 1
 614 -122 l 1
983 1322 m 1
 1012 1036 l 1
 957 1030 l 1
 942 1118 873 1242 767 1242 c 2
 447 1242 l 2
 398 1242 373 1224 373 1175 c 2
 373 739 l 1
 661 739 l 2
 733 739 750.922 773.018 764 830 c 2
 778 891 l 2
 779 900 785 908 793 908 c 2
 838 908 l 2
 843 908 845 904 845 899 c 0
 838.5 848.5 829 773 829 704 c 0
 829 634 839.5 543 845 508 c 1
 840 501 l 1
 793 501 l 2
 782 501 777 509 776 516 c 2
 764 579 l 2
 752.77 637.957 730 669 661 669 c 2
 373 669 l 1
 373 147 l 2
 373 93 402 80 447 80 c 2
 840 80 l 2
 974 80 1032 189 1064 337 c 1
 1118 328 l 1
 1066 0 l 1
 449 0 l 1
 290 2 l 1
 25 -2 l 1
 25 41 l 2
 25 48 28 55 41 55 c 2
 102 55 l 2
 184 55 208 90 208 147 c 2
 208 1175 l 2
 208 1239 180 1267 102 1267 c 2
 41 1267 l 2
 27 1267 25 1276 25 1281 c 2
 25 1324 l 1
 291 1320 l 1
 450 1322 l 1
 983 1322 l 1
-35 -170 m 1
 321 -170 l 1
 306 -250 l 1
 -50 -250 l 1
 -35 -170 l 1
834 -170 m 1
 1248 -170 l 1
 1233 -250 l 1
 819 -250 l 1
 834 -170 l 1
EndSplineSet
LCarets2: 1 0 
Ligature2: "'liga' Standard Ligatures lookup 1" E uni032D
EndChar
StartChar: uni1E19
Encoding: 7705 7705 155
Width: 895
VWidth: 2047
Flags: HW
HStem: -425 293<539 704> -22 101<304.5 652.024> 488 80<234 658> 836 70<406.165 566.8>
VStem: 70 155<164.313 499.912> 227 519<-398 -398> 658 163<488 758.4>
Fore
539 -132 m 1
 598 -228 673 -316 746 -398 c 1
 704 -425 l 1
 624 -366 555 -315 486 -241 c 1
 410 -319 343 -370 267 -425 c 1
 227 -398 l 1
 299 -317 377 -226 437 -132 c 1
 539 -132 l 1
234 568 m 1
 658 568 l 1
 658 794 544 836 468 836 c 0
 421.2 836 267.769 817.892 234 568 c 1
779 190 m 1
 813 169 l 1
 736 60 634 -22 486 -22 c 0
 186 -22 70 189 70 429 c 0
 70 739.699 275.023 906 470 906 c 0
 752 906 821 696 821 488 c 1
 227 488 l 1
 225.5 476.75 225 463 225 446 c 0
 225 229.318 351 79 506 79 c 0
 618.326 79 708 112 779 190 c 1
-35 -170 m 1
 233.5 -170 l 1
 218.5 -250 l 1
 -50 -250 l 1
 -35 -170 l 1
746.5 -170 m 1
 946 -170 l 1
 931 -250 l 1
 731.5 -250 l 1
 746.5 -170 l 1
EndSplineSet
LCarets2: 1 0 
Ligature2: "'liga' Standard Ligatures lookup 1" e uni032D
EndChar
StartChar: uni1E1A
Encoding: 7706 7706 156
Width: 1199
VWidth: 2047
Flags: HW
HStem: -316 90<638.3 746.2> -217 94<351.1 466.8> -2 57<25 184> 0 80<388.5 974> 669 70<373 730> 888 20<793 838> 1242 80<398 904.8> 1267 57<27 203.4>
VStem: 208 165<93 669 739 1238.7> 272 568<-305 -131> 778 59.8224<837.474 910.756> 957 55<1030.42 1145.78>
Fore
689 -226 m 0
 733 -226 762 -204 791 -118 c 1
 840 -131 l 1
 815 -254 757 -316 662 -316 c 0
 617 -316 574.215 -289.662 532 -263 c 0
 494 -239 456 -217 420 -217 c 0
 367 -217 340 -247 320 -315 c 1
 272 -305 l 1
 300 -184 346 -123 434 -123 c 0
 497 -123 542 -152 582 -180 c 0
 616.094 -203.866 650 -226 689 -226 c 0
983 1322 m 1
 1012 1036 l 1
 957 1030 l 1
 942 1118 873 1242 767 1242 c 2
 447 1242 l 2
 398 1242 373 1224 373 1175 c 2
 373 739 l 1
 661 739 l 2
 733 739 750.922 773.018 764 830 c 2
 778 891 l 2
 779 900 785 908 793 908 c 2
 838 908 l 2
 843 908 845 904 845 899 c 0
 838.5 848.5 829 773 829 704 c 0
 829 634 839.5 543 845 508 c 1
 840 501 l 1
 793 501 l 2
 782 501 777 509 776 516 c 2
 764 579 l 2
 752.77 637.957 730 669 661 669 c 2
 373 669 l 1
 373 147 l 2
 373 93 402 80 447 80 c 2
 840 80 l 2
 974 80 1032 189 1064 337 c 1
 1118 328 l 1
 1066 0 l 1
 449 0 l 1
 290 2 l 1
 25 -2 l 1
 25 41 l 2
 25 48 28 55 41 55 c 2
 102 55 l 2
 184 55 208 90 208 147 c 2
 208 1175 l 2
 208 1239 180 1267 102 1267 c 2
 41 1267 l 2
 27 1267 25 1276 25 1281 c 2
 25 1324 l 1
 291 1320 l 1
 450 1322 l 1
 983 1322 l 1
-35 -170 m 1
 233.5 -170 l 1
 218.5 -250 l 1
 -50 -250 l 1
 -35 -170 l 1
882 -170 m 1
 1248 -170 l 1
 1233 -250 l 1
 867 -250 l 1
 882 -170 l 1
EndSplineSet
LCarets2: 1 0 
Ligature2: "'liga' Standard Ligatures lookup 1" E uni0330
EndChar
StartChar: uni1E1B
Encoding: 7707 7707 157
Width: 895
VWidth: 2047
Flags: HW
HStem: -326 90<563.3 671.2> -227 94<276.1 391.8> -22 101<304.5 652.024> 488 80<234 658> 836 70<406.165 566.8>
VStem: 70 155<164.313 499.912> 197 568<-315 -141> 658 163<488 758.4>
Fore
234 568 m 1
 658 568 l 1
 658 794 544 836 468 836 c 0
 421.2 836 267.769 817.892 234 568 c 1
779 190 m 1
 813 169 l 1
 736 60 634 -22 486 -22 c 0
 186 -22 70 189 70 429 c 0
 70 739.699 275.023 906 470 906 c 0
 752 906 821 696 821 488 c 1
 227 488 l 1
 225.5 476.75 225 463 225 446 c 0
 225 229.318 351 79 506 79 c 0
 618.326 79 708 112 779 190 c 1
-35 -170 m 1
 186.5 -170 l 1
 171.5 -250 l 1
 -50 -250 l 1
 -35 -170 l 1
813 -170 m 1
 946 -170 l 1
 931 -250 l 1
 798 -250 l 1
 813 -170 l 1
614 -236 m 0
 658 -236 687 -214 716 -128 c 1
 765 -141 l 1
 740 -264 682 -326 587 -326 c 0
 542 -326 499.215 -299.662 457 -273 c 0
 419 -249 381 -227 345 -227 c 0
 292 -227 265 -257 245 -325 c 1
 197 -315 l 1
 225 -194 271 -133 359 -133 c 0
 422 -133 467 -162 507 -190 c 0
 541.094 -213.866 575 -236 614 -236 c 0
EndSplineSet
LCarets2: 1 0 
Ligature2: "'liga' Standard Ligatures lookup 1" e uni0330
EndChar
StartChar: uni1E1C
Encoding: 7708 7708 158
Width: 1199
VWidth: 2047
Flags: HW
HStem: -372 52<433.201 588.6> -164 64<527.077 607.1> -2 57<25 184> 0 80<388.5 974> 669 70<373 730> 888 20<793 838> 1242 80<398 904.8> 1267 57<27 203.4> 1416 107<474.3 746> 1628 20<337 394 836 891>
VStem: 208 165<93 669 739 1238.7> 337 554<1550.82 1648 1648 1648> 631 109<-307.5 -180.1> 778 59.8224<837.474 910.756> 957 55<1030.42 1145.78>
Fore
891 1648 m 1
 879 1502 750 1416 616 1416 c 0
 465 1416 348 1505 337 1648 c 1
 394 1648 l 1
 411 1568 507 1523 616 1523 c 0
 716 1523 822 1568 836 1648 c 1
 891 1648 l 1
546 -164 m 0
 507 -164 487 -167 454 -178 c 1
 441 -165 l 1
 516.084 3.88578e-15 l 1
 449 0 l 1
 290 2 l 1
 25 -2 l 1
 25 41 l 2
 25 48 28 55 41 55 c 2
 102 55 l 2
 184 55 208 90 208 147 c 2
 208 1175 l 2
 208 1239 180 1267 102 1267 c 2
 41 1267 l 2
 27 1267 25 1276 25 1281 c 2
 25 1324 l 1
 291 1320 l 1
 450 1322 l 1
 983 1322 l 1
 1012 1036 l 1
 957 1030 l 1
 942 1118 873 1242 767 1242 c 2
 447 1242 l 2
 398 1242 373 1224 373 1175 c 2
 373 739 l 1
 661 739 l 2
 733 739 750.922 773.018 764 830 c 2
 778 891 l 2
 779 900 785 908 793 908 c 2
 838 908 l 2
 843 908 845 904 845 899 c 0
 838.5 848.5 829 773 829 704 c 0
 829 634 839.5 543 845 508 c 1
 840 501 l 1
 793 501 l 2
 782 501 777 509 776 516 c 2
 764 579 l 2
 752.77 637.957 730 669 661 669 c 2
 373 669 l 1
 373 147 l 2
 373 93 402 80 447 80 c 2
 840 80 l 2
 974 80 1032 189 1064 337 c 1
 1118 328 l 1
 1066 0 l 1
 585.647 -2.77556e-17 l 1
 542 -106 l 1
 558 -102 576 -100 595 -100 c 0
 677 -100 740 -148 740 -227 c 0
 740 -314 647 -372 522 -372 c 0
 456 -372 421 -360 369 -337 c 1
 388 -300 l 1
 446 -317 460 -320 508 -320 c 0
 570 -320 631 -291 631 -236 c 0
 631 -193 593 -164 546 -164 c 0
846 -170 m 1
 1252.5 -170 l 1
 1237.5 -250 l 1
 831 -250 l 1
 846 -170 l 1
-35 -170 m 1
 336 -170 l 1
 321 -250 l 1
 -50 -250 l 1
 -35 -170 l 1
EndSplineSet
LCarets2: 1 0 
Ligature2: "'liga' Standard Ligatures lookup 1" uni0228 uni0306
EndChar
StartChar: uni1E1D
Encoding: 7709 7709 159
Width: 895
VWidth: 2047
Flags: HW
HStem: -382 52<357.201 512.6> -174 64<451.077 531.1> -22 101<304.5 652.024> 488 80<234 658> 836 70<406.165 566.8> 1025 117<318.8 602.2>
VStem: 70 155<164.313 499.912> 202 55<1188.33 1324.71> 555 109<-317.5 -190.1> 658 163<488 758.4> 701 54<1191.09 1330>
Fore
257 1330 m 1
 261 1225 356 1142 480 1142 c 0
 574 1142 696 1203 701 1330 c 1
 755 1302 l 1
 735 1096 582 1025 480 1025 c 0
 321 1025 217 1143 202 1302 c 1
 257 1330 l 1
470 -174 m 0
 431 -174 411 -177 378 -188 c 1
 365 -175 l 1
 435.579 -19.9006 l 1
 172.917 2.60645 70 202.939 70 429 c 0
 70 739.699 275.023 906 470 906 c 0
 752 906 821 696 821 488 c 1
 227 488 l 1
 225.5 476.75 225 463 225 446 c 0
 225 229.318 351 79 506 79 c 0
 618.326 79 708 112 779 190 c 1
 813 169 l 1
 739.321 64.7006 642.751 -14.8773 504.892 -21.5469 c 1
 466 -116 l 1
 482 -112 500 -110 519 -110 c 0
 601 -110 664 -158 664 -237 c 0
 664 -324 571 -382 446 -382 c 0
 380 -382 345 -370 293 -347 c 1
 312 -310 l 1
 370 -327 384 -330 432 -330 c 0
 494 -330 555 -301 555 -246 c 0
 555 -203 517 -174 470 -174 c 0
234 568 m 1
 658 568 l 1
 658 794 544 836 468 836 c 0
 421.2 836 267.769 817.892 234 568 c 1
780 -170 m 1
 956.5 -170 l 1
 941.5 -250 l 1
 765 -250 l 1
 780 -170 l 1
-35 -170 m 1
 270 -170 l 1
 255 -250 l 1
 -50 -250 l 1
 -35 -170 l 1
EndSplineSet
Ligature2: "'liga' Standard Ligatures lookup 1" uni0229 uni0306
EndChar
StartChar: uni1E1E
Encoding: 7710 7710 160
Width: 998
VWidth: 2047
Flags: HW
HStem: 2 55<24.8876 180 379.7 552.508> 669 70<373 730> 888 20<793 838> 1242 80<383.3 873> 1265 61<32 216.4> 1443 196<513.8 654.2>
VStem: 208 165<90 669 739 1238.7> 486 196<1470.8 1611.2> 778 59.837<837.474 910.756> 957 55<1030.42 1145.78>
Fore
486 1541 m 0
 486 1595 530 1639 584 1639 c 0
 638 1639 682 1595 682 1541 c 0
 682 1487 638 1443 584 1443 c 0
 530 1443 486 1487 486 1541 c 0
373 1175 m 2
 373 739 l 1
 661 739 l 2
 733 739 750.922 773.018 764 830 c 2
 778 891 l 2
 779 900 785 908 793 908 c 2
 838 908 l 2
 843 908 845 904 845 899 c 0
 838.5 851.5 829 773 829 704 c 0
 829 634 836.5 572.5 845 508 c 1
 840 501 l 1
 793 501 l 2
 782 501 777 509 776 516 c 2
 764 579 l 2
 752.77 637.957 730 669 661 669 c 2
 373 669 l 1
 373 147 l 2
 373 84 404 57 485 57 c 2
 539 57 l 2
 548 57 556 51 556 40 c 2
 556 2 l 1
 552 -2 l 1
 552 -2 374 2 294 2 c 0
 221 2 30 -2 30 -2 c 1
 26 2 l 1
 26 40 l 2
 26 51 32 57 42 57 c 2
 96 57 l 2
 180 57 208 90 208 147 c 2
 208 1175 l 2
 208 1234 190 1265 102 1265 c 2
 41 1265 l 2
 27 1265 25 1275 25 1280 c 2
 25 1322 l 1
 32 1326 l 1
 288 1321 l 1
 441 1322 l 1
 983 1322 l 1
 1012 1036 l 1
 957 1030 l 1
 942 1118 873 1242 767 1242 c 2
 447 1242 l 2
 398 1242 373 1224 373 1175 c 2
-35 -170 m 1
 1067 -170 l 1
 1052 -250 l 1
 -50 -250 l 1
 -35 -170 l 1
EndSplineSet
LCarets2: 1 0 
Ligature2: "'liga' Standard Ligatures lookup 1" F uni0307
EndChar
StartChar: uni1E1F
Encoding: 7711 7711 161
Width: 623
VWidth: 2047
Flags: HW
HStem: 2 55<44.8876 170 342.9 510.508> 800 80<48 189 342 566.602> 1364 70<399.9 566.3> 1508 196<449.8 590.2>
VStem: 189 153<71.6 800> 422 196<1535.8 1676.2>
Fore
422 1606 m 0
 422 1660 466 1704 520 1704 c 0
 574 1704 618 1660 618 1606 c 0
 618 1552 574 1508 520 1508 c 0
 466 1508 422 1552 422 1606 c 0
189 147 m 2
 189 800 l 1
 48 800 l 2
 39 800 37 803 37 812 c 2
 37 840 l 2
 37 856 48 880 84 880 c 2
 189 880 l 1
 189 966 l 2
 189 1286 354 1434 526 1434 c 0
 604 1434 658 1415 708 1379 c 0
 749 1348 768 1314 768 1280 c 0
 768 1238 738 1207 698 1207 c 0
 658 1207 631 1229 614 1265 c 0
 587 1332 548 1364 487 1364 c 0
 420 1364 342 1316 342 1001 c 2
 342 880 l 1
 568 880 l 2
 578 880 584 876 584 868 c 2
 584 827 l 2
 584 808 556 800 536 800 c 2
 342 800 l 1
 342 147 l 2
 342 89 363 57 430 57 c 2
 497 57 l 2
 506 57 514 51 514 40 c 2
 514 2 l 1
 510 -2 l 1
 510 -2 342 2 262 2 c 0
 189 2 50 -2 50 -2 c 1
 46 2 l 1
 46 40 l 2
 46 51 52 57 62 57 c 2
 101 57 l 2
 170 57 189 89 189 147 c 2
-35 -170 m 1
 678 -170 l 1
 663 -250 l 1
 -50 -250 l 1
 -35 -170 l 1
EndSplineSet
LCarets2: 1 0 
Ligature2: "'liga' Standard Ligatures lookup 1" f uni0307
EndChar
StartChar: uni1E20
Encoding: 7712 7712 162
Width: 1408
VWidth: 2047
Flags: HW
HStem: -26 73<328.1 945.6> 554 70<922.492 1095.3 1287 1377.11> 1272 70<376.2 900.1> 1515 90<485 1023.8>
VStem: 61 178<318 1135.7> 1102 165<201.335 538.1>
Fore
990 1515 m 2
 489 1515 l 2
 471 1515 464 1531 464 1545 c 0
 464 1569 485 1605 509 1605 c 2
 1010 1605 l 2
 1030 1605 1038 1589 1038 1575 c 0
 1038 1551 1016 1515 990 1515 c 2
1102 464 m 2
 1102 527 1071 554 990 554 c 2
 936 554 l 2
 927 554 919 560 919 571 c 2
 919 624 l 1
 923 628 l 1
 923 628 1101 624 1181 624 c 0
 1254 624 1372 628 1372 628 c 1
 1376 624 l 1
 1376 571 l 2
 1376 560 1370 554 1360 554 c 2
 1358 554 l 2
 1287 554 1267 521 1267 464 c 2
 1267 227 l 2
 1267 203.5 1279 187.5 1300 168 c 1
 1161 51 996 -26 754 -26 c 0
 342 -26 61 274 61 629 c 0
 61 1080 417 1342 768 1342 c 0
 980 1342 1091 1260 1124 1260 c 0
 1136 1260 1143 1272 1143 1285 c 0
 1143 1290 1141 1326 1141 1326 c 1
 1203 1334 l 1
 1256 933 l 1
 1193 926 l 1
 1174 1032 1129.92 1105.9 1050 1172 c 0
 967.914 1239.9 862 1272 735 1272 c 0
 459 1272 239 1028 239 669 c 0
 239 399 437 47 800 47 c 0
 912 47 1032 84 1102 150 c 1
 1102 464 l 2
-35 -170 m 1
 1467 -170 l 1
 1452 -250 l 1
 -50 -250 l 1
 -35 -170 l 1
EndSplineSet
LCarets2: 1 0 
Ligature2: "'liga' Standard Ligatures lookup 1" G uni0304
EndChar
StartChar: uni1E21
Encoding: 7713 7713 163
Width: 993
VWidth: 2047
Flags: HW
HStem: -481 76<350 668.5> -15 117<292.9 447.125> -9 125<428.593 619.4> 279 61<358.008 564.6> 844 57<304.6 604.9> 856 83<798 868> 1048 90<229 767.8>
VStem: 67 120<-397.9 -125.6> 122 145<472.6 819.7> 140 101<97.3 252> 648 149<326.3 712.4> 839 98<-381.4 -120.1>
Fore
734 1048 m 2
 233 1048 l 2
 215 1048 208 1064 208 1078 c 0
 208 1102 229 1138 253 1138 c 2
 754 1138 l 2
 774 1138 782 1122 782 1108 c 0
 782 1084 760 1048 734 1048 c 2
648 578 m 0
 648 747 568 844 445 844 c 0
 337 844 267 772 267 613 c 0
 267 505 307 340 471 340 c 0
 543 340 648 373 648 578 c 0
265 -5 m 1
 201 -63 187 -129 187 -199 c 0
 187 -352 371 -405 441 -405 c 0
 616 -405 839 -337 839 -189 c 0
 839 -136 812 -99 732 -59 c 0
 673.533 -29.7666 590 -9 492 -9 c 0
 474.591 -9 452 -10.001 424 -11.7354 c 0
 394.896 -13.5381 364.297 -15 341 -15 c 0
 310 -15 293 -11 265 -5 c 1
886 801 m 0
 848.5 801 837.438 818 829 833 c 0
 822.189 845.108 816.052 856 798 856 c 0
 775 856 728 825 713 805 c 1
 771 743 797 683 797 585 c 0
 797 386 633 279 461 279 c 0
 385 279 324 293 277 321 c 1
 253 286 241 254 241 213 c 0
 241 124 310 102 367 102 c 0
 377.389 102 401.88 103.703 431 106.919 c 0
 477 111.999 529.375 116 563 116 c 0
 634 116 771 103 851 32 c 0
 908 -19 937 -69 937 -136 c 0
 937 -357 648 -481 383 -481 c 0
 234 -481 67 -418 67 -240 c 0
 67 -152 123 -56 227 11 c 1
 177 37 140 87 140 161 c 0
 140 231 171 309 226 359 c 1
 170 413 122 482 122 594 c 0
 122 782 288 901 462 901 c 0
 578 901 650 859 672 842 c 1
 723 911 821 939 868 939 c 0
 916 939 949 907 949 868 c 0
 949 828 922 801 886 801 c 0
EndSplineSet
LCarets2: 1 0 
Ligature2: "'liga' Standard Ligatures lookup 1" g uni0304
EndChar
